<svg xmlns="http://www.w3.org/2000/svg" xmlns:xlink="http://www.w3.org/1999/xlink" width="5745" height="1321" viewBox="0 0 1520 349.319"><style><![CDATA[.B{fill:#dcedf1}.C{fill:#53676c}.D{fill:#0086cf}.E{fill:#fd1212}.F{fill:#6f8a91}]]></style><g transform="matrix(9.120405 0 0 9.120405 240.945999 -663.869141)"><g class="F"><path d="M23.77 105.1h-1.574l-.456-1.426h-2.28l-.452 1.426h-1.565l2.334-6.412H21.5zm-2.36-2.535l-.7-2.155q-.076-.24-.107-.577h-.036q-.022.282-.112.56l-.698 2.173zm4.604 2.535H24.57v-6.412h1.444zm6.823-5.692q-.273-.107-.523-.107-.68 0-.68.738v.487h1.046v1.042h-1.046v3.537h-1.408v-3.537h-.77v-1.042h.77v-.568q0-.782.5-1.26.5-.478 1.386-.478.43 0 .715.1z"/><use xlink:href="#B"/><use xlink:href="#C"/><path d="M50.902 105.1h-1.574l-.456-1.426h-2.28l-.452 1.426h-1.565l2.334-6.412h1.713zm-2.36-2.535l-.7-2.155q-.076-.24-.107-.577H47.7q-.022.282-.112.56l-.698 2.173zm4.453 2.015h-.018v2.638h-1.413v-6.685h1.413v.7h.018q.523-.8 1.47-.8.9 0 1.373.613.487.608.487 1.66 0 1.145-.568 1.838-.563.693-1.502.693-.827 0-1.26-.644zm-.04-1.878v.367q0 .474.25.774.25.3.657.3.483 0 .747-.37.268-.376.268-1.06 0-1.207-.94-1.207-.434 0-.7.33-.273.326-.273.867zm5.725 1.878h-.018v2.638H57.25v-6.685h1.413v.7h.018q.523-.8 1.47-.8.9 0 1.373.613.487.608.487 1.66 0 1.145-.568 1.838-.563.693-1.502.693-.827 0-1.26-.644zm-.04-1.878v.367q0 .474.25.774.25.3.657.3.483 0 .747-.37.268-.376.268-1.06 0-1.207-.94-1.207-.434 0-.7.33-.273.326-.273.867zm5.7 2.398h-1.4v-6.78h1.413zm1.926-5.3q-.358 0-.586-.2-.228-.215-.228-.523 0-.317.228-.52.228-.2.586-.2.362 0 .586.2.228.2.228.52 0 .322-.228.528-.224.206-.586.206zm.698 5.303H65.55v-4.58h1.413z"/><use xlink:href="#D"/><path d="M76.37 105.1h-1.337v-.657h-.018q-.46.77-1.364.77-.666 0-1.05-.376-.38-.38-.38-1 0-1.332 1.578-1.538l1.243-.165q0-.75-.814-.75-.818 0-1.556.487v-1.064q.295-.152.805-.268.514-.116.935-.116 1.96 0 1.96 1.954zm-1.328-1.86v-.3l-.832.107q-.7.1-.7.622 0 .24.165.398.17.152.456.152.398 0 .648-.273.25-.277.25-.698zm5.223 1.8q-.313.165-.943.165-1.493 0-1.493-1.552v-2.097h-.742v-1.042h.742v-.988l1.408-.402v1.4h1.028v1.042h-1.028v1.85q0 .715.568.715.224 0 .46-.13z"/><use xlink:href="#E"/><use xlink:href="#B" x="50.31"/><path d="M93.688 105.1H92.28v-2.544q0-1.064-.76-1.064-.367 0-.604.282-.237.282-.237.715v2.6h-1.413v-4.58h1.413v.724h.018q.505-.836 1.47-.836 1.52 0 1.52 1.887zm3.487-.244v-1.43q.4.326.845.492.456.16.92.16.273 0 .474-.05.206-.05.34-.134.14-.1.206-.206.067-.12.067-.26 0-.188-.107-.335-.107-.148-.295-.273-.183-.125-.438-.24-.255-.116-.55-.237-.75-.313-1.122-.765-.367-.452-.367-1.1 0-.5.2-.858.2-.362.545-.595.35-.233.805-.34.456-.112.966-.112.5 0 .885.063.4.058.715.183v1.337q-.16-.112-.353-.197-.188-.085-.4-.14-.2-.058-.402-.085-.197-.027-.376-.027-.246 0-.447.05-.2.045-.34.13-.14.085-.215.206-.076.116-.076.264 0 .16.085.3.085.125.24.24.156.112.38.224.224.107.505.224.385.16.7.344.3.18.528.407.22.228.335.523.116.3.116.68 0 .537-.206.903-.2.362-.55.6-.35.224-.814.322-.46.098-.975.098-.528 0-1.006-.1-.474-.1-.823-.268zm9.403-1.64h-2.987q.072.997 1.256.997.756 0 1.328-.358v1.02q-.635.34-1.65.34-1.1 0-1.72-.613-.613-.617-.613-1.717 0-1.14.662-1.806.662-.666 1.628-.666 1.002 0 1.547.595.55.595.55 1.614zm-1.3-.867q0-.984-.796-.984-.34 0-.6.282-.246.282-.3.702z"/><use xlink:href="#D" x="39.26"/><path d="M116.17 105.1h-1.408v-.698h-.022q-.523.81-1.4.81-1.592 0-1.592-1.927v-2.763h1.408v2.638q0 .97.77.97.38 0 .608-.264.228-.268.228-.724v-2.62h1.408z"/><use xlink:href="#C" x="78.41"/><use xlink:href="#E" x="39.991"/><path d="M126.427 105.05q-.313.165-.943.165-1.493 0-1.493-1.552v-2.097h-.742v-1.042h.742v-.988l1.408-.402v1.4h1.028v1.042H125.4v1.85q0 .715.568.715.224 0 .46-.13zm5.15-4.524l-1.86 4.945q-.67 1.784-2.02 1.784-.514 0-.845-.116v-1.127q.282.165.613.165.545 0 .76-.514l.24-.568-1.86-4.57h1.565l.854 2.786q.08.26.125.613h.018q.04-.26.148-.604l.863-2.794z"/></g><g transform="matrix(.92874 0 0 .92874 -34.154 -11.417)"><path d="M58.998 114.24h-3.56v-15.8h3.56zm20.398 0h-3.473v-6.438q0-2.458-1.808-2.458-.86 0-1.4.74-.54.74-.54 1.84v6.317H68.7v-6.504q0-2.392-1.775-2.392-.893 0-1.433.706-.53.706-.53 1.918v6.273H61.47v-11.3h3.484v1.764h.044q.54-.904 1.5-1.466.98-.573 2.14-.573 2.392 0 3.274 2.106 1.3-2.106 3.792-2.106 3.682 0 3.682 4.542zm19.904 0h-3.473v-6.438q0-2.458-1.808-2.458-.86 0-1.4.74-.54.74-.54 1.84v6.317h-3.484v-6.504q0-2.392-1.775-2.392-.893 0-1.433.706-.53.706-.53 1.918v6.273h-3.484v-11.3h3.484v1.764h.044q.54-.904 1.5-1.466.98-.573 2.14-.573 2.392 0 3.274 2.106 1.3-2.106 3.792-2.106 3.682 0 3.682 4.542zm12.72 0h-3.473v-1.72h-.055q-1.3 1.995-3.45 1.995-3.925 0-3.925-4.752v-6.813h3.473v6.504q0 2.392 1.896 2.392.937 0 1.5-.65.562-.66.562-1.786v-6.46h3.473zm13.08 0h-3.473v-6.273q0-2.624-1.874-2.624-.904 0-1.488.695-.584.695-.584 1.764v6.438h-3.484v-11.3h3.484v1.786h.044q1.246-2.06 3.627-2.06 3.748 0 3.748 4.652zm3.77-13.07q-.882 0-1.444-.518-.562-.53-.562-1.3 0-.783.562-1.28.562-.496 1.444-.496.893 0 1.444.496.562.496.562 1.28 0 .794-.562 1.3-.55.507-1.444.507zm1.72 13.075h-3.484v-11.3h3.484z" class="E"/><path d="M155.55 98.554l-4.178 15.8h-3.947L144.8 104.22q-.2-.794-.254-1.775h-.044q-.1 1.08-.287 1.775l-2.7 10.142h-4.112l-4.156-15.8h3.892l2.227 10.528q.143.672.2 1.808h.066q.044-.85.32-1.852l2.866-10.484h3.814l2.6 10.616q.143.584.254 1.698h.044q.044-.87.232-1.764l2.183-10.55zM166 109.7h-7.364q.176 2.458 3.098 2.458 1.863 0 3.274-.882v2.513q-1.566.838-4.068.838-2.734 0-4.244-1.5-1.5-1.52-1.5-4.233 0-2.8 1.632-4.454 1.632-1.643 4.013-1.643 2.47 0 3.814 1.466 1.356 1.466 1.356 3.98zm-3.23-2.14q0-2.425-1.962-2.425-.838 0-1.455.695-.606.695-.74 1.73zm8.05 5.5h-.044v1.312h-3.484V97.65h3.484v7.122h.044q1.3-1.973 3.67-1.973 2.183 0 3.362 1.5 1.18 1.5 1.18 4.1 0 2.822-1.378 4.53-1.378 1.7-3.682 1.7-2.084 0-3.153-1.587zm-.1-4.763v1.158q0 1.1.628 1.808.628.717 1.6.717 1.2 0 1.84-.915.66-.926.66-2.613 0-1.4-.606-2.183-.595-.794-1.7-.794-1.047 0-1.742.783-.684.783-.684 2.04z" class="D"/></g><path d="M135.18 85.457q-1.283 0-2.113-.83-.825-.83-.825-2.08 0-1.225.85-2.05.854-.825 2.122-.825 1.264 0 2.098.805.834.8.805 2.07 0 1.225-.844 2.07-.84.84-2.093.84zm.005-5.252q-1.032 0-1.707.675-.67.67-.67 1.683 0 1.022.68 1.693.685.67 1.698.67.998 0 1.683-.675.685-.675.685-1.683 0-1.023-.675-1.693-.675-.67-1.693-.67zm1.52 4.076H135.7l-.294-.897q-.154-.468-.424-.468h-.232v1.365h-.844v-3.56h1.235q1.428 0 1.428 1.013 0 .728-.834.94v.014q.347.077.545.564zm-1.953-2.865v.86h.376q.535 0 .535-.444 0-.415-.617-.415z" class="D"/><g transform="matrix(.0035552 0 0 .0035552 -7.7273 88.795)"><g transform="matrix(20.137,0,0,20.137,-19581,-8550.8)"><rect transform="matrix(.95682 .29068 0 1 745.840027 156.419998)" x="173.51" y="44.518" width="81.757" height="92.64" rx="0" ry="18.804" class="C"/><rect transform="matrix(.91943 -.39324 0 1 745.840027 156.419998)" x="265.65" y="223.29" width="73.161" height="92.531" rx="0" ry="18.782" class="F"/><rect transform="matrix(-.91895 .39437 -.95613 -.29293 745.840027 156.419998)" x="-8.212" y="-317.86" width="73.143" height="81.853" rx="0" ry="12.6" class="B"/><rect transform="matrix(.95682 .29068 0 1 838.539978 183.75)" x="173.51" y="44.518" width="81.757" height="92.64" rx="0" ry="18.804" class="C"/><rect transform="matrix(.91943 -.39324 0 1 838.539978 183.75)" x="265.65" y="223.29" width="73.161" height="92.531" rx="0" ry="18.782" class="F"/><rect transform="matrix(-.91895 .39437 -.95613 -.29293 838.539978 183.75)" x="-8.212" y="-317.86" width="73.143" height="81.853" rx="0" ry="12.6" class="B"/></g><g transform="matrix(20.302,0,0,20.302,-31840,5758.8)"><rect transform="matrix(.95682 .29068 0 1 1260.5 -514.88)" x="173.51" y="44.518" width="81.757" height="92.64" rx="0" ry="18.804" class="C"/><rect transform="matrix(.91943 -.39324 0 1 1260.5 -514.88)" x="265.65" y="223.29" width="73.161" height="92.531" rx="0" ry="18.782" class="F"/><rect transform="matrix(-.91895 .39437 -.95613 -.29293 1260.5 -514.88)" x="-8.212" y="-317.86" width="73.143" height="81.853" rx="0" ry="12.6" class="B"/></g><g transform="matrix(20.302 0 0 20.302 -4344 -4158)"><rect transform="matrix(.95682 .29068 0 1 0 0)" x="173.51" y="44.518" width="81.757" height="92.64" rx="0" ry="18.804" class="C"/><rect transform="matrix(.91943 -.39324 0 1 0 0)" x="265.65" y="223.29" width="73.161" height="92.531" rx="0" ry="18.782" class="F"/><rect transform="matrix(-.91895 .39437 -.95613 -.29293 0 0)" x="-8.212" y="-317.86" width="73.143" height="81.853" rx="0" ry="12.6" class="B"/></g><g transform="matrix(20.302,0,0,20.302,-10161,-8528.6)"><rect transform="matrix(.95682 .29068 0 1 521 128.509995)" x="-257.12" y="476.36" width="81.757" height="92.64" rx="0" ry="18.804" class="D"/><rect transform="matrix(.91943 -.39324 0 1 521 128.509995)" x="-182.49" y="353.74" width="73.161" height="92.531" rx="0" ry="18.782" class="C"/><rect transform="matrix(-.91895 .39437 -.95613 -.29293 521 128.509995)" x="632.58" y="-502.8" width="73.143" height="81.853" rx="0" ry="12.6" class="B"/><rect transform="matrix(.95682 .29068 0 1 520.049988 21.212999)" x="-257.12" y="476.36" width="81.757" height="92.64" rx="0" ry="18.804" class="D"/><rect transform="matrix(.91943 -.39324 0 1 520.049988 21.212999)" x="-182.49" y="353.74" width="73.161" height="92.531" rx="0" ry="18.782" class="C"/><rect transform="matrix(-.91895 .39437 -.95613 -.29293 520.049988 21.212999)" x="632.58" y="-502.8" width="73.143" height="81.853" rx="0" ry="12.6" class="B"/><rect transform="matrix(.95682 .29068 0 1 521 -83.489998)" x="-257.12" y="476.36" width="81.757" height="92.64" rx="0" ry="18.804" class="D"/><rect transform="matrix(.91943 -.39324 0 1 521 -83.489998)" x="-182.49" y="353.74" width="73.161" height="92.531" rx="0" ry="18.782" class="C"/><rect transform="matrix(-.91895 .39437 -.95613 -.29293 521 -83.489998)" x="632.58" y="-502.8" width="73.143" height="81.853" rx="0" ry="12.6" class="B"/></g><g transform="matrix(20.302,0,0,20.302,-8308.3,-7961.2)"><rect transform="matrix(.95682 .29068 0 1 522.409973 128.860001)" x="-257.12" y="476.36" width="81.757" height="92.64" rx="0" ry="18.804" class="D"/><rect transform="matrix(.91943 -.39324 0 1 522.409973 128.860001)" x="-182.49" y="353.74" width="73.161" height="92.531" rx="0" ry="18.782" class="C"/><rect transform="matrix(-.91895 .39437 -.95613 -.29293 522.409973 128.860001)" x="632.58" y="-502.8" width="73.143" height="81.853" rx="0" ry="12.6" class="B"/><rect transform="matrix(.95682 .29068 0 1 522.409973 22.862)" x="-257.12" y="476.36" width="81.757" height="92.64" rx="0" ry="18.804" class="D"/><rect transform="matrix(.91943 -.39324 0 1 522.409973 22.862)" x="-182.49" y="353.74" width="73.161" height="92.531" rx="0" ry="18.782" class="C"/><rect transform="matrix(-.91895 .39437 -.95613 -.29293 522.409973 22.862)" x="632.58" y="-502.8" width="73.143" height="81.853" rx="0" ry="12.6" class="B"/><rect transform="matrix(.95682 .29068 0 1 522.409973 -83.138)" x="-257.12" y="476.36" width="81.757" height="92.64" rx="0" ry="18.804" class="E"/><rect transform="matrix(.91943 -.39324 0 1 522.409973 -83.138)" x="-182.49" y="353.74" width="73.161" height="92.531" rx="0" ry="18.782" class="C"/><rect transform="matrix(-.91895 .39437 -.95613 -.29293 522.409973 -83.138)" x="632.58" y="-502.8" width="73.143" height="81.853" rx="0" ry="12.6" class="B"/></g><g transform="matrix(19.463 .23114 0 20.302 -8303.8 -9586.6)"><rect transform="matrix(.95682 .29068 0 1 585.409973 -160.309998)" x="-29.058" y="732.25" width="81.757" height="92.64" rx="0" ry="18.804" class="C"/><rect transform="matrix(.91943 -.39324 0 1 585.409973 -160.309998)" x="54.842" y="769.25" width="73.161" height="92.531" rx="0" ry="18.782" class="E"/><rect transform="matrix(-.91895 .39437 -.95613 -.29293 585.409973 -160.309998)" x="1010" y="-1093.8" width="73.143" height="81.853" rx="0" ry="12.6" class="B"/><rect transform="matrix(.95682 .29068 0 1 585.02002 -267.709991)" x="-29.058" y="732.25" width="81.757" height="92.64" rx="0" ry="18.804" class="C"/><rect transform="matrix(.91943 -.39324 0 1 585.02002 -267.709991)" x="54.842" y="769.25" width="73.161" height="92.531" rx="0" ry="18.782" class="E"/><rect transform="matrix(-.91895 .39437 -.95613 -.29293 585.02002 -267.709991)" x="1010" y="-1093.8" width="73.143" height="81.853" rx="0" ry="12.6" class="B"/></g><g transform="matrix(20.543 -.53029 0 20.797 3036.1 -17423)"><rect transform="matrix(.95682 .29068 0 1 0 0)" x="-29.058" y="732.25" width="81.757" height="92.64" rx="0" ry="18.804" class="C"/><rect transform="matrix(-.92209 .38698 -.95559 -.2947 0 0)" x="1021.6" y="-1105.1" width="68.989" height="81.342" rx="0" ry="12.521" class="B"/><rect transform="matrix(.92355 -.38347 0 1 0 0)" x="54.597" y="768.34" width="69.008" height="92.807" rx="0" ry="18.838" class="E"/></g><g transform="matrix(20.543 -.52379 0 20.543 -10589 -8537.2)"><rect transform="matrix(.95682 .29068 0 1 583.590027 -161.020004)" x="-29.058" y="732.25" width="81.757" height="92.64" rx="0" ry="18.804" class="C"/><rect transform="matrix(.91943 -.39324 0 1 583.590027 -161.020004)" x="54.842" y="769.25" width="73.161" height="92.531" rx="0" ry="18.782" class="E"/><rect transform="matrix(-.91895 .39437 -.95613 -.29293 583.590027 -161.020004)" x="1010" y="-1093.8" width="73.143" height="81.853" rx="0" ry="12.6" class="B"/><rect transform="matrix(.95682 .29068 0 1 583.580017 -267)" x="-29.058" y="732.25" width="81.757" height="92.64" rx="0" ry="18.804" class="C"/><rect transform="matrix(.91943 -.39324 0 1 583.580017 -267)" x="54.842" y="769.25" width="73.161" height="92.531" rx="0" ry="18.782" class="E"/><rect transform="matrix(-.91895 .39437 -.95613 -.29293 583.580017 -267)" x="1010" y="-1093.8" width="73.143" height="81.853" rx="0" ry="12.6" class="B"/><rect transform="matrix(.95682 .29068 0 1 583.590027 -372.649994)" x="-29.058" y="732.25" width="81.757" height="92.64" rx="0" ry="18.804" class="C"/><rect transform="matrix(.91943 -.39324 0 1 583.590027 -372.649994)" x="54.842" y="769.25" width="73.161" height="92.531" rx="0" ry="18.782" class="D"/><rect transform="matrix(-.91895 .39437 -.95613 -.29293 583.590027 -372.649994)" x="1010" y="-1093.8" width="73.143" height="81.853" rx="0" ry="12.6" class="B"/></g><g transform="matrix(20.302,0,0,20.302,-6361,-7362.1)"><rect transform="matrix(.95682 .29068 0 1 521 128.509995)" x="-257.12" y="476.36" width="81.757" height="92.64" rx="0" ry="18.804" class="D"/><rect transform="matrix(.91943 -.39324 0 1 521 128.509995)" x="-182.49" y="353.74" width="73.161" height="92.531" rx="0" ry="18.782" class="E"/><rect transform="matrix(-.91895 .39437 -.95613 -.29293 521 128.509995)" x="632.58" y="-502.8" width="73.143" height="81.853" rx="0" ry="12.6" class="B"/><rect transform="matrix(.95682 .29068 0 1 521 22.51)" x="-257.12" y="476.36" width="81.757" height="92.64" rx="0" ry="18.804" class="D"/><rect transform="matrix(.91943 -.39324 0 1 521 22.51)" x="-182.49" y="353.74" width="73.161" height="92.531" rx="0" ry="18.782" class="E"/><rect transform="matrix(-.91895 .39437 -.95613 -.29293 521 22.51)" x="632.58" y="-502.8" width="73.143" height="81.853" rx="0" ry="12.6" class="B"/><rect transform="matrix(.95682 .29068 0 1 521 -83.489998)" x="-257.12" y="476.36" width="81.757" height="92.64" rx="0" ry="18.804" class="D"/><rect transform="matrix(.91943 -.39324 0 1 521 -83.489998)" x="-182.49" y="353.74" width="73.161" height="92.531" rx="0" ry="18.782" class="E"/><rect transform="matrix(-.91895 .39437 -.95613 -.29293 521 -83.489998)" x="632.58" y="-502.8" width="73.143" height="81.853" rx="0" ry="12.6" class="B"/></g></g></g><defs ><path id="B" d="M35.54 105.213q-1.145 0-1.802-.64-.653-.644-.653-1.744 0-1.136.68-1.775.68-.644 1.838-.644 1.14 0 1.788.644.648.64.648 1.695 0 1.14-.67 1.802-.666.662-1.83.662zm.036-3.72q-.5 0-.778.344-.277.344-.277.975 0 1.32 1.064 1.32 1.015 0 1.015-1.355 0-1.283-1.024-1.283z"/><path id="C" d="M41.94 101.806q-.255-.14-.595-.14-.46 0-.72.34-.26.335-.26.917v2.186h-1.413v-4.58h1.413v.85h.018q.335-.93 1.207-.93.224 0 .35.054z"/><path id="D" d="M71.63 104.937q-.478.277-1.382.277-1.055 0-1.708-.64-.653-.64-.653-1.65 0-1.167.698-1.838.702-.675 1.873-.675.81 0 1.17.215v1.198q-.443-.33-.988-.33-.608 0-.966.358-.353.353-.353.98 0 .608.34.957.34.344.935.344.528 0 1.033-.33z"/><path id="E" d="M81.772 99.8q-.358 0-.586-.2-.228-.215-.228-.523 0-.317.228-.52.228-.2.586-.2.362 0 .586.2.228.2.228.52 0 .322-.228.528-.224.206-.586.206zm.698 5.303h-1.413v-4.58h1.413z"/></defs></svg>