<?xml version="1.0" encoding="UTF-8" standalone="no"?>
<!DOCTYPE svg PUBLIC "-//W3C//DTD SVG 1.1//EN" "http://www.w3.org/Graphics/SVG/1.1/DTD/svg11.dtd">
<svg width="100%" height="100%" viewBox="0 0 460 136" version="1.1" xmlns="http://www.w3.org/2000/svg" xmlns:xlink="http://www.w3.org/1999/xlink" xml:space="preserve" xmlns:serif="http://www.serif.com/" style="fill-rule:evenodd;clip-rule:evenodd;stroke-linejoin:round;stroke-miterlimit:1.41421;">
    <g transform="matrix(6.87288,0,0,6.87288,-302.262,-375.498)">
        <text x="43.691px" y="62.891px" style="font-family:'ZillaSlab-Bold', 'Zilla Slab';font-weight:700;font-size:12px;fill:rgb(61,61,61);">Observatory</text>
    </g>
    <g transform="matrix(1.63217,0,0,1.63217,0,-0.384883)">
        <path d="M101,72.35C100.996,72.392 100.995,72.435 100.995,72.477C100.995,73.316 101.685,74.007 102.525,74.007C102.573,74.007 102.622,74.005 102.67,74C104.16,74 105.75,72.93 105.85,70.5C105.152,70.388 104.447,70.325 103.74,70.31C102.25,70.34 101,70.76 101,72.35Z" style="fill:rgb(61,61,61);fill-rule:nonzero;"/>
    </g>
    <g transform="matrix(1.63217,0,0,1.63217,0,-0.384883)">
        <path d="M43.58,73.81C45.75,73.81 47.18,72.06 47.18,69.27C47.18,66.27 45.59,64.99 43.61,64.99C41.47,64.99 40.14,66.58 40.14,69.33C40.15,71.86 41.31,73.81 43.58,73.81Z" style="fill:rgb(61,61,61);fill-rule:nonzero;"/>
    </g>
    <g transform="matrix(1.63217,0,0,1.63217,0,-0.384883)">
        <path d="M0,83.56L116.9,83.56L116.9,50.14L0,50.14L0,83.56ZM98,63.11C99.957,62.191 102.099,61.736 104.26,61.78C107.41,61.78 110.06,63.4 110.06,66.78L110.06,73.14C110.06,73.98 110.38,74.27 111.06,74.27C111.27,74.266 111.479,74.233 111.68,74.17L111.68,76.37C110.872,76.807 109.969,77.041 109.05,77.05C108.98,77.055 108.909,77.057 108.839,77.057C107.221,77.057 105.879,75.748 105.84,74.13C104.947,75.906 103.128,77.037 101.14,77.05C99.03,77.05 96.63,75.91 96.63,72.87C96.63,69.27 100.1,68.43 103.44,68.43C104.242,68.423 105.044,68.466 105.84,68.56L105.84,68C105.84,66.51 105.84,64.73 103.44,64.73C102.67,64.677 101.899,64.822 101.2,65.15L100.73,66.8L97.39,66.44L98,63.11ZM97.09,54.39L90.74,76.69L86.62,76.69L92.94,54.38L97.09,54.39ZM84.48,54.39L88.6,54.39L82.24,76.69L78.12,76.69L84.48,54.39ZM71,62.07L75.38,62.07L75.38,67.32L71,67.32L71,62.07ZM71,71.44L75.38,71.44L75.38,76.69L71,76.69L71,71.44ZM54.16,62.07L67,62.07L67.32,64.27L59.21,73.51L64,73.51L64.68,71.24L67.99,71.56L67,76.69L54.26,76.69L53.84,74.49L61.84,65.25L57.31,65.25L56.66,67.52L53.66,67.2L54.16,62.07ZM43.68,61.78C48.93,61.78 51.49,65.31 51.49,69.4C51.49,74.07 48.12,77.02 43.49,77.02C38.98,77.02 35.87,74.26 35.87,69.59C35.83,65.31 38.43,61.78 43.68,61.78ZM6.94,73.52L8.88,73.52L8.88,65.25L6.94,65.25L6.94,62.07L13.07,62.07L13.07,64.27C13.955,62.665 15.679,61.694 17.51,61.77C19.619,61.636 21.575,62.927 22.28,64.92C23.025,62.982 24.925,61.718 27,61.78C27.094,61.774 27.188,61.772 27.282,61.772C29.877,61.772 32.012,63.907 32.012,66.502C32.012,66.614 32.008,66.727 32,66.84L32,73.52L34,73.52L34,76.7L27.89,76.7L27.89,68.46C27.89,65.93 27.05,64.96 25.39,64.96C23.39,64.96 22.57,66.39 22.57,68.43L22.57,73.52L24.52,73.52L24.52,76.7L18.38,76.7L18.38,68.46C18.38,65.93 17.54,64.96 15.88,64.96C13.88,64.96 13.06,66.39 13.06,68.43L13.06,73.52L15.85,73.52L15.85,76.7L6.94,76.7L6.94,73.52Z" style="fill:rgb(61,61,61);fill-rule:nonzero;"/>
    </g>
    <g transform="matrix(1.63217,0,0,1.63217,0,-0.384883)">
        <path d="M90.73,76.69L97.06,54.38L92.94,54.38L86.62,76.69L90.73,76.69Z" style="fill-rule:nonzero;"/>
    </g>
    <g transform="matrix(1.63217,0,0,1.63217,0,-0.384883)">
        <path d="M90.73,76.69L97.06,54.38L92.94,54.38L86.62,76.69L90.73,76.69Z" style="fill:white;fill-rule:nonzero;"/>
    </g>
    <g transform="matrix(1.63217,0,0,1.63217,0,-0.384883)">
        <path d="M43.45,77C48.12,77 51.45,74 51.45,69.38C51.45,65.29 48.89,61.76 43.64,61.76C38.39,61.76 35.79,65.29 35.79,69.57C35.83,74.26 38.95,77 43.45,77ZM43.61,65C45.61,65 47.18,66.33 47.18,69.28C47.18,72.07 45.75,73.82 43.58,73.82C41.41,73.82 40.14,71.87 40.14,69.35C40.15,66.58 41.48,65 43.62,65L43.61,65Z" style="fill-rule:nonzero;"/>
    </g>
    <g transform="matrix(1.63217,0,0,1.63217,0,-0.384883)">
        <path d="M43.45,77C48.12,77 51.45,74 51.45,69.38C51.45,65.29 48.89,61.76 43.64,61.76C38.39,61.76 35.79,65.29 35.79,69.57C35.83,74.26 38.95,77 43.45,77ZM43.61,65C45.61,65 47.18,66.33 47.18,69.28C47.18,72.07 45.75,73.82 43.58,73.82C41.41,73.82 40.14,71.87 40.14,69.35C40.15,66.58 41.48,65 43.62,65L43.61,65Z" style="fill:white;fill-rule:nonzero;"/>
    </g>
    <g transform="matrix(1.63217,0,0,1.63217,0,-0.384883)">
        <path d="M15.86,73.52L13.07,73.52L13.07,68.43C13.07,66.43 13.88,64.96 15.89,64.96C17.54,64.96 18.39,65.96 18.39,68.46L18.39,76.7L24.52,76.7L24.52,73.52L22.57,73.52L22.57,68.43C22.57,66.43 23.38,64.96 25.39,64.96C27.04,64.96 27.89,65.96 27.89,68.46L27.89,76.7L34,76.7L34,73.52L32.07,73.52L32.07,66.84C32.078,66.727 32.082,66.614 32.082,66.502C32.082,63.907 29.947,61.772 27.352,61.772C27.258,61.772 27.164,61.774 27.07,61.78C24.974,61.698 23.047,62.97 22.3,64.93C21.595,62.937 19.639,61.646 17.53,61.78C15.699,61.704 13.975,62.675 13.09,64.28L13.09,62.08L6.94,62.08L6.94,65.26L8.88,65.26L8.88,73.53L6.94,73.53L6.94,76.71L15.86,76.71L15.86,73.52Z" style="fill-rule:nonzero;"/>
    </g>
    <g transform="matrix(1.63217,0,0,1.63217,0,-0.384883)">
        <path d="M15.86,73.52L13.07,73.52L13.07,68.43C13.07,66.43 13.88,64.96 15.89,64.96C17.54,64.96 18.39,65.96 18.39,68.46L18.39,76.7L24.52,76.7L24.52,73.52L22.57,73.52L22.57,68.43C22.57,66.43 23.38,64.96 25.39,64.96C27.04,64.96 27.89,65.96 27.89,68.46L27.89,76.7L34,76.7L34,73.52L32.07,73.52L32.07,66.84C32.078,66.727 32.082,66.614 32.082,66.502C32.082,63.907 29.947,61.772 27.352,61.772C27.258,61.772 27.164,61.774 27.07,61.78C24.974,61.698 23.047,62.97 22.3,64.93C21.595,62.937 19.639,61.646 17.53,61.78C15.699,61.704 13.975,62.675 13.09,64.28L13.09,62.08L6.94,62.08L6.94,65.26L8.88,65.26L8.88,73.53L6.94,73.53L6.94,76.71L15.86,76.71L15.86,73.52Z" style="fill:white;fill-rule:nonzero;"/>
    </g>
    <g transform="matrix(1.63217,0,0,1.63217,0,-0.384883)">
        <path d="M57.31,65.25L61.88,65.25L53.84,74.49L54.26,76.69L67.04,76.69L67.94,71.57L64.64,71.25L63.96,73.52L59.22,73.52L67.33,64.28L67,62.07L54.16,62.07L53.65,67.19L56.66,67.52L57.31,65.25Z" style="fill-rule:nonzero;"/>
    </g>
    <g transform="matrix(1.63217,0,0,1.63217,0,-0.384883)">
        <path d="M57.31,65.25L61.88,65.25L53.84,74.49L54.26,76.69L67.04,76.69L67.94,71.57L64.64,71.25L63.96,73.52L59.22,73.52L67.33,64.28L67,62.07L54.16,62.07L53.65,67.19L56.66,67.52L57.31,65.25Z" style="fill:white;fill-rule:nonzero;"/>
    </g>
    <g transform="matrix(1.63217,0,0,1.63217,0,-0.384883)">
        <rect x="71.01" y="71.44" width="4.38" height="5.25"/>
    </g>
    <g transform="matrix(1.63217,0,0,1.63217,0,-0.384883)">
        <rect x="71.01" y="71.44" width="4.38" height="5.25" style="fill:white;"/>
    </g>
    <g transform="matrix(1.63217,0,0,1.63217,0,-0.384883)">
        <path d="M88.56,54.38L84.44,54.38L78.12,76.69L82.24,76.69L88.56,54.38Z" style="fill-rule:nonzero;"/>
    </g>
    <g transform="matrix(1.63217,0,0,1.63217,0,-0.384883)">
        <path d="M88.56,54.38L84.44,54.38L78.12,76.69L82.24,76.69L88.56,54.38Z" style="fill:white;fill-rule:nonzero;"/>
    </g>
    <g transform="matrix(1.63217,0,0,1.63217,0,-0.384883)">
        <rect x="71.01" y="62.07" width="4.38" height="5.25"/>
    </g>
    <g transform="matrix(1.63217,0,0,1.63217,0,-0.384883)">
        <rect x="71.01" y="62.07" width="4.38" height="5.25" style="fill:white;"/>
    </g>
    <g transform="matrix(1.63217,0,0,1.63217,0,-0.384883)">
        <path d="M101.21,65.18C101.909,64.852 102.68,64.707 103.45,64.76C105.82,64.76 105.85,66.54 105.85,68.03L105.85,68.52C105.054,68.426 104.252,68.383 103.45,68.39C100.11,68.39 96.64,69.23 96.64,72.83C96.64,75.83 99.04,77.01 101.15,77.01C103.138,76.997 104.957,75.866 105.85,74.09C105.894,75.704 107.234,77.007 108.849,77.007C108.919,77.007 108.99,77.005 109.06,77C109.979,76.991 110.882,76.757 111.69,76.32L111.69,74.12C111.489,74.183 111.28,74.216 111.07,74.22C110.39,74.22 110.07,73.93 110.07,73.09L110.07,66.74C110.07,63.4 107.41,61.74 104.27,61.74C102.102,61.707 99.956,62.176 98,63.11L97.43,66.47L100.77,66.83L101.21,65.18ZM102.67,74C102.622,74.005 102.573,74.007 102.525,74.007C101.685,74.007 100.995,73.316 100.995,72.477C100.995,72.435 100.996,72.392 101,72.35C101,70.76 102.3,70.35 103.79,70.35C104.497,70.365 105.202,70.428 105.9,70.54C105.75,73 104.16,74 102.67,74Z" style="fill-rule:nonzero;"/>
    </g>
    <g transform="matrix(1.63217,0,0,1.63217,0,-0.384883)">
        <path d="M101.21,65.18C101.909,64.852 102.68,64.707 103.45,64.76C105.82,64.76 105.85,66.54 105.85,68.03L105.85,68.52C105.054,68.426 104.252,68.383 103.45,68.39C100.11,68.39 96.64,69.23 96.64,72.83C96.64,75.83 99.04,77.01 101.15,77.01C103.138,76.997 104.957,75.866 105.85,74.09C105.894,75.704 107.234,77.007 108.849,77.007C108.919,77.007 108.99,77.005 109.06,77C109.979,76.991 110.882,76.757 111.69,76.32L111.69,74.12C111.489,74.183 111.28,74.216 111.07,74.22C110.39,74.22 110.07,73.93 110.07,73.09L110.07,66.74C110.07,63.4 107.41,61.74 104.27,61.74C102.102,61.707 99.956,62.176 98,63.11L97.43,66.47L100.77,66.83L101.21,65.18ZM102.67,74C102.622,74.005 102.573,74.007 102.525,74.007C101.685,74.007 100.995,73.316 100.995,72.477C100.995,72.435 100.996,72.392 101,72.35C101,70.76 102.3,70.35 103.79,70.35C104.497,70.365 105.202,70.428 105.9,70.54C105.75,73 104.16,74 102.67,74Z" style="fill:white;fill-rule:nonzero;"/>
    </g>
</svg>
