<?xml version="1.0" encoding="UTF-8" standalone="no"?><!DOCTYPE svg PUBLIC "-//W3C//DTD SVG 1.1//EN" "http://www.w3.org/Graphics/SVG/1.1/DTD/svg11.dtd"><svg width="100%" height="100%" viewBox="0 0 529 87" version="1.1" xmlns="http://www.w3.org/2000/svg" xmlns:xlink="http://www.w3.org/1999/xlink" xml:space="preserve" style="fill-rule:evenodd;clip-rule:evenodd;stroke-linejoin:round;stroke-miterlimit:1.41421;"><g id="Outlined"><g><path d="M1.433,52.958l-0.025,-41.165c0,0 14.415,-10.267 34.802,-10.267c20.386,0 34.924,10.283 34.924,10.283l-0.033,41.148c0.204,22.168 -34.891,32.589 -34.891,32.589c0,0 -34.982,-10.421 -34.777,-32.588M8.717,16.923l-0.031,34.05c-0.196,18.336 27.54,27.01 27.54,27.01c0,0 27.867,-8.576 27.746,-26.912l0.081,-34.042c0,0 -11.524,-8.527 -27.695,-8.551c-0.032,0 -0.062,0 -0.094,0c-16.13,0.001 -27.547,8.445 -27.547,8.445" style="fill:#000;fill-rule:nonzero;"/><path d="M8.686,50.973l0.031,-34.05c0,0 11.46,-8.478 27.64,-8.445c16.171,0.024 27.695,8.551 27.695,8.551l-0.081,34.042c0.122,18.336 -27.746,26.912 -27.746,26.912c0,0 -27.735,-8.674 -27.539,-27.01" style="fill:#e20025;fill-rule:nonzero;"/><path d="M35.46,57.818c-12.609,0 -21.053,-7.36 -21.053,-20.371c0,-12.836 10.042,-20.54 22.48,-20.54c12.667,0 21.113,8.157 21.113,20.313c0,9.299 -5.708,16.718 -14.495,19.571c4.679,2.968 5.715,3.246 11.02,6.155c-2.795,0.571 -5.42,1.598 -7.988,3.14c-2.853,-2.227 -5.705,-4.45 -8.672,-6.503l-2.405,-1.765ZM23.877,39.102c0,7.417 3.368,15.292 11.926,15.292c7.931,0 12.725,-7.532 12.725,-18.259c0,-7.361 -3.424,-15.806 -11.983,-15.806c-9.471,-0.056 -12.668,8.16 -12.668,18.773Z" style="fill:#fff;fill-rule:nonzero;"/><path d="M111.57,58.192c-12.61,0 -21.053,-7.36 -21.053,-20.371c0,-12.836 10.042,-20.539 22.48,-20.539c12.667,0 21.112,8.157 21.112,20.313c0,9.299 -5.707,16.718 -14.493,19.571c4.679,2.968 5.713,3.246 11.02,6.155c-2.795,0.571 -5.42,1.598 -7.987,3.14c-2.854,-2.227 -5.706,-4.45 -8.672,-6.503l-2.407,-1.766ZM99.986,39.476c0,7.417 3.368,15.292 11.926,15.292c7.93,0 12.725,-7.532 12.725,-18.259c0,-7.36 -3.425,-15.805 -11.983,-15.805c-9.47,-0.057 -12.668,8.16 -12.668,18.772Z" style="fill:#fff;fill-rule:nonzero;"/><path d="M141.171,24.902c1.184,0.097 2.367,0.239 3.554,0.239c1.183,0 2.367,-0.143 3.55,-0.239l0,13.456c0,2.605 -0.095,6.489 0.332,8.952c0.426,2.321 0.806,3.79 2.511,5.449c1.518,1.421 3.316,2.036 5.4,2.036c4.407,0 6.774,-1.61 8.432,-5.732c0.853,-2.083 0.853,-7.484 0.853,-9.807l0,-14.355c0.617,0.098 1.28,0.145 1.895,0.145c0.617,0 1.28,-0.047 1.895,-0.145l0,16.869c-0.142,5.397 -0.092,10.324 -5.02,13.737c-2.559,1.848 -5.828,2.51 -8.953,2.51c-5.734,0 -11.941,-1.798 -13.693,-7.959c-0.521,-1.848 -0.757,-3.932 -0.757,-5.826l0,-19.33l0.001,0Z" style="fill:#fff;fill-rule:nonzero;"/><path d="M180.927,47.5c-1.232,3.6 -1.606,6.538 -2.504,9.807c-0.76,-0.047 -1.469,-0.144 -2.228,-0.144c-0.757,0 -1.515,0.097 -2.274,0.144l12.739,-32.83c0.615,0.094 1.184,0.143 1.801,0.143c0.615,0 1.184,-0.049 1.799,-0.143l13.217,32.925c-1.371,-0.096 -2.701,-0.238 -4.075,-0.238c-1.373,0 -2.699,0.143 -4.072,0.238c-1.09,-3.507 -2.087,-6.727 -3.364,-9.902l-11.039,0ZM190.875,44.61l-4.215,-11.038l-4.453,11.039l8.668,-0.001Z" style="fill:#fff;fill-rule:nonzero;"/><path d="M216.883,53.753c4.123,0 7.627,-0.331 10.847,-0.664c-0.094,0.664 -0.236,1.377 -0.236,2.038c0,0.663 0.142,1.374 0.236,2.036l-17.954,0l0.002,-32.263c1.181,0.098 2.367,0.24 3.551,0.24c1.184,0 2.37,-0.143 3.554,-0.24l0,28.853Z" style="fill:#fff;fill-rule:nonzero;"/><path d="M240.356,43.71c-3.554,-6.112 -6.681,-12.507 -10.188,-18.81c1.422,0.098 2.845,0.24 4.266,0.24c1.42,0 2.843,-0.143 4.263,-0.24c1.279,2.608 2.699,5.64 4.026,8.433c1.279,2.654 2.416,4.976 2.984,5.686c1.801,-2.224 5.307,-10.089 7.109,-14.118c0.756,0.098 1.514,0.145 2.32,0.145c0.754,0 1.514,-0.047 2.271,-0.145c-3.41,6.066 -6.961,11.799 -9.949,17.862l0,14.639c-1.182,-0.096 -2.367,-0.238 -3.553,-0.238c-1.183,0 -2.367,0.143 -3.55,0.238l0,-13.692l0.001,0Z" style="fill:#fff;fill-rule:nonzero;"/><path d="M278.596,31.077c-0.949,-2.51 -2.748,-4.119 -5.449,-4.119c-3.74,0 -5.209,1.94 -5.209,4.64c0,6.397 14.398,5.212 14.398,16.062c0,6.064 -5.209,10.422 -12.553,10.422c-2.605,0 -5.4,-0.615 -7.629,-2.036c0.572,-1.991 1.092,-3.982 1.377,-6.017l0.896,0c0.715,3.269 3.271,5.213 6.541,5.213c2.936,0 5.543,-1.661 5.543,-4.929c0,-7.581 -14.117,-4.832 -14.117,-16.25c0,-5.449 3.744,-9.947 10.943,-9.947c3.412,0 6.441,1.277 7.482,2.273c-0.566,1.515 -1.041,3.079 -1.516,4.688l-0.707,0Z" style="fill:#fff;fill-rule:nonzero;"/><path d="M289.379,22.942c2.119,0 3.775,1.678 3.775,3.772c0,2.118 -1.678,3.774 -3.754,3.774c-2.096,0 -3.773,-1.656 -3.773,-3.774c0,-2.14 1.699,-3.772 3.752,-3.772ZM289.379,23.614c-1.719,0 -3.037,1.36 -3.037,3.101c0,1.761 1.299,3.104 3.037,3.104c1.764,0 3.064,-1.32 3.064,-3.104c0,-1.698 -1.259,-3.101 -3.064,-3.101ZM291.438,28.748c-0.148,-0.021 -0.273,-0.04 -0.441,-0.04c-0.15,0 -0.297,0.019 -0.525,0.04c-0.713,-1.026 -1.279,-1.614 -1.678,-2.073l-0.146,0c0,0.65 0,1.152 0.063,2.073c-0.188,-0.021 -0.271,-0.04 -0.482,-0.04c-0.211,0 -0.271,0.019 -0.398,0.04c0.043,-0.459 0.063,-0.985 0.063,-2.201c0,-1.069 -0.02,-1.594 -0.043,-2.054c0.316,0.021 0.549,0.021 1.029,0.021c1.051,0 2.139,-0.021 2.139,1.006c0,0.881 -0.967,1.027 -1.383,1.07c0.271,0.377 1.551,1.825 1.822,2.098l-0.02,0.06ZM288.668,24.804c-0.021,0.569 -0.021,1.072 -0.021,1.575c0.463,0 1.553,0 1.553,-0.817c-0.001,-0.758 -0.841,-0.758 -1.532,-0.758Z" style="fill:#fff;fill-rule:nonzero;"/></g><g><path d="M309.074,49.034c2.566,5.579 5.355,6.416 8.647,6.416c4.407,0 7.308,-2.957 7.308,-6.974c0,-4.407 -3.515,-5.969 -4.574,-6.415c-1.563,-0.67 -4.184,-1.674 -5.746,-2.344c-5.411,-2.398 -7.029,-5.243 -7.029,-9.874c0,-4.909 2.901,-11.157 12.998,-11.157c4.072,0 6.527,1.06 9.261,2.288c-1.115,2.733 -1.228,3.18 -1.729,5.299l-0.781,0c-0.836,-3.18 -3.793,-4.853 -7.308,-4.853c-4.407,0 -6.583,2.733 -6.583,6.025c0,4.072 2.846,5.188 7.755,7.085c4.295,1.674 5.969,2.287 7.587,4.072c2.343,2.51 2.733,5.802 2.733,7.363c0,5.69 -3.961,12.218 -14.17,12.218c-4.798,0 -8.424,-1.841 -10.432,-2.846c0.948,-2.9 1.004,-3.626 1.283,-6.304l0.78,0l0,0.001Z" style="fill:#e20025;fill-rule:nonzero;"/><path d="M337.92,49.034c2.566,5.579 5.355,6.416 8.647,6.416c4.407,0 7.308,-2.957 7.308,-6.974c0,-4.407 -3.515,-5.969 -4.574,-6.415c-1.563,-0.67 -4.184,-1.674 -5.746,-2.344c-5.411,-2.398 -7.029,-5.243 -7.029,-9.874c0,-4.909 2.901,-11.157 12.998,-11.157c4.072,0 6.527,1.06 9.261,2.288c-1.115,2.733 -1.228,3.18 -1.729,5.299l-0.781,0c-0.836,-3.18 -3.793,-4.853 -7.308,-4.853c-4.407,0 -6.583,2.733 -6.583,6.025c0,4.072 2.846,5.188 7.755,7.085c4.295,1.674 5.969,2.287 7.587,4.072c2.343,2.51 2.733,5.802 2.733,7.363c0,5.69 -3.961,12.218 -14.17,12.218c-4.798,0 -8.424,-1.841 -10.432,-2.846c0.948,-2.9 1.004,-3.626 1.283,-6.304l0.78,0l0,0.001Z" style="fill:#e20025;fill-rule:nonzero;"/><path d="M367.558,34.362c0,-2.454 0,-3.012 -0.168,-7.977c-0.056,-1.172 -0.167,-6.193 -0.223,-7.252c1.395,0.279 2.454,0.334 3.849,0.334c1.395,0 2.511,-0.111 3.905,-0.335c-0.391,8.424 -0.558,15.453 -0.558,24.044c0,3.905 0.111,7.531 0.167,10.6l1.005,0c1.617,0 9.65,0 12.941,-0.502c-0.167,0.613 -0.278,0.948 -0.278,2.231c0,0.837 0.056,1.171 0.278,1.896c-2.845,-0.111 -7.643,-0.335 -10.654,-0.335c-3.57,0 -6.583,0.111 -10.655,0.335c0,-0.893 0.391,-13.835 0.391,-15.229l0,-7.81l0,0Z" style="fill:#e20025;fill-rule:nonzero;"/><path d="M409.953,34.362c0,-2.454 0,-3.012 -0.168,-7.977c-0.056,-1.172 -0.167,-6.193 -0.223,-7.252c1.395,0.279 2.454,0.334 3.849,0.334c1.396,0 2.511,-0.111 3.905,-0.335c-0.391,8.424 -0.558,15.453 -0.558,24.044c0,3.905 0.111,7.531 0.167,10.6l1.004,0c1.618,0 9.651,0 12.943,-0.502c-0.168,0.613 -0.279,0.948 -0.279,2.231c0,0.837 0.056,1.171 0.279,1.896c-2.846,-0.111 -7.644,-0.335 -10.655,-0.335c-3.57,0 -6.583,0.111 -10.655,0.335c0,-0.893 0.391,-13.835 0.391,-15.229l0,-7.81Z" style="fill:#fff;fill-rule:nonzero;"/><path d="M457.481,51.209l-2.343,-5.913c-2.398,-0.111 -4.742,-0.224 -7.141,-0.224c-2.231,0 -4.463,0.112 -6.694,0.224c-1.785,4.296 -3.57,8.926 -4.463,12.105c-0.726,-0.111 -1.785,-0.335 -2.678,-0.335c-0.948,0 -1.729,0.224 -2.511,0.335l6.472,-14.393c5.634,-12.608 8.87,-19.86 10.209,-24.435c0.613,0.167 1.171,0.279 1.841,0.279c0.613,0 1.172,-0.111 1.785,-0.279c2.678,7.643 6.024,15.453 8.033,20.139c2.12,4.854 5.802,13.277 8.312,18.688c-0.836,-0.056 -2.789,-0.335 -4.351,-0.335c-1.563,0 -3.124,0.279 -4.129,0.335l-2.342,-6.191ZM448.277,28.114l-5.69,13.724c1.952,0.056 3.849,0.224 5.802,0.224c1.729,0 3.402,-0.112 5.132,-0.224l-5.244,-13.724Z" style="fill:#fff;fill-rule:nonzero;"/><path d="M495.137,54.167c-1.507,1.45 -4.017,3.235 -10.098,3.235c-2.343,0 -4.686,-0.279 -7.029,-0.279c-1.785,0 -3.57,0.224 -5.355,0.279c0.279,-6.472 0.391,-13.779 0.391,-19.804c0,-6.137 -0.056,-12.329 -0.446,-18.465c1.395,0.111 2.343,0.223 4.854,0.279c1.228,0 6.639,-0.279 7.755,-0.279c6.191,0 11.659,1.729 11.659,8.981c0,5.133 -4.854,8.033 -9.429,8.703c6.137,0.613 11.046,2.678 11.046,9.985c-0.002,4.185 -2.456,6.528 -3.348,7.365ZM479.795,35.589c0.781,0.056 1.563,0.111 2.287,0.111c4.854,0 7.588,-2.565 7.588,-7.419c0,-3.794 -2.064,-6.36 -5.914,-6.36c-1.283,0 -2.566,0.056 -3.849,0.167c-0.056,1.506 -0.112,3.013 -0.112,4.519l0,8.982ZM479.795,49.648c0,0.893 0.057,3.067 0.112,4.63c1.115,0.167 1.896,0.335 3.012,0.335c5.244,0 8.201,-2.622 8.201,-8.033c0,-6.416 -3.626,-8.313 -9.316,-8.313c-0.67,0 -1.283,0.056 -2.009,0.167l0,11.214Z" style="fill:#fff;fill-rule:nonzero;"/><path d="M505.242,49.034c2.566,5.579 5.355,6.416 8.647,6.416c4.407,0 7.308,-2.957 7.308,-6.974c0,-4.407 -3.515,-5.969 -4.574,-6.415c-1.563,-0.67 -4.184,-1.674 -5.746,-2.344c-5.411,-2.398 -7.029,-5.243 -7.029,-9.874c0,-4.909 2.901,-11.157 12.998,-11.157c4.072,0 6.527,1.06 9.261,2.288c-1.115,2.733 -1.228,3.18 -1.729,5.299l-0.781,0c-0.836,-3.18 -3.793,-4.853 -7.308,-4.853c-4.407,0 -6.583,2.733 -6.583,6.025c0,4.072 2.846,5.188 7.755,7.085c4.295,1.674 5.969,2.287 7.587,4.072c2.343,2.51 2.733,5.802 2.733,7.363c0,5.69 -3.961,12.218 -14.17,12.218c-4.798,0 -8.424,-1.841 -10.432,-2.846c0.948,-2.9 1.004,-3.626 1.283,-6.304l0.78,0l0,0.001Z" style="fill:#fff;fill-rule:nonzero;"/></g></g></svg>