<svg xmlns="http://www.w3.org/2000/svg" xmlns:xlink="http://www.w3.org/1999/xlink" viewBox="0 0 337.91 83.97"><defs><linearGradient id="a29ebdd1-ad2b-487b-8f61-30c267a9c52c" x1="4.31" y1="25.7" x2="170.43" y2="25.7" gradientUnits="userSpaceOnUse"><stop offset="0" stop-color="#358a75"/><stop offset="0.23" stop-color="#3f966e"/><stop offset="0.65" stop-color="#5ab75a"/><stop offset="1" stop-color="#75d746"/></linearGradient><linearGradient id="f9f7a70c-0ab7-484e-b240-e9161e4561aa" x1="4.31" y1="25.94" x2="170.43" y2="25.94" xlink:href="#a29ebdd1-ad2b-487b-8f61-30c267a9c52c"/><linearGradient id="eccbf862-4c2f-4d23-a6e1-3d43c95e600a" x1="252.76" y1="71.71" x2="254.49" y2="64.18" gradientUnits="userSpaceOnUse"><stop offset="0.13" stop-color="#243748"/><stop offset="0.22" stop-color="#295256"/><stop offset="0.35" stop-color="#307067"/><stop offset="0.46" stop-color="#348371"/><stop offset="0.54" stop-color="#358a75"/><stop offset="0.62" stop-color="#3b9171"/><stop offset="0.75" stop-color="#4ca564"/><stop offset="0.9" stop-color="#67c650"/><stop offset="0.96" stop-color="#75d746"/></linearGradient><linearGradient id="e9e2db93-39f3-4aeb-8ac8-7f65d50062d6" x1="279.55" y1="-3.19" x2="277.92" y2="5.01" gradientTransform="matrix(0.94, 0, 0, 0.92, -8.01, 75.59)" xlink:href="#eccbf862-4c2f-4d23-a6e1-3d43c95e600a"/><linearGradient id="f10ac8ac-d506-4a77-991e-23185e69bbc5" x1="273.7" y1="-3.74" x2="284.61" y2="-3.44" gradientTransform="matrix(0.94, 0, 0, 0.92, -8.01, 75.59)" gradientUnits="userSpaceOnUse"><stop offset="0.67" stop-color="#358a75"/><stop offset="0.83" stop-color="#378c74"/><stop offset="0.88" stop-color="#3c9370"/><stop offset="0.92" stop-color="#469e68"/><stop offset="0.96" stop-color="#54af5e"/><stop offset="0.98" stop-color="#66c551"/><stop offset="1" stop-color="#75d746"/></linearGradient><linearGradient id="ea7b7794-29b8-46f6-bfb8-53c0f55fecf4" x1="263.75" y1="76.41" x2="253.4" y2="58.48" gradientUnits="userSpaceOnUse"><stop offset="0.13" stop-color="#243748"/><stop offset="0.23" stop-color="#284851"/><stop offset="0.41" stop-color="#31756a"/><stop offset="0.49" stop-color="#358a75"/><stop offset="0.81" stop-color="#67c650"/><stop offset="0.9" stop-color="#75d746"/></linearGradient><linearGradient id="a2416c66-657b-4fea-b3c8-38c5c9d1d34d" x1="246.63" y1="64.84" x2="258.95" y2="82.43" gradientUnits="userSpaceOnUse"><stop offset="0.15" stop-color="#243748"/><stop offset="0.22" stop-color="#26404d"/><stop offset="0.32" stop-color="#2b585a"/><stop offset="0.46" stop-color="#337e6f"/><stop offset="0.49" stop-color="#358a75"/><stop offset="0.79" stop-color="#67c650"/><stop offset="0.87" stop-color="#75d746"/></linearGradient><linearGradient id="b0aa50b8-4862-401f-bfe0-9acd83268a30" x1="259.97" y1="78.43" x2="250.49" y2="62.03" gradientUnits="userSpaceOnUse"><stop offset="0.12" stop-color="#243748"/><stop offset="0.22" stop-color="#284851"/><stop offset="0.41" stop-color="#31756a"/><stop offset="0.49" stop-color="#358a75"/><stop offset="0.81" stop-color="#67c650"/><stop offset="0.9" stop-color="#75d746"/></linearGradient><linearGradient id="a8dc5250-7308-437a-8693-c885d0c4c857" x1="253.56" y1="61.57" x2="264.95" y2="77.84" gradientUnits="userSpaceOnUse"><stop offset="0.13" stop-color="#243748"/><stop offset="0.22" stop-color="#274650"/><stop offset="0.38" stop-color="#2f6c65"/><stop offset="0.49" stop-color="#358a75"/><stop offset="0.77" stop-color="#67c650"/><stop offset="0.85" stop-color="#75d746"/></linearGradient><linearGradient id="bef1d04f-a846-4ece-a979-09a5ffc38973" x1="243.98" y1="66.98" x2="255.27" y2="83.11" xlink:href="#a8dc5250-7308-437a-8693-c885d0c4c857"/><linearGradient id="ae099526-ac1a-4a64-99e5-699ba7517005" x1="254.04" y1="83.94" x2="243.49" y2="65.67" xlink:href="#ea7b7794-29b8-46f6-bfb8-53c0f55fecf4"/></defs><g id="fb9f4b98-b571-4c84-98af-6f2a2232ed8c" data-name="Слой 2"><g id="f06ac10f-d5e2-4eec-a77e-51cb15eb39d1" data-name="Слой 1"><path d="M152.92,43.09a7.2,7.2,0,0,1-.94,3.7,8.63,8.63,0,0,1-2.47,2.7,11.69,11.69,0,0,1-3.46,1.67,13.49,13.49,0,0,1-3.92.58,14.86,14.86,0,0,1-6-1.23,14.55,14.55,0,0,1-4.74-3.26L135.63,43a8.51,8.51,0,0,0,6.52,2.89,5.57,5.57,0,0,0,2.73-.6A2,2,0,0,0,146,43.48a2.44,2.44,0,0,0-1.55-2.1,23,23,0,0,0-4.35-1.67,20.48,20.48,0,0,1-3.18-1.23,12,12,0,0,1-2.76-1.83,9.07,9.07,0,0,1-1.93-2.49,7,7,0,0,1-.72-3.24,7.08,7.08,0,0,1,.94-3.64,8.65,8.65,0,0,1,2.47-2.71,11.67,11.67,0,0,1,3.46-1.66,13.49,13.49,0,0,1,3.92-.58,15.1,15.1,0,0,1,6,1.08,13.05,13.05,0,0,1,4.46,3.21l-4.2,4.21a7.75,7.75,0,0,0-2.76-2,8,8,0,0,0-3.33-.73,5.89,5.89,0,0,0-2.85.63,2.06,2.06,0,0,0-1.16,1.93c0,.74.49,1.39,1.48,2a20.2,20.2,0,0,0,4.27,1.66,20.8,20.8,0,0,1,3.36,1.33,12.53,12.53,0,0,1,2.77,1.89A8.34,8.34,0,0,1,152.22,40,6.72,6.72,0,0,1,152.92,43.09Z" style="fill:#2f4151"/><path d="M183.62,47.34a16,16,0,0,1-5,3.26,16.22,16.22,0,0,1-6.13,1.09,15,15,0,0,1-5.75-1.11A14.4,14.4,0,0,1,162,47.51a14,14,0,0,1-3.14-4.66,15.43,15.43,0,0,1,0-11.69A14.34,14.34,0,0,1,162,26.5a14.19,14.19,0,0,1,4.66-3.06,16.08,16.08,0,0,1,16.86,3.23l-4.64,4.64A8.09,8.09,0,0,0,176,29.23a9,9,0,0,0-3.5-.67,7.07,7.07,0,0,0-3,.65A7.67,7.67,0,0,0,167,31a8.88,8.88,0,0,0-1.69,2.7,8.68,8.68,0,0,0-.63,3.29A8.78,8.78,0,0,0,167,43a8.13,8.13,0,0,0,2.49,1.81,6.81,6.81,0,0,0,3,.68,8.52,8.52,0,0,0,6.42-2.75Z" style="fill:#2f4151"/><path d="M212.7,51h-7v-1.5a11.43,11.43,0,0,1-3.88,1.74,18.54,18.54,0,0,1-4.23.48,10.62,10.62,0,0,1-3.67-.6,8.6,8.6,0,0,1-2.85-1.74,8,8,0,0,1-1.86-2.68,8.85,8.85,0,0,1-.65-3.43,8,8,0,0,1,1-4.13,8.92,8.92,0,0,1,2.82-3,13.17,13.17,0,0,1,4.18-1.76,21.58,21.58,0,0,1,5.14-.58h4a5.13,5.13,0,0,0-1.59-3.94,6.52,6.52,0,0,0-4.59-1.47,8.34,8.34,0,0,0-3.16.61,9.59,9.59,0,0,0-2.92,1.86l-4.11-4.16a16.16,16.16,0,0,1,11.16-4.44,13.49,13.49,0,0,1,5.16.92A10.55,10.55,0,0,1,212,29.69a19.4,19.4,0,0,1,.74,5.82Zm-7-7V38.84h-3.18a18.05,18.05,0,0,0-2.73.2,7.45,7.45,0,0,0-2.22.65,4.17,4.17,0,0,0-1.5,1.18,2.77,2.77,0,0,0-.56,1.74A2.9,2.9,0,0,0,196.69,45a4.51,4.51,0,0,0,2.92.91,10.19,10.19,0,0,0,3.07-.48A14.81,14.81,0,0,0,205.74,44Z" style="fill:#2f4151"/><path d="M244.16,51h-7V34.3a6.94,6.94,0,0,0-.46-2.63,5.44,5.44,0,0,0-1.23-1.88,5.37,5.37,0,0,0-1.77-1.14,5.83,5.83,0,0,0-2.06-.38,8.92,8.92,0,0,0-3.16.58,8.16,8.16,0,0,0-2.81,1.78V51h-7V23h7l0,2.18A7.3,7.3,0,0,1,227.3,24a14,14,0,0,1,1.91-.92,11.18,11.18,0,0,1,2-.58,10.81,10.81,0,0,1,2-.19,12.48,12.48,0,0,1,4.09.67,9.76,9.76,0,0,1,3.47,2.11,10.18,10.18,0,0,1,2.44,3.64,13.8,13.8,0,0,1,.92,5.27Z" style="fill:#2f4151"/><path d="M275.6,51h-7V34.3a6.94,6.94,0,0,0-.46-2.63A5.44,5.44,0,0,0,267,29.79a5.37,5.37,0,0,0-1.77-1.14,5.83,5.83,0,0,0-2.06-.38,8.92,8.92,0,0,0-3.16.58,8.16,8.16,0,0,0-2.81,1.78V51H250.2V23h6.95l.05,2.18A7.3,7.3,0,0,1,258.74,24a14,14,0,0,1,1.91-.92,11.18,11.18,0,0,1,2-.58,10.81,10.81,0,0,1,2-.19,12.48,12.48,0,0,1,4.09.67,9.76,9.76,0,0,1,3.47,2.11,10.18,10.18,0,0,1,2.44,3.64A13.8,13.8,0,0,1,275.6,34Z" style="fill:#2f4151"/><path d="M311.23,37a13.6,13.6,0,0,1-.08,1.4c0,.48-.1,1-.17,1.5H288.67a9.61,9.61,0,0,0,1.09,2.29,7.69,7.69,0,0,0,4,3.14,8.18,8.18,0,0,0,2.82.46,11.42,11.42,0,0,0,3.82-.63,9.24,9.24,0,0,0,3.09-1.78l4.39,4.39a17.45,17.45,0,0,1-5.41,3,19.34,19.34,0,0,1-6.13.92,15,15,0,0,1-10.6-4.3,14.5,14.5,0,0,1-3.16-4.66,14.68,14.68,0,0,1,0-11.44,14.55,14.55,0,0,1,3.18-4.67,15.34,15.34,0,0,1,4.74-3.13,14.4,14.4,0,0,1,5.79-1.16A15.06,15.06,0,0,1,302,23.41a15.29,15.29,0,0,1,4.78,3A14.1,14.1,0,0,1,311.23,37Zm-7.3-2.7A8.35,8.35,0,0,0,301,30a7.6,7.6,0,0,0-4.76-1.62A7.42,7.42,0,0,0,291.57,30a8.49,8.49,0,0,0-2.9,4.28Z" style="fill:#2f4151"/><path d="M337.91,26,334,31.84a13.68,13.68,0,0,0-2.33-2,4.65,4.65,0,0,0-2.58-.84,4.3,4.3,0,0,0-1.53.31,4.49,4.49,0,0,0-1.56,1,6,6,0,0,0-1.23,1.91,7.57,7.57,0,0,0-.5,2.92V51h-7.23V23h7.23v3.1a10.24,10.24,0,0,1,2.88-2.76,6.72,6.72,0,0,1,3.54-1,7.78,7.78,0,0,1,3.74,1A14.26,14.26,0,0,1,337.91,26Z" style="fill:#2f4151"/><path d="M47.87,41l-.49.57a28.68,28.68,0,0,1-9.2,7.19A26.25,26.25,0,0,1,26.43,51.4,26.85,26.85,0,0,1,7.7,43.92a25.64,25.64,0,0,1-5.63-8.18A25,25,0,0,1,0,25.64,24.75,24.75,0,0,1,2.07,15.57,25.84,25.84,0,0,1,7.7,7.42,26.32,26.32,0,0,1,16.11,2,26.9,26.9,0,0,1,26.43,0,28.79,28.79,0,0,1,38.28,2.41,24.4,24.4,0,0,1,47.4,9.48l.45.57-7.5,7.5-.56-.79a14.09,14.09,0,0,0-5.64-4.68,18.29,18.29,0,0,0-7.72-1.63,14.94,14.94,0,0,0-6,1.22A16.23,16.23,0,0,0,15.49,15a15.71,15.71,0,0,0-3.33,4.85,14.21,14.21,0,0,0-1.22,5.81,14.4,14.4,0,0,0,1.22,5.88,15.66,15.66,0,0,0,3.33,4.84,16.23,16.23,0,0,0,4.94,3.31,14.94,14.94,0,0,0,6,1.22A16.14,16.14,0,0,0,39.8,34.27l.57-.76Z" style="fill:url(#a29ebdd1-ad2b-487b-8f61-30c267a9c52c)"/><path d="M87.74,37.05a12.5,12.5,0,0,1-1.25,5.48A14.91,14.91,0,0,1,83,47.09a16.82,16.82,0,0,1-5.23,3.15,18.54,18.54,0,0,1-6.65,1.16,30.44,30.44,0,0,1-10.54-1.67,27.63,27.63,0,0,1-8.41-5l-.67-.57,7.75-7.82.58.48a19.67,19.67,0,0,0,5.37,3.32,15.28,15.28,0,0,0,5.5,1,6.41,6.41,0,0,0,4.18-1.31,3.72,3.72,0,0,0,1.53-3,3.62,3.62,0,0,0-.36-1.61,4.62,4.62,0,0,0-1.35-1.48,16.31,16.31,0,0,0-2.91-1.68C70.59,31.5,69,30.87,67,30.19A47.91,47.91,0,0,1,61.87,28a18.8,18.8,0,0,1-4.45-3.1,14.49,14.49,0,0,1-3.11-4.33,13.5,13.5,0,0,1-1.19-5.86,13.63,13.63,0,0,1,1.31-6A14.19,14.19,0,0,1,58,4.06a16.76,16.76,0,0,1,5.24-3A19.13,19.13,0,0,1,69.65,0a27,27,0,0,1,9.59,1.5,21.17,21.17,0,0,1,7,4.4l.61.57L79.19,14.2l-.58-.56a12.23,12.23,0,0,0-3.76-2.5,12.58,12.58,0,0,0-4.9-.87,6.69,6.69,0,0,0-2.28.37,6.07,6.07,0,0,0-1.76,1A4.83,4.83,0,0,0,64.75,13a3,3,0,0,0-.4,1.51,3.63,3.63,0,0,0,.39,1.69,4.38,4.38,0,0,0,1.38,1.48A17.85,17.85,0,0,0,69,19.31a49.21,49.21,0,0,0,4.63,1.88,42.34,42.34,0,0,1,6.43,2.94,17.88,17.88,0,0,1,4.4,3.49,12.1,12.1,0,0,1,2.5,4.3A16.34,16.34,0,0,1,87.74,37.05Z" style="fill:url(#a29ebdd1-ad2b-487b-8f61-30c267a9c52c)"/><path d="M126.5,11a17.13,17.13,0,0,0-9.17-9.18A16.8,16.8,0,0,0,110.65.47H92.59V51.4h10.93V35.34h7.11A17.09,17.09,0,0,0,117.31,34a16.64,16.64,0,0,0,5.5-3.69,17.58,17.58,0,0,0,5.06-12.45A17.22,17.22,0,0,0,126.5,11Zm-9.44,10.34a9.86,9.86,0,0,1-1.89,3,9.24,9.24,0,0,1-2.81,2.06,8.08,8.08,0,0,1-3.48.77H102.7V8.57h6.18a8.36,8.36,0,0,1,3.48.74,9.49,9.49,0,0,1,2.81,2,9.24,9.24,0,0,1,2.58,6.47A9.46,9.46,0,0,1,117.06,21.35Z" style="fill:url(#f9f7a70c-0ab7-484e-b240-e9161e4561aa)"/><path d="M227.14,72.89a5.17,5.17,0,0,1-.32,1.8,4.47,4.47,0,0,1-.89,1.51,4.41,4.41,0,0,1-1.35,1,4,4,0,0,1-1.73.38,3.57,3.57,0,0,1-1.1-.16,3,3,0,0,1-1-.53v.47h-2.21V62.53h2.23v6.29a3,3,0,0,1,.92-.5,3.21,3.21,0,0,1,1.12-.19,3.55,3.55,0,0,1,1.58.37,4.48,4.48,0,0,1,1.37,1,5,5,0,0,1,1,1.51A4.81,4.81,0,0,1,227.14,72.89Zm-2.4,0a3.41,3.41,0,0,0-.18-1.14,2.46,2.46,0,0,0-.51-.88,2.07,2.07,0,0,0-.77-.57,2.4,2.4,0,0,0-1-.19,2.74,2.74,0,0,0-.82.13,2,2,0,0,0-.73.4V75a2.17,2.17,0,0,0,1.6.68,2.24,2.24,0,0,0,1-.21,2.12,2.12,0,0,0,.76-.57,2.65,2.65,0,0,0,.5-.87A3.31,3.31,0,0,0,224.74,72.89Z" style="fill:#687580"/><path d="M236.37,68.35l-3.9,10.73a3.77,3.77,0,0,1-1.15,1.73,2.74,2.74,0,0,1-1.68.53l-.33,0-.33-.08-.72-2a1.83,1.83,0,0,0,.5.15,3.37,3.37,0,0,0,.52,0,1.84,1.84,0,0,0,.93-.24,1.56,1.56,0,0,0,.65-.9l.3-.9-3.35-9h2.36l2,5.81L234,68.35Z" style="fill:#687580"/><path d="M252.88,71.1l1.24-.07.06-6.81-2.32,6.11A.88.88,0,0,0,252.88,71.1Z" style="fill:url(#eccbf862-4c2f-4d23-a6e1-3d43c95e600a)"/><path d="M255.52,73l-1.27.07-.06,6.75,2.34-6.12A.89.89,0,0,0,255.52,73Z" style="fill:url(#e9e2db93-39f3-4aeb-8ac8-7f65d50062d6)"/><path d="M256.15,70.91l-2,.12h0l-1.25.07a.88.88,0,0,1-1-.77l-.62,1.9c-.16.51.33,1,1,1l2-.12h0l1.27-.07a.89.89,0,0,1,1,.7l.61-1.83C257.3,71.35,256.8,70.87,256.15,70.91Z" style="fill:url(#f10ac8ac-d506-4a77-991e-23185e69bbc5)"/><path d="M264,74.25,261,76v0l3-1.76a1.64,1.64,0,0,0,.62-.66v0h0A1.65,1.65,0,0,1,264,74.25Z" style="fill:url(#ea7b7794-29b8-46f6-bfb8-53c0f55fecf4)"/><polygon points="254.19 64.02 247.35 68.03 247.35 68.03 247.35 76 254.19 80.01 261.03 76 261.03 76 261.03 68.03 254.19 64.02" style="fill:none"/><path d="M264.62,73.58v0a1.64,1.64,0,0,1-.62.66L261,76v0h0l-6.84,4-6.84-4V68h0l-3,1.77a1.61,1.61,0,0,0-.61.63h0v6.74a1.63,1.63,0,0,0,.81,1.41l4.6,2.7,4.23,2.47a1.53,1.53,0,0,0,1.6,0l4.61-2.7,4.22-2.47a1.62,1.62,0,0,0,.8-1.41V73.58Z" style="fill:url(#a2416c66-657b-4fea-b3c8-38c5c9d1d34d)"/><path d="M244.36,69.8l3-1.77h0l6.84-4L261,68v8l3-1.75a1.65,1.65,0,0,0,.64-.67h0V66.87a1.62,1.62,0,0,0-.8-1.41l-4.73-2.78-4.1-2.4a1.58,1.58,0,0,0-1.6,0L248.68,63l-4.12,2.42a1.63,1.63,0,0,0-.81,1.41v3.56A1.61,1.61,0,0,1,244.36,69.8Z" style="fill:url(#b0aa50b8-4862-401f-bfe0-9acd83268a30)"/><path d="M264,74.25,261,76v0l3-1.76a1.64,1.64,0,0,0,.62-.66v0h0A1.65,1.65,0,0,1,264,74.25Z" style="fill:url(#a8dc5250-7308-437a-8693-c885d0c4c857)"/><path d="M243.75,70.43a1.61,1.61,0,0,1,.61-.63l3-1.77h0l-3,1.77a1.61,1.61,0,0,0-.61.63Z" style="fill:url(#bef1d04f-a846-4ece-a979-09a5ffc38973)"/><path d="M243.75,70.43a1.61,1.61,0,0,1,.61-.63l3-1.77h0l-3,1.77a1.61,1.61,0,0,0-.61.63Z" style="fill:url(#ae099526-ac1a-4a64-99e5-699ba7517005)"/><g style="opacity:0.14"><path d="M252.88,71.1l1.24-.07.06-6.81-2.32,6.11A.88.88,0,0,0,252.88,71.1Z" style="fill:#fff"/><path d="M255.52,73l-1.27.07-.06,6.75,2.34-6.12A.89.89,0,0,0,255.52,73Z" style="fill:#fff"/><path d="M256.15,70.91l-2,.12h0l-1.25.07a.88.88,0,0,1-1-.77l-.62,1.9c-.16.51.33,1,1,1l2-.12h0l1.27-.07a.89.89,0,0,1,1,.7l.61-1.83C257.3,71.35,256.8,70.87,256.15,70.91Z" style="fill:#fff"/><path d="M264,74.25,261,76v0l3-1.76a1.64,1.64,0,0,0,.62-.66v0h0A1.65,1.65,0,0,1,264,74.25Z" style="fill:#fff"/><polygon points="254.19 64.02 247.35 68.03 247.35 68.03 247.35 76 254.19 80.01 261.03 76 261.03 76 261.03 68.03 254.19 64.02" style="fill:#fff"/><path d="M264.62,73.58v0a1.64,1.64,0,0,1-.62.66L261,76v0h0l-6.84,4-6.84-4V68h0l-3,1.77a1.61,1.61,0,0,0-.61.63h0v6.74a1.63,1.63,0,0,0,.81,1.41l4.6,2.7,4.23,2.47a1.53,1.53,0,0,0,1.6,0l4.61-2.7,4.22-2.47a1.62,1.62,0,0,0,.8-1.41V73.58Z" style="fill:#fff"/><path d="M244.36,69.8l3-1.77h0l6.84-4L261,68v8l3-1.75a1.65,1.65,0,0,0,.64-.67h0V66.87a1.62,1.62,0,0,0-.8-1.41l-4.73-2.78-4.1-2.4a1.58,1.58,0,0,0-1.6,0L248.68,63l-4.12,2.42a1.63,1.63,0,0,0-.81,1.41v3.56A1.61,1.61,0,0,1,244.36,69.8Z" style="fill:#fff"/><path d="M264,74.25,261,76v0l3-1.76a1.64,1.64,0,0,0,.62-.66v0h0A1.65,1.65,0,0,1,264,74.25Z" style="fill:#fff"/><path d="M243.75,70.43a1.61,1.61,0,0,1,.61-.63l3-1.77h0l-3,1.77a1.61,1.61,0,0,0-.61.63Z" style="fill:#fff"/><path d="M243.75,70.43a1.61,1.61,0,0,1,.61-.63l3-1.77h0l-3,1.77a1.61,1.61,0,0,0-.61.63Z" style="fill:#fff"/></g><path d="M279.93,77.92h-2.54l-.85-2.71a4.12,4.12,0,0,0-.34-.83,2.56,2.56,0,0,0-.48-.64,2,2,0,0,0-.68-.42,2.59,2.59,0,0,0-.93-.15h-.86v4.75H271V66h4.71a3.9,3.9,0,0,1,1.42.26,3.58,3.58,0,0,1,1.13.72,3.24,3.24,0,0,1,.74,1.09,3.4,3.4,0,0,1,.27,1.36,3.2,3.2,0,0,1-.16,1,3.39,3.39,0,0,1-.46.91,3.77,3.77,0,0,1-.7.74,3.26,3.26,0,0,1-.9.48,2.29,2.29,0,0,1,.92.61,2.88,2.88,0,0,1,.56,1,4.29,4.29,0,0,1,.19.5c.06.17.13.35.19.53s.13.39.21.6l.24.71c.11.33.21.61.31.84A4.49,4.49,0,0,0,279.93,77.92Zm-3-8.34a1.7,1.7,0,0,0-.16-.76,1.81,1.81,0,0,0-.42-.6,2,2,0,0,0-.64-.4,2.21,2.21,0,0,0-.78-.14h-1.67V71.4h1.67a2.2,2.2,0,0,0,.78-.13,1.9,1.9,0,0,0,.64-.36,1.73,1.73,0,0,0,.42-.58A1.65,1.65,0,0,0,276.92,69.58Z" style="fill:#687580"/><path d="M287.74,77.92h-2.15v-.46a3.5,3.5,0,0,1-1.2.54,5.64,5.64,0,0,1-1.3.15A3.41,3.41,0,0,1,282,78a2.41,2.41,0,0,1-.88-.54,2.44,2.44,0,0,1-.58-.83,2.74,2.74,0,0,1-.2-1.06,2.49,2.49,0,0,1,.32-1.27,2.73,2.73,0,0,1,.88-.91,4,4,0,0,1,1.29-.55,6.67,6.67,0,0,1,1.59-.18h1.24a1.58,1.58,0,0,0-.49-1.21A2,2,0,0,0,283.7,71a2.84,2.84,0,0,0-.93.16,2.69,2.69,0,0,0-.95.6l-1.27-1.29a4.69,4.69,0,0,1,1.59-1,5,5,0,0,1,1.86-.36,4.21,4.21,0,0,1,1.59.28,3.35,3.35,0,0,1,1.13.73,3.18,3.18,0,0,1,.79,1.27,5.68,5.68,0,0,1,.23,1.79Zm-2.15-2.15V74.18h-1a7.62,7.62,0,0,0-.85,0,2.17,2.17,0,0,0-.68.21,1.23,1.23,0,0,0-.47.36.89.89,0,0,0-.17.54.9.9,0,0,0,.35.73,1.42,1.42,0,0,0,.91.29,3.14,3.14,0,0,0,.95-.15A4.66,4.66,0,0,0,285.59,75.77Z" style="fill:#687580"/><path d="M297.18,73.62a4.74,4.74,0,0,1-.31,1.73A4.5,4.5,0,0,1,296,76.8a4.14,4.14,0,0,1-1.32,1,3.82,3.82,0,0,1-1.67.37A3.62,3.62,0,0,1,292,78a2.81,2.81,0,0,1-.93-.5v4.18h-2.16V69.28H291l0,.45a2.91,2.91,0,0,1,.89-.48,3.22,3.22,0,0,1,1.08-.18,3.64,3.64,0,0,1,1.54.35,4.42,4.42,0,0,1,1.33,1,5.1,5.1,0,0,1,.93,1.44A4.69,4.69,0,0,1,297.18,73.62Zm-2.2,0a3.23,3.23,0,0,0-.18-1.11,2.35,2.35,0,0,0-.5-.84,2.29,2.29,0,0,0-.76-.54,2.59,2.59,0,0,0-1-.18,2.44,2.44,0,0,0-.79.14,2.15,2.15,0,0,0-.74.38v4.13a2.27,2.27,0,0,0,1.57.65,2.31,2.31,0,0,0,.95-.2,2.19,2.19,0,0,0,.76-.54,2.69,2.69,0,0,0,.49-.84A3,3,0,0,0,295,73.64Z" style="fill:#687580"/><path d="M300.43,67.78h-2.24V65.55h2.24Zm0,10.14h-2.18V69.28h2.18Z" style="fill:#687580"/><path d="M309.75,77.92h-2.19v-.45a2.72,2.72,0,0,1-.91.5,3.3,3.3,0,0,1-1,.16,3.85,3.85,0,0,1-1.67-.36,4.32,4.32,0,0,1-1.32-1,4.5,4.5,0,0,1-.85-1.44,4.78,4.78,0,0,1-.31-1.73,4.62,4.62,0,0,1,.35-1.8,4.89,4.89,0,0,1,.93-1.44,4.51,4.51,0,0,1,1.33-1,3.64,3.64,0,0,1,1.54-.35,3.79,3.79,0,0,1,1.07.15,2.88,2.88,0,0,1,.9.42V65.53h2.18Zm-2.16-2.31V71.46a2.3,2.3,0,0,0-.35-.2,2.83,2.83,0,0,0-.4-.17,3.2,3.2,0,0,0-.42-.1,1.82,1.82,0,0,0-.38,0,2.41,2.41,0,0,0-1,.19,2.26,2.26,0,0,0-.77.53,2.5,2.5,0,0,0-.51.85,3.16,3.16,0,0,0-.18,1.09,3.08,3.08,0,0,0,.18,1.07,2.53,2.53,0,0,0,.49.83,2.18,2.18,0,0,0,.76.55,2.4,2.4,0,0,0,1,.19A2.36,2.36,0,0,0,307.59,75.61Z" style="fill:#687580"/><path d="M319.19,74.79a2.92,2.92,0,0,1-.29,1.27,3.4,3.4,0,0,1-.82,1.07,3.93,3.93,0,0,1-1.24.74,4.44,4.44,0,0,1-1.58.28,9.88,9.88,0,0,1-1.4-.09,6,6,0,0,1-1.16-.29,5.59,5.59,0,0,1-1.05-.5,8.73,8.73,0,0,1-1-.74l1.64-1.65a4.23,4.23,0,0,0,2.9,1.09,2.05,2.05,0,0,0,.61-.1,1.53,1.53,0,0,0,.51-.26,1.3,1.3,0,0,0,.35-.39,1,1,0,0,0,.12-.49,1.19,1.19,0,0,0-.1-.51,1.31,1.31,0,0,0-.37-.43,4,4,0,0,0-.75-.43q-.48-.21-1.23-.48a11.72,11.72,0,0,1-1.26-.55,4.47,4.47,0,0,1-1.06-.74,3.53,3.53,0,0,1-.73-1,3.42,3.42,0,0,1,0-2.78,3.23,3.23,0,0,1,.84-1.1,3.87,3.87,0,0,1,1.24-.71,4.47,4.47,0,0,1,1.53-.25,6.52,6.52,0,0,1,2.31.36,5.06,5.06,0,0,1,1.67,1l-1.61,1.63a3.11,3.11,0,0,0-1-.66,3.24,3.24,0,0,0-1.3-.24,1.81,1.81,0,0,0-.63.11,1.51,1.51,0,0,0-.5.28,1.19,1.19,0,0,0-.34.4,1,1,0,0,0-.13.48,1.14,1.14,0,0,0,.12.52,1.52,1.52,0,0,0,.41.45,4.15,4.15,0,0,0,.75.43c.31.14.7.3,1.17.47a8.94,8.94,0,0,1,1.54.69,4.3,4.3,0,0,1,1,.82,3,3,0,0,1,.59,1A3.78,3.78,0,0,1,319.19,74.79Z" style="fill:#687580"/><path d="M329.12,73.59a3.37,3.37,0,0,1,0,.44c0,.15,0,.3,0,.46h-6.9a2.89,2.89,0,0,0,.34.71,2.25,2.25,0,0,0,.53.58,2.7,2.7,0,0,0,.71.39,2.65,2.65,0,0,0,.87.14,3.69,3.69,0,0,0,1.17-.2,3,3,0,0,0,1-.55l1.35,1.36a5.83,5.83,0,0,1-1.75,1,6,6,0,0,1-1.81.28,4.64,4.64,0,0,1-3.28-1.33,4.65,4.65,0,0,1-1-1.44,4.45,4.45,0,0,1-.36-1.77,4.38,4.38,0,0,1,.36-1.77,4.51,4.51,0,0,1,1-1.44,4.6,4.6,0,0,1,1.46-1,4.47,4.47,0,0,1,1.79-.36,4.73,4.73,0,0,1,1.75.33,4.85,4.85,0,0,1,1.48.94,4.53,4.53,0,0,1,1,1.42A4.44,4.44,0,0,1,329.12,73.59Zm-2.26-.83a2.57,2.57,0,0,0-.9-1.32,2.34,2.34,0,0,0-1.47-.5,2.26,2.26,0,0,0-1.45.5,2.57,2.57,0,0,0-.9,1.32Z" style="fill:#687580"/><path d="M337.91,76.62a4.36,4.36,0,0,1-1.58,1.14,5,5,0,0,1-1.94.39,4.63,4.63,0,0,1-1.78-.35,4.48,4.48,0,0,1-1.45-.94,4.4,4.4,0,0,1-1-1.45,4.66,4.66,0,0,1,0-3.59,4.6,4.6,0,0,1,1-1.44,4.43,4.43,0,0,1,1.44-1,4.69,4.69,0,0,1,1.8-.35,4.94,4.94,0,0,1,1.87.36,4.06,4.06,0,0,1,1.54,1.09L336.36,72a2.9,2.9,0,0,0-.8-.72,2.39,2.39,0,0,0-2.08-.08,2.67,2.67,0,0,0-.77.56,2.56,2.56,0,0,0-.53.83,2.69,2.69,0,0,0-.2,1,2.64,2.64,0,0,0,.2,1,2.6,2.6,0,0,0,.52.83,2.5,2.5,0,0,0,.77.56,2.29,2.29,0,0,0,2.11-.1,2.42,2.42,0,0,0,.84-.78Z" style="fill:#687580"/></g></g></svg>