<svg id="bb4cb41b-c45e-4cbf-8942-8ad3b7da558b" xmlns="http://www.w3.org/2000/svg" xmlns:xlink="http://www.w3.org/1999/xlink" viewBox="0 0 1400 426.33"><defs><linearGradient id="a402b779-1412-4009-89bf-40d23b0b2d19" x1="143.79" y1="213.9" x2="169.41" y2="102.9" gradientUnits="userSpaceOnUse"><stop offset="0.13" stop-color="#243748"/><stop offset="0.22" stop-color="#295256"/><stop offset="0.35" stop-color="#307067"/><stop offset="0.46" stop-color="#348371"/><stop offset="0.54" stop-color="#358a75"/><stop offset="0.62" stop-color="#3b9171"/><stop offset="0.75" stop-color="#4ca564"/><stop offset="0.9" stop-color="#67c650"/><stop offset="0.96" stop-color="#75d746"/></linearGradient><linearGradient id="e346aed3-3edf-4a5e-955d-679223c74954" x1="229.31" y1="319.64" x2="205.29" y2="440.52" gradientTransform="matrix(0.94, 0, 0, 0.92, -30.37, -69.53)" xlink:href="#a402b779-1412-4009-89bf-40d23b0b2d19"/><linearGradient id="b9d9d51b-134c-4d08-a965-ef040d2f64a4" x1="143.12" y1="311.51" x2="303.94" y2="316.04" gradientTransform="matrix(0.94, 0, 0, 0.92, -30.37, -69.53)" gradientUnits="userSpaceOnUse"><stop offset="0.67" stop-color="#358a75"/><stop offset="0.83" stop-color="#378c74"/><stop offset="0.88" stop-color="#3c9370"/><stop offset="0.92" stop-color="#469e68"/><stop offset="0.96" stop-color="#54af5e"/><stop offset="0.98" stop-color="#66c551"/><stop offset="1" stop-color="#75d746"/></linearGradient><linearGradient id="b324fa3d-7024-4d4e-958b-0e7e70a69e6e" x1="305.85" y1="283.17" x2="153.26" y2="18.88" gradientUnits="userSpaceOnUse"><stop offset="0.13" stop-color="#243748"/><stop offset="0.23" stop-color="#284851"/><stop offset="0.41" stop-color="#31756a"/><stop offset="0.49" stop-color="#358a75"/><stop offset="0.81" stop-color="#67c650"/><stop offset="0.9" stop-color="#75d746"/></linearGradient><linearGradient id="f19b6b33-6b98-49ee-8343-138f401f9f77" x1="53.59" y1="112.68" x2="235.04" y2="371.82" gradientUnits="userSpaceOnUse"><stop offset="0.15" stop-color="#243748"/><stop offset="0.22" stop-color="#26404d"/><stop offset="0.32" stop-color="#2b585a"/><stop offset="0.46" stop-color="#337e6f"/><stop offset="0.49" stop-color="#358a75"/><stop offset="0.79" stop-color="#67c650"/><stop offset="0.87" stop-color="#75d746"/></linearGradient><linearGradient id="bea77794-d0d7-487f-a21a-c83c8d90508e" x1="250.03" y1="312.95" x2="110.44" y2="71.18" gradientUnits="userSpaceOnUse"><stop offset="0.12" stop-color="#243748"/><stop offset="0.22" stop-color="#284851"/><stop offset="0.41" stop-color="#31756a"/><stop offset="0.49" stop-color="#358a75"/><stop offset="0.81" stop-color="#67c650"/><stop offset="0.9" stop-color="#75d746"/></linearGradient><linearGradient id="b7dc556f-c047-4dd4-830b-d725388028ad" x1="155.63" y1="64.49" x2="323.51" y2="304.24" gradientUnits="userSpaceOnUse"><stop offset="0.13" stop-color="#243748"/><stop offset="0.22" stop-color="#274650"/><stop offset="0.38" stop-color="#2f6c65"/><stop offset="0.49" stop-color="#358a75"/><stop offset="0.77" stop-color="#67c650"/><stop offset="0.85" stop-color="#75d746"/></linearGradient><linearGradient id="f752e9d9-f3ae-4e7a-9af1-ea8ba1a4e2d5" x1="14.43" y1="144.23" x2="180.77" y2="381.79" xlink:href="#b7dc556f-c047-4dd4-830b-d725388028ad"/><linearGradient id="fc85f6e8-f0b5-4af9-b411-c3e167807869" x1="162.73" y1="394.06" x2="7.3" y2="124.84" xlink:href="#b324fa3d-7024-4d4e-958b-0e7e70a69e6e"/></defs><path d="M145.63,205l18.29-1.06.86-100.36-34.12,90.06C130.53,200.05,137.2,205.45,145.63,205Z" style="fill:url(#a402b779-1412-4009-89bf-40d23b0b2d19)"/><path d="M184.48,232.67l-18.62,1.11-.91,99.5L199.42,243C198.89,237,192.48,232.2,184.48,232.67Z" style="fill:url(#e346aed3-3edf-4a5e-955d-679223c74954)"/><path d="M193.87,202.09,164,203.88h0L145.63,205c-8.43.5-15.1-4.9-15-11.36l-9.27,28c-2.33,7.54,5,14.58,14.54,14l29.88-1.79h0l18.65-1.11c8-.47,14.41,4.36,14.94,10.36l9-26.92C210.75,208.56,203.44,201.52,193.87,202.09Z" style="fill:url(#b9d9d51b-134c-4d08-a965-ef040d2f64a4)"/><path d="M309.24,251.33,265.73,277.1v.57l43.71-25.88a23.84,23.84,0,0,0,9.21-9.84v-.57A24.51,24.51,0,0,1,309.24,251.33Z" style="fill:url(#b324fa3d-7024-4d4e-958b-0e7e70a69e6e)"/><polygon points="164.9 100.59 64.1 159.69 64.09 159.69 64.09 277.11 164.9 336.21 265.71 277.11 265.73 277.1 265.72 159.69 164.9 100.59" style="fill:none"/><path d="M318.65,241.36V242a23.84,23.84,0,0,1-9.21,9.84l-43.71,25.88v-.57h0L164.9,336.21,64.09,277.11V159.69h0l-44,26A23.89,23.89,0,0,0,11.16,195v0h0v99.25A24.1,24.1,0,0,0,23,315.08l67.84,39.78,62.24,36.49a23.38,23.38,0,0,0,23.67,0l67.91-39.82,62.17-36.45a24.11,24.11,0,0,0,11.83-20.82v-52.9Z" style="fill:url(#f19b6b33-6b98-49ee-8343-138f401f9f77)"/><path d="M20.1,185.71l44-26h0l100.8-59.1,100.82,59.1V277.1l43.51-25.77a24.51,24.51,0,0,0,9.4-10V142.53a24.1,24.1,0,0,0-11.83-20.81L237.07,80.83,176.74,45.45a23.38,23.38,0,0,0-23.67,0L83.73,86.11,23,121.72a24.09,24.09,0,0,0-11.84,20.81V195A23.79,23.79,0,0,1,20.1,185.71Z" style="fill:url(#bea77794-d0d7-487f-a21a-c83c8d90508e)"/><path d="M309.24,251.33,265.73,277.1v.57l43.71-25.88a23.84,23.84,0,0,0,9.21-9.84v-.57A24.51,24.51,0,0,1,309.24,251.33Z" style="fill:url(#b7dc556f-c047-4dd4-830b-d725388028ad)"/><path d="M11.16,195a23.89,23.89,0,0,1,9-9.31l44-26h0l-44,26a23.79,23.79,0,0,0-9,9.3v0Z" style="fill:url(#f752e9d9-f3ae-4e7a-9af1-ea8ba1a4e2d5)"/><path d="M11.16,195a23.89,23.89,0,0,1,9-9.31l44-26h0l-44,26a23.79,23.79,0,0,0-9,9.3v0Z" style="fill:url(#fc85f6e8-f0b5-4af9-b411-c3e167807869)"/><path d="M544.28,305.41H506.72l-12.5-40a65,65,0,0,0-4.94-12.1,37.61,37.61,0,0,0-7.13-9.46,29.47,29.47,0,0,0-10-6.16,38.65,38.65,0,0,0-13.71-2.2H445.72v70H412.06V129.63l69.39-.22a55.75,55.75,0,0,1,20.86,3.85A50.37,50.37,0,0,1,519,143.93,48.84,48.84,0,0,1,530,160a50.27,50.27,0,0,1,4,20,47.38,47.38,0,0,1-2.41,15,50.27,50.27,0,0,1-6.78,13.42,52.21,52.21,0,0,1-10.37,10.89,43.84,43.84,0,0,1-13.22,7.15,33.51,33.51,0,0,1,13.55,8.91,43.46,43.46,0,0,1,8.3,14c1,2.49,2,5,2.84,7.48s1.79,5.1,2.74,7.81,2,5.65,3.06,8.8,2.29,6.64,3.61,10.45q2.41,7.26,4.51,12.43A61.16,61.16,0,0,0,544.28,305.41Zm-44.44-123a26.68,26.68,0,0,0-2.31-11.22,27.93,27.93,0,0,0-6.27-8.8,28.44,28.44,0,0,0-9.35-5.83,31.79,31.79,0,0,0-11.55-2.09H445.72v54.78h24.64a35,35,0,0,0,11.55-1.87,27.46,27.46,0,0,0,9.35-5.39,25.52,25.52,0,0,0,8.58-19.58Z" style="fill:#243748"/><path d="M659.33,305.41H627.65v-6.82a52.51,52.51,0,0,1-17.71,7.92,84.11,84.11,0,0,1-19.25,2.2A48.26,48.26,0,0,1,574,306,37.7,37.7,0,0,1,561,298a35.66,35.66,0,0,1-8.47-12.21,39.79,39.79,0,0,1-3-15.62,36.39,36.39,0,0,1,4.73-18.81A41,41,0,0,1,567.15,238a59.69,59.69,0,0,1,19-8,99.26,99.26,0,0,1,23.43-2.64h18.26q0-11.22-7.26-17.82t-20.9-6.6a42,42,0,0,0-13.64,2.42,41.4,41.4,0,0,0-14.08,8.8l-18.7-18.92a72,72,0,0,1,23.43-15A73.7,73.7,0,0,1,604.11,175a62.07,62.07,0,0,1,23.51,4.18A48.28,48.28,0,0,1,656,208.61q3.38,10.33,3.38,26.4Zm-31.68-31.68V250.19H613.13a82.93,82.93,0,0,0-12.43.88,35.25,35.25,0,0,0-10.12,3,18.74,18.74,0,0,0-6.82,5.39,12.67,12.67,0,0,0-2.53,7.92,13.26,13.26,0,0,0,5.17,10.78q5.18,4.19,13.31,4.18a45.79,45.79,0,0,0,14-2.2A67.26,67.26,0,0,0,627.65,273.73Z" style="fill:#243748"/><path d="M798.37,242.05a72.4,72.4,0,0,1-4.52,25.52,66.29,66.29,0,0,1-12.68,21.23,61.13,61.13,0,0,1-19.41,14.52,56.45,56.45,0,0,1-24.7,5.39,51.41,51.41,0,0,1-15.65-2.31A42.8,42.8,0,0,1,707.73,299l.22,61.6h-31.9V178H708l.22,6.6a43.87,43.87,0,0,1,13.09-7,48.22,48.22,0,0,1,16-2.64,52.66,52.66,0,0,1,22.66,5.17,65.15,65.15,0,0,1,19.58,14.19,70.18,70.18,0,0,1,13.75,21.23A67.24,67.24,0,0,1,798.37,242.05Zm-32.34.22A47.16,47.16,0,0,0,763.38,226a36.78,36.78,0,0,0-7.4-12.43,31.9,31.9,0,0,0-11.26-7.92,36.93,36.93,0,0,0-14.46-2.75,38.62,38.62,0,0,0-11.6,2.09,33.89,33.89,0,0,0-10.93,5.61v60.94Q718.11,281,730.92,281a34.44,34.44,0,0,0,14-2.86,32.15,32.15,0,0,0,11.15-8,38.09,38.09,0,0,0,7.29-12.32A44.24,44.24,0,0,0,766,242.27Z" style="fill:#243748"/><path d="M846.33,156h-33V123h33Zm-.44,149.38H813.77V178h32.12Z" style="fill:#243748"/><path d="M983.61,305.41H951.27v-6.6a40.32,40.32,0,0,1-13.42,7.37,50.53,50.53,0,0,1-15.4,2.31,56.19,56.19,0,0,1-24.64-5.39,60.93,60.93,0,0,1-19.36-14.52,66.22,66.22,0,0,1-12.65-21.23,72.39,72.39,0,0,1-4.51-25.52,67.24,67.24,0,0,1,5.17-26.51,70,70,0,0,1,13.75-21.23,65,65,0,0,1,19.58-14.19,52.63,52.63,0,0,1,22.66-5.17,57.32,57.32,0,0,1,15.84,2.2,42.4,42.4,0,0,1,13.2,6.16V122.81h32.12Zm-31.9-34.1V210.15a39.63,39.63,0,0,0-5.08-3,43,43,0,0,0-6-2.42,47.83,47.83,0,0,0-6.19-1.54,31.54,31.54,0,0,0-5.52-.55,36.86,36.86,0,0,0-14.46,2.75,33,33,0,0,0-11.37,7.92,35.91,35.91,0,0,0-7.51,12.43A46.45,46.45,0,0,0,893,241.83a44.88,44.88,0,0,0,2.65,15.73,37.92,37.92,0,0,0,7.29,12.32,32.06,32.06,0,0,0,11.15,8,35,35,0,0,0,14.24,2.86Q940.89,280.77,951.71,271.31Z" style="fill:#243748"/><path d="M1122.65,259.21a42.82,42.82,0,0,1-4.29,18.81,49.74,49.74,0,0,1-12,15.73,59.45,59.45,0,0,1-18.26,10.89,64.44,64.44,0,0,1-23.32,4.07,144.65,144.65,0,0,1-20.57-1.32,88.61,88.61,0,0,1-17.16-4.18,82.11,82.11,0,0,1-15.4-7.37A146.52,146.52,0,0,1,996.37,285l24.2-24.42q10.56,8.81,20.68,12.43a64.68,64.68,0,0,0,22,3.63,28.81,28.81,0,0,0,9.13-1.43,25.77,25.77,0,0,0,7.48-3.85,18.84,18.84,0,0,0,5.06-5.72,14.54,14.54,0,0,0,1.87-7.26,17.58,17.58,0,0,0-1.54-7.48,18.08,18.08,0,0,0-5.5-6.38,56,56,0,0,0-11-6.27q-7.05-3.19-18-7.15a168.46,168.46,0,0,1-18.59-8,65.38,65.38,0,0,1-15.62-10.89,49.8,49.8,0,0,1-10.78-15q-4.08-8.58-4.07-20.24a47.39,47.39,0,0,1,4.51-20.68,48.48,48.48,0,0,1,12.32-16.17,57.26,57.26,0,0,1,18.26-10.45,66.48,66.48,0,0,1,22.55-3.74q20.24,0,34.1,5.28a74.28,74.28,0,0,1,24.64,15.4l-23.76,24a47.56,47.56,0,0,0-14.74-9.79,49.39,49.39,0,0,0-19.14-3.41,27.38,27.38,0,0,0-9.35,1.54,24.53,24.53,0,0,0-7.37,4.07,20.09,20.09,0,0,0-5,5.94,14.63,14.63,0,0,0-1.87,7.15,16.2,16.2,0,0,0,1.76,7.59,20.36,20.36,0,0,0,5.94,6.6,59.36,59.36,0,0,0,11.11,6.38q6.93,3.19,17.27,6.93a131.9,131.9,0,0,1,22.66,10.12,63.51,63.51,0,0,1,15.4,12.1,43.17,43.17,0,0,1,8.8,14.85A56.73,56.73,0,0,1,1122.65,259.21Z" style="fill:#243748"/><path d="M1269,241.61q0,3.07-.33,6.38t-.77,6.82H1166.21a43.63,43.63,0,0,0,5,10.45,34.7,34.7,0,0,0,7.81,8.58,36.84,36.84,0,0,0,10.45,5.72,37.93,37.93,0,0,0,12.87,2.09,52.17,52.17,0,0,0,17.16-3,42.17,42.17,0,0,0,14.3-8l20,20q-13.2,9.9-25.85,14a86.91,86.91,0,0,1-26.73,4.07,67.6,67.6,0,0,1-26.73-5.28,68.28,68.28,0,0,1-21.56-14.3,66.67,66.67,0,0,1-14.41-21.23,67,67,0,0,1,0-52.14A65.84,65.84,0,0,1,1153,194.53a70,70,0,0,1,21.56-14.3A66.28,66.28,0,0,1,1201,175a68.46,68.46,0,0,1,25.74,5,70,70,0,0,1,21.78,13.75,64.3,64.3,0,0,1,20.46,48Zm-33.22-12.32a38.11,38.11,0,0,0-13.31-19.47,34.62,34.62,0,0,0-21.67-7.37,33.83,33.83,0,0,0-21.34,7.37,38.29,38.29,0,0,0-13.2,19.47Z" style="fill:#243748"/><path d="M1398.53,286.27A63.3,63.3,0,0,1,1375.21,303a73.32,73.32,0,0,1-28.6,5.72,68.2,68.2,0,0,1-26.17-5.06,64.53,64.53,0,0,1-35.69-35.2,67.18,67.18,0,0,1-5.24-26.62,65.82,65.82,0,0,1,5.24-26.29,67.6,67.6,0,0,1,14.2-21.23,65.24,65.24,0,0,1,21.27-14.19,67.36,67.36,0,0,1,26.39-5.17,73.12,73.12,0,0,1,27.61,5.28A61,61,0,0,1,1397,196.29l-21.34,21.78a41.74,41.74,0,0,0-11.77-10.56q-6.93-4.19-16.83-4.18a31.7,31.7,0,0,0-13.75,3.08,38.16,38.16,0,0,0-19.25,20.46,40.14,40.14,0,0,0,7.7,42.13,36.66,36.66,0,0,0,11.44,8.25,32.44,32.44,0,0,0,13.86,3.08,33.32,33.32,0,0,0,17.16-4.51,36.66,36.66,0,0,0,12.32-11.55Z" style="fill:#243748"/></svg>
