<svg xmlns="http://www.w3.org/2000/svg" xmlns:xlink="http://www.w3.org/1999/xlink" viewBox="0 0 359.76 51.74"><defs><style>.cls-1{fill:url(#Новый_образец_градиента_2);}.cls-2{fill:url(#Новый_образец_градиента_2-2);}.cls-3{fill:url(#Новый_образец_градиента_2-3);}.cls-4{fill:url(#Новый_образец_градиента_2-4);}.cls-5{fill:url(#Новый_образец_градиента_2-5);}.cls-6{fill:url(#Новый_образец_градиента_2-6);}.cls-7{fill:#415260;}</style><linearGradient id="Новый_образец_градиента_2" x1="13.91" y1="26.5" x2="278.66" y2="9.77" gradientUnits="userSpaceOnUse"><stop offset="0" stop-color="#358a75"/><stop offset="0.1" stop-color="#429a6b"/><stop offset="0.32" stop-color="#58b55b"/><stop offset="0.54" stop-color="#68c84f"/><stop offset="0.76" stop-color="#72d348"/><stop offset="1" stop-color="#75d746"/></linearGradient><linearGradient id="Новый_образец_градиента_2-2" x1="13.91" y1="26.5" x2="278.66" y2="9.77" xlink:href="#Новый_образец_градиента_2"/><linearGradient id="Новый_образец_градиента_2-3" x1="15.09" y1="29.17" x2="279.84" y2="12.45" xlink:href="#Новый_образец_градиента_2"/><linearGradient id="Новый_образец_градиента_2-4" x1="15.09" y1="29.17" x2="279.84" y2="12.45" xlink:href="#Новый_образец_градиента_2"/><linearGradient id="Новый_образец_градиента_2-5" x1="13.98" y1="31.22" x2="279.14" y2="14.47" xlink:href="#Новый_образец_градиента_2"/><linearGradient id="Новый_образец_градиента_2-6" x1="13.98" y1="31.22" x2="279.13" y2="14.47" xlink:href="#Новый_образец_градиента_2"/></defs><g id="Слой_2" data-name="Слой 2"><g id="Слой_1-2" data-name="Слой 1"><path class="cls-1" d="M46.75,41.05a27.78,27.78,0,0,1-8.93,7,25.38,25.38,0,0,1-11.4,2.55A26,26,0,0,1,8.27,43.33a24.7,24.7,0,0,1-5.46-7.91,24.13,24.13,0,0,1-2-9.78,23.9,23.9,0,0,1,2-9.74A24.91,24.91,0,0,1,8.27,8a25.41,25.41,0,0,1,8.14-5.28,26.09,26.09,0,0,1,10-1.92A27.84,27.84,0,0,1,37.94,3.16,23.45,23.45,0,0,1,46.75,10l-6.3,6.3a14.64,14.64,0,0,0-6-4.95,19,19,0,0,0-8.07-1.71,15.67,15.67,0,0,0-6.32,1.29,16.9,16.9,0,0,0-5.19,3.48,16.47,16.47,0,0,0-3.51,5.1,15,15,0,0,0-1.29,6.14,15.15,15.15,0,0,0,1.29,6.21A16.47,16.47,0,0,0,14.91,37a16.9,16.9,0,0,0,5.19,3.48,15.83,15.83,0,0,0,6.32,1.28,16.88,16.88,0,0,0,14-7Z"/><path class="cls-2" d="M26.42,51.41A26.8,26.8,0,0,1,7.7,43.92a25.73,25.73,0,0,1-5.64-8.17A25,25,0,0,1,0,25.64,24.66,24.66,0,0,1,2.07,15.57,25.64,25.64,0,0,1,7.7,7.43,26.47,26.47,0,0,1,16.1,2,27.13,27.13,0,0,1,26.42,0,28.75,28.75,0,0,1,38.27,2.41a24.24,24.24,0,0,1,9.12,7.07l.46.57-7.5,7.51-.57-.8a13.89,13.89,0,0,0-5.63-4.67,18.16,18.16,0,0,0-7.73-1.64,15,15,0,0,0-6,1.23,15.74,15.74,0,0,0-8.27,8.15,14.21,14.21,0,0,0-1.22,5.81,14.37,14.37,0,0,0,1.22,5.88,15.83,15.83,0,0,0,8.27,8.15,15,15,0,0,0,6,1.23A16.15,16.15,0,0,0,39.8,34.27l.56-.76L47.87,41l-.49.57a28.79,28.79,0,0,1-9.2,7.19A26.3,26.3,0,0,1,26.42,51.41Zm0-49.77a25.31,25.31,0,0,0-9.7,1.86A24.66,24.66,0,0,0,8.84,8.6a24.31,24.31,0,0,0-5.28,7.63,23.32,23.32,0,0,0-1.92,9.41,23.39,23.39,0,0,0,1.93,9.45,24,24,0,0,0,5.27,7.66,25.24,25.24,0,0,0,7.89,5.13,24.87,24.87,0,0,0,9.69,1.89,24.74,24.74,0,0,0,11-2.46,27.12,27.12,0,0,0,8.18-6.22L40.53,36a17.87,17.87,0,0,1-5.73,4.62,18.08,18.08,0,0,1-8.38,1.92,16.61,16.61,0,0,1-6.65-1.35,17.76,17.76,0,0,1-5.43-3.65,17.23,17.23,0,0,1-3.69-5.35,16.35,16.35,0,0,1,0-13,17.46,17.46,0,0,1,3.69-5.35,17.76,17.76,0,0,1,5.43-3.65,16.58,16.58,0,0,1,6.65-1.35,19.87,19.87,0,0,1,8.41,1.78A15.67,15.67,0,0,1,40.54,15l5.11-5.1a22.61,22.61,0,0,0-8-6A27.08,27.08,0,0,0,26.42,1.64Z"/><path class="cls-3" d="M86.41,37.06a11.67,11.67,0,0,1-1.17,5.12A14,14,0,0,1,82,46.49a15.84,15.84,0,0,1-5,3,17.55,17.55,0,0,1-6.36,1.11A29.48,29.48,0,0,1,60.39,49a26.75,26.75,0,0,1-8.16-4.86l6.6-6.65a20.4,20.4,0,0,0,5.6,3.45,16.2,16.2,0,0,0,5.79,1,7.24,7.24,0,0,0,4.71-1.49,4.52,4.52,0,0,0,1.83-3.6,4.36,4.36,0,0,0-.45-2,5.33,5.33,0,0,0-1.59-1.77,17,17,0,0,0-3.06-1.77,51.44,51.44,0,0,0-4.86-1.92,45.93,45.93,0,0,1-5.06-2.19,17.48,17.48,0,0,1-4.26-3,13.64,13.64,0,0,1-2.94-4.08,12.76,12.76,0,0,1-1.11-5.52,12.74,12.74,0,0,1,1.23-5.61A13.43,13.43,0,0,1,58,4.69a15.65,15.65,0,0,1,5-2.85,18.1,18.1,0,0,1,6.14-1,26,26,0,0,1,9.3,1.45A20.3,20.3,0,0,1,85.15,6.5l-6.47,6.55a13,13,0,0,0-4-2.67,13.63,13.63,0,0,0-5.22-.93,7.79,7.79,0,0,0-2.55.42,6.82,6.82,0,0,0-2,1.11,5.79,5.79,0,0,0-1.34,1.59A3.82,3.82,0,0,0,63,14.48a4.45,4.45,0,0,0,.48,2.07,5.19,5.19,0,0,0,1.62,1.77,19.06,19.06,0,0,0,3,1.73q1.89.9,4.71,1.92a41.05,41.05,0,0,1,6.3,2.87,16.8,16.8,0,0,1,4.19,3.33,11.27,11.27,0,0,1,2.34,4A15.54,15.54,0,0,1,86.41,37.06Z"/><path class="cls-4" d="M70.64,51.41A30.48,30.48,0,0,1,60.1,49.74a27.79,27.79,0,0,1-8.4-5L51,44.16l7.75-7.81.57.48a19.8,19.8,0,0,0,5.38,3.31,15.24,15.24,0,0,0,5.49,1,6.43,6.43,0,0,0,4.19-1.32,3.69,3.69,0,0,0,1.53-3,3.44,3.44,0,0,0-.37-1.61,4.43,4.43,0,0,0-1.35-1.49,16.2,16.2,0,0,0-2.91-1.68,50.19,50.19,0,0,0-4.77-1.88A45.27,45.27,0,0,1,61.37,28a18.58,18.58,0,0,1-4.46-3.1,14.63,14.63,0,0,1-3.11-4.32,13.58,13.58,0,0,1-1.19-5.87,13.59,13.59,0,0,1,1.31-6,14.25,14.25,0,0,1,3.57-4.64,16.33,16.33,0,0,1,5.23-3A19,19,0,0,1,69.14,0a27.2,27.2,0,0,1,9.59,1.5,21.11,21.11,0,0,1,7,4.4l.6.58-7.63,7.73-.58-.57a12.28,12.28,0,0,0-3.77-2.5,12.77,12.77,0,0,0-4.9-.87,6.63,6.63,0,0,0-2.27.38,5.9,5.9,0,0,0-1.77,1A4.92,4.92,0,0,0,64.25,13a3,3,0,0,0-.41,1.52,3.56,3.56,0,0,0,.39,1.68,4.62,4.62,0,0,0,1.38,1.49,18.35,18.35,0,0,0,2.89,1.65c1.26.6,2.82,1.23,4.64,1.89a41.86,41.86,0,0,1,6.43,2.93A18.11,18.11,0,0,1,84,27.62a12.25,12.25,0,0,1,2.5,4.3,16.36,16.36,0,0,1,.76,5.14A12.48,12.48,0,0,1,86,42.53a14.79,14.79,0,0,1-3.46,4.57,16.82,16.82,0,0,1-5.23,3.15A18.46,18.46,0,0,1,70.64,51.41Zm-17.2-7.36a25.79,25.79,0,0,0,7.23,4.15,28.9,28.9,0,0,0,10,1.57,16.76,16.76,0,0,0,6.06-1.05,15.28,15.28,0,0,0,4.73-2.84,13.37,13.37,0,0,0,3.08-4.06,10.91,10.91,0,0,0,1.08-4.76,14.62,14.62,0,0,0-.68-4.63,10.51,10.51,0,0,0-2.17-3.72,16.1,16.1,0,0,0-4-3.16,40.38,40.38,0,0,0-6.17-2.81c-1.85-.67-3.46-1.33-4.77-1.95A20.06,20.06,0,0,1,64.64,19a6.1,6.1,0,0,1-1.86-2.05,5.25,5.25,0,0,1-.57-2.44,4.63,4.63,0,0,1,.61-2.32,6.52,6.52,0,0,1,1.54-1.82A7.71,7.71,0,0,1,66.62,9.1a8.3,8.3,0,0,1,2.82-.46,14.34,14.34,0,0,1,5.54,1,13.67,13.67,0,0,1,3.67,2.29L84,6.53A19.64,19.64,0,0,0,78.14,3a25.52,25.52,0,0,0-9-1.39,17.26,17.26,0,0,0-5.87,1,14.65,14.65,0,0,0-4.71,2.7A12.47,12.47,0,0,0,55.4,9.42a12,12,0,0,0-1.15,5.25,12.07,12.07,0,0,0,1,5.17A12.76,12.76,0,0,0,58,23.67a16.88,16.88,0,0,0,4.07,2.83,44.06,44.06,0,0,0,5,2.15,52.32,52.32,0,0,1,4.93,2,17.27,17.27,0,0,1,3.2,1.86A6,6,0,0,1,77,34.52a5.07,5.07,0,0,1,.54,2.34,5.33,5.33,0,0,1-2.13,4.23,8,8,0,0,1-5.23,1.68,16.94,16.94,0,0,1-6.08-1.1,20.58,20.58,0,0,1-5.25-3.11Z"/><path class="cls-5" d="M126.54,17.88a16.75,16.75,0,0,1-4.81,11.85,15.84,15.84,0,0,1-5.23,3.51,16.31,16.31,0,0,1-6.37,1.26H102.2V50.57H92.9V1.31h17.24a15.82,15.82,0,0,1,6.37,1.3,16.7,16.7,0,0,1,5.23,3.51,16.46,16.46,0,0,1,4.8,11.76Zm-9.29-.13a9.23,9.23,0,0,0-.69-3.57,9,9,0,0,0-1.89-2.89,9.23,9.23,0,0,0-2.82-2,8.33,8.33,0,0,0-3.48-.74H102.2V27.17h6.17a7.91,7.91,0,0,0,3.48-.77,9.16,9.16,0,0,0,2.82-2.06,9.74,9.74,0,0,0,1.89-3A9.46,9.46,0,0,0,117.25,17.75Z"/><path class="cls-6" d="M103,51.41H92.08V.47h18.06a16.88,16.88,0,0,1,6.69,1.36,17.84,17.84,0,0,1,5.48,3.68A17.61,17.61,0,0,1,126,11a17.4,17.4,0,0,1,1.36,6.87,17.62,17.62,0,0,1-5,12.45,16.82,16.82,0,0,1-5.5,3.68,17.13,17.13,0,0,1-6.68,1.33H103Zm-9.3-1.68h7.66V33.66h8.75a15.64,15.64,0,0,0,6.06-1.2,15.45,15.45,0,0,0,5-3.33,16.13,16.13,0,0,0,3.34-5,15.9,15.9,0,0,0,1.22-6.22,15.59,15.59,0,0,0-4.56-11.16,15.86,15.86,0,0,0-5-3.34,15.29,15.29,0,0,0-6-1.23H93.72ZM108.37,28h-7V7.74h7a9.08,9.08,0,0,1,3.81.81,10.09,10.09,0,0,1,3.07,2.14,10.28,10.28,0,0,1,2.06,3.16,10.15,10.15,0,0,1,.76,3.9,10.34,10.34,0,0,1-.76,3.93,10.56,10.56,0,0,1-2,3.24,10.2,10.2,0,0,1-3.06,2.25A8.86,8.86,0,0,1,108.37,28ZM103,26.33h5.35a7.25,7.25,0,0,0,3.14-.69,8.4,8.4,0,0,0,2.56-1.88A8.87,8.87,0,0,0,115.8,21a8.55,8.55,0,0,0,.63-3.28,8.42,8.42,0,0,0-2.34-5.87,8.53,8.53,0,0,0-2.57-1.79,7.42,7.42,0,0,0-3.15-.67H103Z"/><path class="cls-7" d="M158.53,37.64c0,.43,0,.88-.07,1.34s-.1.94-.16,1.43H136.93a9.22,9.22,0,0,0,1,2.2,7.4,7.4,0,0,0,1.64,1.8,7.68,7.68,0,0,0,2.2,1.2,7.82,7.82,0,0,0,2.71.44,11,11,0,0,0,3.65-.6,8.75,8.75,0,0,0,3-1.71l4.2,4.21a16.65,16.65,0,0,1-5.17,2.91,18.41,18.41,0,0,1-5.87.88,14.2,14.2,0,0,1-5.62-1.11,14.48,14.48,0,0,1-4.54-3,14.31,14.31,0,0,1-3-4.47,14.2,14.2,0,0,1,0-11,14,14,0,0,1,3.06-4.46,14.67,14.67,0,0,1,4.53-3,13.93,13.93,0,0,1,5.55-1.11,14.68,14.68,0,0,1,10,3.93A13.46,13.46,0,0,1,157.37,32,13.69,13.69,0,0,1,158.53,37.64Zm-7-2.59A7.94,7.94,0,0,0,148.75,31a7.23,7.23,0,0,0-4.56-1.55A7.05,7.05,0,0,0,139.71,31a8,8,0,0,0-2.78,4.09Z"/><path class="cls-7" d="M186.59,24.23l-10,26.87H170L159.91,24.23h7.31l6.06,18,6.06-18Z"/><path class="cls-7" d="M211.29,51.05h-6.66V49.61a10.93,10.93,0,0,1-3.73,1.67,17.38,17.38,0,0,1-4,.46,10.08,10.08,0,0,1-3.52-.58,7.93,7.93,0,0,1-2.72-1.66,7.33,7.33,0,0,1-1.78-2.57,8.27,8.27,0,0,1-.63-3.28,7.55,7.55,0,0,1,1-3.95,8.57,8.57,0,0,1,2.7-2.83,12.69,12.69,0,0,1,4-1.68,20.91,20.91,0,0,1,4.93-.56h3.84a4.93,4.93,0,0,0-1.53-3.77,6.24,6.24,0,0,0-4.39-1.41,8.24,8.24,0,0,0-3,.58,9.5,9.5,0,0,0-2.8,1.78l-3.93-4a15.53,15.53,0,0,1,10.68-4.26,13,13,0,0,1,4.94.88,10.15,10.15,0,0,1,6,6.22,18.5,18.5,0,0,1,.71,5.57Zm-6.66-6.66v-5h-3.06a16.69,16.69,0,0,0-2.61.19,7.34,7.34,0,0,0-2.12.62,3.93,3.93,0,0,0-1.44,1.13,2.71,2.71,0,0,0-.53,1.67A2.76,2.76,0,0,0,196,45.31a4.29,4.29,0,0,0,2.8.88,9.58,9.58,0,0,0,2.93-.46A14.69,14.69,0,0,0,204.63,44.39Z"/><path class="cls-7" d="M228.39,50.91a8.25,8.25,0,0,1-1.78.6,8.71,8.71,0,0,1-2.05.23,10.32,10.32,0,0,1-2.85-.39,6.28,6.28,0,0,1-2.38-1.27,6.16,6.16,0,0,1-1.62-2.29,8.65,8.65,0,0,1-.6-3.4V12.67h6.8V43.23a3.06,3.06,0,0,0,.67,2.29,2.25,2.25,0,0,0,1.59.63,3.93,3.93,0,0,0,2.22-.7Z"/><path class="cls-7" d="M256,51.05h-6.66V49a7.23,7.23,0,0,1-1.5,1.14A15.62,15.62,0,0,1,246,51a11.12,11.12,0,0,1-1.95.56,10.53,10.53,0,0,1-1.87.18,11.92,11.92,0,0,1-3.91-.64,9.06,9.06,0,0,1-3.3-2,9.69,9.69,0,0,1-2.29-3.49,13.49,13.49,0,0,1-.86-5V24.23h6.66v16a6.79,6.79,0,0,0,.44,2.52,5.32,5.32,0,0,0,1.16,1.8,4.75,4.75,0,0,0,1.66,1.09,5.29,5.29,0,0,0,2,.37,7.91,7.91,0,0,0,5.6-2.27V24.23H256Z"/><path class="cls-7" d="M283.7,51.05H277V49.61a10.93,10.93,0,0,1-3.73,1.67,17.44,17.44,0,0,1-4,.46,10,10,0,0,1-3.52-.58A7.84,7.84,0,0,1,263,49.5a7.2,7.2,0,0,1-1.78-2.57,8.27,8.27,0,0,1-.63-3.28,7.65,7.65,0,0,1,1-3.95,8.71,8.71,0,0,1,2.71-2.83,12.69,12.69,0,0,1,4-1.68,20.91,20.91,0,0,1,4.93-.56h3.83a4.93,4.93,0,0,0-1.52-3.77,6.25,6.25,0,0,0-4.4-1.41,8.23,8.23,0,0,0-3,.58,9.37,9.37,0,0,0-2.8,1.78l-3.93-4a15.53,15.53,0,0,1,10.68-4.26,13,13,0,0,1,4.94.88,10,10,0,0,1,3.5,2.27A9.81,9.81,0,0,1,283,30.68a18.15,18.15,0,0,1,.72,5.57ZM277,44.39v-5H274a16.69,16.69,0,0,0-2.61.19,7.34,7.34,0,0,0-2.12.62,3.93,3.93,0,0,0-1.44,1.13,2.71,2.71,0,0,0-.53,1.67,2.76,2.76,0,0,0,1.09,2.26,4.26,4.26,0,0,0,2.79.88,9.6,9.6,0,0,0,2.94-.46A14.69,14.69,0,0,0,277,44.39Z"/><path class="cls-7" d="M304.18,50.45a8,8,0,0,1-2.36,1,11.68,11.68,0,0,1-2.68.32,11.82,11.82,0,0,1-4-.58,5.61,5.61,0,0,1-2.59-1.78,7.7,7.7,0,0,1-1.41-3.05,19.12,19.12,0,0,1-.44-4.35V29.73h-3.51v-2.5a12.49,12.49,0,0,0,5.25-3.95,15.44,15.44,0,0,0,2.75-6.82h2.17v7.77h6.75v5.5h-6.75V42.45a4.61,4.61,0,0,0,.25,1.66,2.75,2.75,0,0,0,.67,1,2.38,2.38,0,0,0,.95.51,4.68,4.68,0,0,0,1.14.14,8.3,8.3,0,0,0,1.89-.28,4.7,4.7,0,0,0,1.9-.93Z"/><path class="cls-7" d="M335.71,37.69a13.88,13.88,0,0,1-1.11,5.57,13.38,13.38,0,0,1-3.05,4.44A14.54,14.54,0,0,1,327,50.65a14.09,14.09,0,0,1-5.55,1.09,14.51,14.51,0,0,1-10.13-4.07,13.84,13.84,0,0,1-4.16-10,13.4,13.4,0,0,1,1.14-5.49,14.19,14.19,0,0,1,13.15-8.57A14.26,14.26,0,0,1,327,24.71a14.56,14.56,0,0,1,4.53,3,13.36,13.36,0,0,1,3.05,4.46A14,14,0,0,1,335.71,37.69Zm-6.65,0a8.46,8.46,0,0,0-2.24-5.78,7.44,7.44,0,0,0-2.42-1.74,7.33,7.33,0,0,0-5.9,0,7.33,7.33,0,0,0-2.42,1.74,8.12,8.12,0,0,0-1.64,2.58,8.47,8.47,0,0,0-.6,3.2,8.44,8.44,0,0,0,2.24,5.78,7.6,7.6,0,0,0,2.42,1.73,7.33,7.33,0,0,0,5.9,0,7.72,7.72,0,0,0,2.42-1.73,8.48,8.48,0,0,0,1.63-2.6A8.15,8.15,0,0,0,329.06,37.69Z"/><path class="cls-7" d="M359.76,27.1l-3.56,5.64a12.39,12.39,0,0,0-2.15-1.88,4.18,4.18,0,0,0-2.38-.81,4.06,4.06,0,0,0-1.41.3,4.31,4.31,0,0,0-1.44,1,5.77,5.77,0,0,0-1.13,1.83,7.33,7.33,0,0,0-.46,2.79V51.05h-6.66V24.23h6.66v3a9.65,9.65,0,0,1,2.66-2.64,6,6,0,0,1,3.26-.92,7,7,0,0,1,3.44.94A13.51,13.51,0,0,1,359.76,27.1Z"/></g></g></svg>