<svg xmlns="http://www.w3.org/2000/svg" xmlns:xlink="http://www.w3.org/1999/xlink" viewBox="0 0 450.13 63.85"><defs><linearGradient id="Новый_образец_градиента_2" x1="13.83" x2="276.92" y1="26.33" y2="9.71" gradientUnits="userSpaceOnUse"><stop offset="0" stop-color="#358a75"/><stop offset=".1" stop-color="#429a6b"/><stop offset=".32" stop-color="#58b55b"/><stop offset=".54" stop-color="#68c84f"/><stop offset=".76" stop-color="#72d348"/><stop offset="1" stop-color="#75d746"/></linearGradient><linearGradient id="Новый_образец_градиента_2-2" x1="13.83" x2="276.92" y1="26.33" y2="9.71" xlink:href="#Новый_образец_градиента_2"/><linearGradient id="Новый_образец_градиента_2-3" x1="14.99" x2="278.09" y1="28.98" y2="12.37" xlink:href="#Новый_образец_градиента_2"/><linearGradient id="Новый_образец_градиента_2-4" x1="14.99" x2="278.09" y1="28.98" y2="12.37" xlink:href="#Новый_образец_градиента_2"/><linearGradient id="Новый_образец_градиента_2-5" x1="13.89" x2="277.4" y1="31.02" y2="14.38" xlink:href="#Новый_образец_градиента_2"/><linearGradient id="Новый_образец_градиента_2-6" x1="13.89" x2="277.39" y1="31.02" y2="14.38" xlink:href="#Новый_образец_градиента_2"/></defs><g id="Слой_2" data-name="Слой 2"><g id="Слой_1-2" data-name="Слой 1"><path fill="url(#Новый_образец_градиента_2)" d="M46.46 40.8a27.58 27.58 0 01-8.88 6.94 25.19 25.19 0 01-11.32 2.53 25.76 25.76 0 01-18-7.21A24.49 24.49 0 012.8 35.2a23.84 23.84 0 01-2-9.72 23.62 23.62 0 012-9.68A24.58 24.58 0 018.22 8a25.11 25.11 0 018.09-5.25 25.93 25.93 0 0110-1.91 27.66 27.66 0 0111.39 2.3 23.26 23.26 0 018.76 6.79l-6.26 6.26a14.61 14.61 0 00-5.93-4.92 18.83 18.83 0 00-8-1.7A15.53 15.53 0 0020 10.86a16.63 16.63 0 00-5.15 3.45 16.28 16.28 0 00-3.49 5.07 14.93 14.93 0 00-1.28 6.1 15.08 15.08 0 001.28 6.17 16.28 16.28 0 003.49 5.07A16.63 16.63 0 0020 40.17a15.52 15.52 0 006.29 1.28 16.8 16.8 0 0013.91-6.91z"/><path fill="url(#Новый_образец_градиента_2-2)" d="M26.26 51.09a26.69 26.69 0 01-18.61-7.44 25.61 25.61 0 01-5.6-8.13 24.83 24.83 0 01-2-10 24.69 24.69 0 012.05-10 25.77 25.77 0 015.6-8.09A26.25 26.25 0 0116 2a26.78 26.78 0 0110.26-2A28.76 28.76 0 0138 2.39a24.26 24.26 0 019.07 7l.45.57-7.46 7.46-.55-.79A13.93 13.93 0 0033.93 12a18 18 0 00-7.67-1.62 14.94 14.94 0 00-6 1.21 16 16 0 00-4.91 3.29 15.63 15.63 0 00-3.31 4.82 14 14 0 00-1.21 5.77 14.17 14.17 0 001.21 5.84 15.4 15.4 0 003.31 4.82 16 16 0 004.91 3.29 14.94 14.94 0 006 1.21 16.06 16.06 0 0013.29-6.58l.56-.76 7.46 7.45-.49.57a28.44 28.44 0 01-9.14 7.15 26.11 26.11 0 01-11.68 2.63zm0-49.46a25.34 25.34 0 00-9.64 1.84 24.55 24.55 0 00-7.83 5.08 24 24 0 00-5.25 7.58 23 23 0 00-1.91 9.35 23.25 23.25 0 001.91 9.39 23.91 23.91 0 005.25 7.61 25.06 25.06 0 0017.47 7 24.46 24.46 0 0011-2.45 26.87 26.87 0 008.12-6.17l-5.06-5.07a17.68 17.68 0 01-14 6.5 16.56 16.56 0 01-6.61-1.35 17.54 17.54 0 01-5.4-3.62A17.24 17.24 0 0110.59 32a16.15 16.15 0 010-12.93 17.24 17.24 0 013.66-5.32 17.54 17.54 0 015.4-3.62 16.39 16.39 0 016.61-1.35 19.82 19.82 0 018.36 1.77A15.65 15.65 0 0140.29 15l5.07-5.07a22.64 22.64 0 00-8-6 27.1 27.1 0 00-11.1-2.3z"/><path fill="url(#Новый_образец_градиента_2-3)" d="M85.87 36.83a11.46 11.46 0 01-1.16 5.08 13.85 13.85 0 01-3.25 4.29 15.65 15.65 0 01-4.94 3 17.37 17.37 0 01-6.32 1.1A29.18 29.18 0 0160 48.66a26.55 26.55 0 01-8.1-4.82l6.55-6.62A20.27 20.27 0 0064 40.65a15.81 15.81 0 005.75 1 7.1 7.1 0 004.68-1.49 4.48 4.48 0 001.82-3.57 4.32 4.32 0 00-.45-2 5.36 5.36 0 00-1.58-1.76 16.48 16.48 0 00-3-1.75 48.9 48.9 0 00-4.82-1.91 45.56 45.56 0 01-5-2.18 17.27 17.27 0 01-4.23-2.95 13.45 13.45 0 01-2.92-4.05 12.58 12.58 0 01-1.1-5.48A12.56 12.56 0 0154.32 9a13.19 13.19 0 013.34-4.35 15.51 15.51 0 014.94-2.82 17.93 17.93 0 016.11-1A25.89 25.89 0 0178 2.26a20.15 20.15 0 016.67 4.2L78.18 13a12.93 12.93 0 00-4-2.65A13.24 13.24 0 0069 9.4a7.58 7.58 0 00-2.53.41 6.85 6.85 0 00-2 1.1 5.73 5.73 0 00-1.34 1.58 3.79 3.79 0 00-.51 1.9 4.4 4.4 0 00.48 2.06 5.21 5.21 0 001.61 1.75 18.59 18.59 0 003 1.73c1.25.59 2.81 1.23 4.67 1.9a41.46 41.46 0 016.26 2.86A16.61 16.61 0 0182.83 28a11.25 11.25 0 012.33 4 15.64 15.64 0 01.71 4.83z"/><path fill="url(#Новый_образец_градиента_2-4)" d="M70.2 51.09a30.31 30.31 0 01-10.47-1.66 27.54 27.54 0 01-8.35-5l-.67-.57 7.7-7.77.57.48a19.79 19.79 0 005.34 3.29 15.11 15.11 0 005.46 1 6.34 6.34 0 004.16-1.31 3.67 3.67 0 001.53-2.94A3.52 3.52 0 0075.1 35a4.48 4.48 0 00-1.34-1.48 16.08 16.08 0 00-2.89-1.67c-1.23-.57-2.82-1.2-4.75-1.87A48.24 48.24 0 0161 27.79a18.76 18.76 0 01-4.42-3.08 14.43 14.43 0 01-3.09-4.3 13.39 13.39 0 01-1.18-5.83 13.59 13.59 0 011.29-5.93A14.32 14.32 0 0157.13 4a16.32 16.32 0 015.2-3 19 19 0 016.38-1 26.66 26.66 0 019.53 1.5 21.05 21.05 0 016.94 4.36l.6.58-7.58 7.68-.58-.56a12.11 12.11 0 00-3.74-2.49 12.62 12.62 0 00-4.88-.86 6.53 6.53 0 00-2.26.37 6.05 6.05 0 00-1.76 1 5 5 0 00-1.14 1.35 3 3 0 00-.4 1.5 3.55 3.55 0 00.38 1.68 4.44 4.44 0 001.37 1.48 18.24 18.24 0 002.88 1.64c1.24.59 2.79 1.22 4.6 1.88a42.32 42.32 0 016.4 2.89 17.88 17.88 0 014.37 3.47 12.1 12.1 0 012.49 4.27 16.46 16.46 0 01.76 5.11 12.36 12.36 0 01-1.25 5.44A14.69 14.69 0 0182 46.8a16.62 16.62 0 01-5.2 3.13 18.28 18.28 0 01-6.6 1.16zm-17.09-7.31a25.68 25.68 0 007.18 4.12 28.83 28.83 0 009.91 1.56 16.58 16.58 0 006-1.05 14.9 14.9 0 004.7-2.82 13.18 13.18 0 003.06-4 10.78 10.78 0 001.08-4.73 14.72 14.72 0 00-.68-4.6 10.55 10.55 0 00-2.16-3.7 16.1 16.1 0 00-4-3.14 40.27 40.27 0 00-6.13-2.8 51 51 0 01-4.74-1.93 19.06 19.06 0 01-3.14-1.8 5.94 5.94 0 01-1.85-2 5.18 5.18 0 01-.57-2.43 4.58 4.58 0 01.61-2.3A6.59 6.59 0 0164 10.28a7.56 7.56 0 012.2-1.23 8.29 8.29 0 012.8-.47 14.17 14.17 0 015.5 1 13.5 13.5 0 013.65 2.27l5.28-5.35A19.11 19.11 0 0077.66 3a25.26 25.26 0 00-9-1.39 17.27 17.27 0 00-5.83 1 14.71 14.71 0 00-4.69 2.69A12.44 12.44 0 0055 9.38a12 12 0 00-1.14 5.22 11.85 11.85 0 001 5.13 12.49 12.49 0 002.74 3.81 16.66 16.66 0 004 2.82 44.7 44.7 0 005 2.13 52.4 52.4 0 014.89 1.94 17.39 17.39 0 013.18 1.85 6.06 6.06 0 011.82 2 5.18 5.18 0 01.53 2.33A5.29 5.29 0 0175 40.83a8 8 0 01-5.2 1.68 16.72 16.72 0 01-6-1.1 20.34 20.34 0 01-5.22-3.09z"/><path fill="url(#Новый_образец_градиента_2-5)" d="M125.75 17.76A16.59 16.59 0 01121 29.54a15.81 15.81 0 01-5.2 3.49 16.28 16.28 0 01-6.33 1.25h-7.88v16h-9.27V1.31h17.13a15.78 15.78 0 016.33 1.28A16.68 16.68 0 01121 6.08a16.35 16.35 0 014.77 11.68zm-9.24-.12a9.13 9.13 0 00-.68-3.55 8.93 8.93 0 00-1.83-2.87 9.12 9.12 0 00-2.8-2 8.18 8.18 0 00-3.45-.73h-6.14V27h6.14a7.91 7.91 0 003.45-.76 9.21 9.21 0 002.8-2 9.74 9.74 0 001.88-3 9.31 9.31 0 00.63-3.6z"/><path fill="url(#Новый_образец_градиента_2-6)" d="M102.37 51.09H91.51V.47h17.94a16.68 16.68 0 016.65 1.35 17.31 17.31 0 015.44 3.66 17.18 17.18 0 015 12.28 17.51 17.51 0 01-5 12.38 16.65 16.65 0 01-5.46 3.66 16.92 16.92 0 01-6.64 1.32h-7.07zm-9.23-1.67h7.61v-16h8.69a15.26 15.26 0 006-1.2 14.85 14.85 0 004.94-3.31 15.77 15.77 0 004.54-11.18 15.54 15.54 0 00-4.53-11.08 15.9 15.9 0 00-4.94-3.32 15.14 15.14 0 00-6-1.22H93.14zm14.56-21.58h-7V7.69h7a8.94 8.94 0 013.78.81 9.84 9.84 0 015.1 5.26 10.46 10.46 0 010 7.78 10.44 10.44 0 01-2 3.22 9.91 9.91 0 01-3 2.24 8.94 8.94 0 01-3.88.84zm-5.33-1.67h5.33a7.29 7.29 0 003.11-.69 8.29 8.29 0 002.55-1.87 9.06 9.06 0 001.72-2.71 8.64 8.64 0 00.62-3.26 8.36 8.36 0 00-.62-3.22 8.21 8.21 0 00-1.71-2.61 8.32 8.32 0 00-2.55-1.81 7.43 7.43 0 00-3.12-.66h-5.33z"/><path d="M158.13 37.59c0 .43 0 .88-.07 1.34s-.1.94-.16 1.43h-21.36a9.37 9.37 0 001 2.2 7.6 7.6 0 001.64 1.8 7.8 7.8 0 004.94 1.64 11 11 0 003.65-.6 8.75 8.75 0 003-1.71l4.21 4.21a16.69 16.69 0 01-5.18 2.91 18.41 18.41 0 01-5.87.88 14.35 14.35 0 01-10.15-4.12 14 14 0 01-3-4.46 14.08 14.08 0 010-11 13.83 13.83 0 013-4.46 14.91 14.91 0 014.53-3 14 14 0 015.55-1.11 14.27 14.27 0 015.41 1 14.53 14.53 0 014.58 2.89 13.53 13.53 0 014.3 10.08zm-7-2.59a8 8 0 00-2.8-4.09 7.23 7.23 0 00-4.56-1.55 7.05 7.05 0 00-4.48 1.55 8 8 0 00-2.75 4.09zM186.2 24.18L176.21 51h-6.57l-10.12-26.82h7.3l6.06 18 6.06-18zM210.89 51h-6.66v-1.44a11.08 11.08 0 01-3.72 1.67 17.53 17.53 0 01-4 .46 10 10 0 01-3.51-.58 7.89 7.89 0 01-2.73-1.66 7.56 7.56 0 01-1.78-2.57 8.27 8.27 0 01-.63-3.28 7.65 7.65 0 011-4 8.57 8.57 0 012.7-2.83 12.69 12.69 0 014-1.68 20.91 20.91 0 014.93-.56h3.84a4.88 4.88 0 00-1.53-3.77 6.24 6.24 0 00-4.39-1.41 8.24 8.24 0 00-3 .58 9.5 9.5 0 00-2.8 1.78l-3.93-4a15.66 15.66 0 015-3.16 15.29 15.29 0 015.71-1.09 13 13 0 014.94.88 9.9 9.9 0 013.5 2.26 10 10 0 012.46 4 18.5 18.5 0 01.71 5.57zm-6.66-6.66v-5h-3a16.51 16.51 0 00-2.61.19 7.32 7.32 0 00-2.13.62 3.89 3.89 0 00-1.49 1.18 2.63 2.63 0 00-.54 1.67 2.78 2.78 0 001.09 2.26 4.29 4.29 0 002.8.88 9.58 9.58 0 002.93-.46 14.69 14.69 0 002.95-1.34zM228 50.86a9.25 9.25 0 01-3.84.83 10.32 10.32 0 01-2.85-.39 6.5 6.5 0 01-2.38-1.3 6.28 6.28 0 01-1.62-2.29 8.69 8.69 0 01-.6-3.4V12.62h6.8v30.56a3.06 3.06 0 00.67 2.29 2.26 2.26 0 001.6.63 4.06 4.06 0 002.22-.7zM255.6 51h-6.66v-2a7.23 7.23 0 01-1.5 1.14 14.87 14.87 0 01-1.8.85 10.88 10.88 0 01-1.95.56 10.53 10.53 0 01-1.87.18 11.67 11.67 0 01-3.91-.65 9 9 0 01-3.3-2 9.69 9.69 0 01-2.29-3.49 13.49 13.49 0 01-.86-5V24.18h6.66v16a6.79 6.79 0 00.44 2.52 5.32 5.32 0 001.16 1.8 4.84 4.84 0 001.66 1.09 5.51 5.51 0 002 .37 7.89 7.89 0 005.59-2.27V24.18h6.66zM283.3 51h-6.66v-1.44a11.08 11.08 0 01-3.72 1.67 17.53 17.53 0 01-4.05.46 10 10 0 01-3.51-.58 7.89 7.89 0 01-2.73-1.66 7.56 7.56 0 01-1.78-2.57 8.27 8.27 0 01-.63-3.28 7.55 7.55 0 011-4 8.57 8.57 0 012.7-2.83 12.69 12.69 0 014-1.68 20.91 20.91 0 014.93-.56h3.84a4.92 4.92 0 00-1.53-3.77 6.24 6.24 0 00-4.39-1.41 8.24 8.24 0 00-3 .58 9.5 9.5 0 00-2.8 1.78l-3.93-4a15.55 15.55 0 015-3.16 15.29 15.29 0 015.71-1.09 13 13 0 014.94.88 10.08 10.08 0 016 6.22 18.5 18.5 0 01.71 5.57zm-6.66-6.66v-5h-3.05a16.73 16.73 0 00-2.62.19 7.34 7.34 0 00-2.12.62 4 4 0 00-1.44 1.13 2.69 2.69 0 00-.53 1.67 2.76 2.76 0 001.12 2.31 4.29 4.29 0 002.8.88 9.58 9.58 0 002.93-.46 14.69 14.69 0 002.91-1.34zM303.78 50.4a7.85 7.85 0 01-2.36 1 11.68 11.68 0 01-2.68.32 11.82 11.82 0 01-4-.58 5.53 5.53 0 01-2.58-1.78 7.64 7.64 0 01-1.42-3 19.12 19.12 0 01-.44-4.35V29.68h-3.51v-2.5a12.49 12.49 0 005.25-3.95 15.37 15.37 0 002.75-6.82H297v7.77h6.76v5.5H297V42.4a4.59 4.59 0 00.26 1.66 2.63 2.63 0 00.67 1 2.27 2.27 0 00.94.51 4.68 4.68 0 001.14.14 8.22 8.22 0 001.89-.28 4.64 4.64 0 001.9-.93zM335.31 37.63a13.73 13.73 0 01-1.11 5.58 13.24 13.24 0 01-3.05 4.43 14.39 14.39 0 01-4.53 3 14.08 14.08 0 01-5.54 1.09 14.27 14.27 0 01-5.58-1.09 14.09 14.09 0 01-4.55-3 13.75 13.75 0 01-3.06-4.46 13.93 13.93 0 01-1.1-5.53 13.38 13.38 0 011.13-5.48 14.19 14.19 0 0113.16-8.57 14.25 14.25 0 015.54 1.08 14.56 14.56 0 014.53 3 13.36 13.36 0 013.05 4.46 13.79 13.79 0 011.11 5.49zm-6.65 0a8.39 8.39 0 00-2.24-5.78 7.56 7.56 0 00-2.42-1.73 7.33 7.33 0 00-5.9 0 7.56 7.56 0 00-2.42 1.73 8.64 8.64 0 00-1.64 9 8.34 8.34 0 001.64 2.59 7.59 7.59 0 002.42 1.74 7.33 7.33 0 005.9 0 7.59 7.59 0 002.42-1.74 8.39 8.39 0 002.24-5.78zM359.36 27.05l-3.56 5.64a12.39 12.39 0 00-2.15-1.88 4.16 4.16 0 00-2.38-.81 3.89 3.89 0 00-1.41.3 4.18 4.18 0 00-1.43 1 5.67 5.67 0 00-1.14 1.82 7.42 7.42 0 00-.46 2.8V51h-6.66V24.18h6.66v3a9.65 9.65 0 012.66-2.64 5.93 5.93 0 013.26-.92 7 7 0 013.45.94 13.68 13.68 0 013.16 2.49zM366 51h-7.08v-7.08H366zM399.17 37.63a13.73 13.73 0 01-1.11 5.58 13.24 13.24 0 01-3.06 4.43 14.39 14.39 0 01-4.53 3 14.09 14.09 0 01-5.55 1.09 14.51 14.51 0 01-10.13-4.07 13.78 13.78 0 01-4.15-10 13.38 13.38 0 011.13-5.48 14.19 14.19 0 0113.15-8.57 14.26 14.26 0 015.55 1.08 14.56 14.56 0 014.53 3 13.36 13.36 0 013.05 4.46 13.79 13.79 0 011.12 5.48zm-6.65 0a8.51 8.51 0 00-2.24-5.78 7.56 7.56 0 00-2.42-1.73 7.33 7.33 0 00-5.9 0 7.56 7.56 0 00-2.42 1.73 8.64 8.64 0 00-1.64 9 8.34 8.34 0 001.64 2.59 7.59 7.59 0 002.46 1.71 7.33 7.33 0 005.9 0 7.59 7.59 0 002.42-1.74 8.51 8.51 0 002.24-5.78zM423.22 27.05l-3.56 5.64a12.39 12.39 0 00-2.15-1.88 4.18 4.18 0 00-2.38-.81 3.89 3.89 0 00-1.41.3 4.31 4.31 0 00-1.44 1 5.83 5.83 0 00-1.13 1.82 7.42 7.42 0 00-.46 2.8V51H404V24.18h6.66v3a9.65 9.65 0 012.66-2.64 5.93 5.93 0 013.26-.92 7 7 0 013.45.94 13.68 13.68 0 013.19 2.49zM450.13 29.63h-2.77a9.69 9.69 0 01.78 2.15 9.83 9.83 0 01.23 2.2 9.3 9.3 0 01-.67 3.49 10.33 10.33 0 01-1.92 3.08 11.17 11.17 0 01-3 2.35 11.77 11.77 0 01-4 1.3 6 6 0 00-2.28.72c-.51.32-.77.64-.77 1s.26.62.77.9a6 6 0 002.28.55 15.68 15.68 0 018 2.59 6.72 6.72 0 012.84 5.64 6.48 6.48 0 01-.88 3.33 7.86 7.86 0 01-2.51 2.64 12.59 12.59 0 01-3.94 1.71 20.4 20.4 0 01-5.15.6 20.94 20.94 0 01-5.23-.6 13.11 13.11 0 01-4-1.69 7.67 7.67 0 01-2.52-2.59 6.61 6.61 0 01-.88-3.38 7 7 0 011.58-4.64 9.81 9.81 0 015.17-2.8 3.32 3.32 0 01-1.6-1.13 2.28 2.28 0 01-.43-1.46 2.35 2.35 0 01.62-1.41 3.69 3.69 0 011.64-1 11.39 11.39 0 01-2.3-1.43 12 12 0 01-2-2 9.37 9.37 0 01-1.4-2.59 9 9 0 01-.49-3.16 9.26 9.26 0 01.92-4.07 10.92 10.92 0 012.5-3.31 12.18 12.18 0 018-3 12.42 12.42 0 014.2.69h9.16zM443 55.57a2.44 2.44 0 00-1.63-2.35 10.2 10.2 0 00-4.22-.74 10 10 0 00-4.35.78 2.49 2.49 0 00.07 4.67 9.94 9.94 0 004.28.79 10.06 10.06 0 004.26-.76 2.52 2.52 0 001.59-2.39zM441.72 34a4.65 4.65 0 00-.4-1.9 5.13 5.13 0 00-1.05-1.54 4.87 4.87 0 00-1.56-1.07 4.65 4.65 0 00-1.9-.39 4.55 4.55 0 00-1.88.39 5.18 5.18 0 00-2.58 2.61A4.65 4.65 0 00432 34a4.78 4.78 0 00.39 1.92 5 5 0 001 1.57 5.14 5.14 0 001.53 1.07 4.55 4.55 0 001.88.39 4.65 4.65 0 001.9-.39 5 5 0 001.56-1.07 5.15 5.15 0 001.05-1.57 4.78 4.78 0 00.41-1.92z" class="cls-7"/></g></g></svg>