<svg xmlns="http://www.w3.org/2000/svg" viewBox="0 0 142.484 47.95">
  <defs><style>.a{fill:#0e1d48;}.b{fill:#26599f;}.c{fill:#26a678;}</style></defs>
  <g transform="translate(-50.866 -793)">
    <path class="a" d="M341.53,255.941a5.261,5.261,0,0,0,1.764.994,6.758,6.758,0,0,0,2.341.385,8.669,8.669,0,0,0,1.668-.16,10.652,10.652,0,0,0,1.315-.417,4.773,4.773,0,0,0,.994-.513c.289-.16.513-.321.706-.449.032,0,.032-.032.032-.064v-3.5a.1.1,0,0,0-.1-.1H346.02a.1.1,0,0,0-.1.1v1.443a.1.1,0,0,0,.1.1h2.566v1.155a9.293,9.293,0,0,1-1.411.577,5.317,5.317,0,0,1-1.572.224,5.574,5.574,0,0,1-1.7-.256,3.439,3.439,0,0,1-1.219-.674,2.981,2.981,0,0,1-.738-.962,2.585,2.585,0,0,1,0-2.245,2.977,2.977,0,0,1,.738-.962,3.322,3.322,0,0,1,1.251-.674,5.626,5.626,0,0,1,1.732-.256,4.939,4.939,0,0,1,1.8.321,9.69,9.69,0,0,1,1.636.8h.032c.032,0,.064,0,.064-.032l.9-1.155c0-.032.032-.032,0-.064,0-.032,0-.032-.032-.064q-.193-.145-.577-.385a7.611,7.611,0,0,0-.9-.481,5.557,5.557,0,0,0-1.283-.385,8.671,8.671,0,0,0-1.668-.16,7.013,7.013,0,0,0-2.406.385,5.728,5.728,0,0,0-1.8,1.027,4.514,4.514,0,0,0-1.123,1.475,4.015,4.015,0,0,0-.385,1.732,4.157,4.157,0,0,0,.385,1.764,6.8,6.8,0,0,0,1.219,1.475" transform="translate(-238.144 550.305)"></path>
    <path class="a" d="M390.208,257.513v-1.443a.1.1,0,0,0-.1-.1h-5.549v-6.992a.1.1,0,0,0-.1-.1H382.9a.1.1,0,0,0-.1.1v8.532a.1.1,0,0,0,.1.1h7.217q.1-.048.1-.1" transform="translate(-267.29 549.76)"></path>
    <path class="a" d="M423.182,250.905a4.524,4.524,0,0,0-1.123-1.475,5.678,5.678,0,0,0-1.8-.994,7.033,7.033,0,0,0-2.406-.353,7.91,7.91,0,0,0-2.406.353,5.676,5.676,0,0,0-1.8.994,4.235,4.235,0,0,0-1.507,3.272,4.3,4.3,0,0,0,.385,1.8,4.209,4.209,0,0,0,1.155,1.475,5.685,5.685,0,0,0,1.8.995,7.031,7.031,0,0,0,2.405.353,7.909,7.909,0,0,0,2.406-.353,5.685,5.685,0,0,0,1.8-.995A4.234,4.234,0,0,0,423.6,252.7a4.337,4.337,0,0,0-.417-1.8m-1.636,2.919a3.641,3.641,0,0,1-.77.962,3.9,3.9,0,0,1-1.251.673,5.412,5.412,0,0,1-1.7.257,5.566,5.566,0,0,1-1.7-.257,3.587,3.587,0,0,1-1.251-.673,2.691,2.691,0,0,1-.77-.962,2.349,2.349,0,0,1-.256-1.155,2.734,2.734,0,0,1,.256-1.123,3.633,3.633,0,0,1,.77-.962,3.9,3.9,0,0,1,1.251-.674,5.414,5.414,0,0,1,1.7-.256,5.566,5.566,0,0,1,1.7.256,3.588,3.588,0,0,1,1.251.674,2.688,2.688,0,0,1,.77.962,2.306,2.306,0,0,1,.256,1.123,2.045,2.045,0,0,1-.256,1.155" transform="translate(-287.242 550.305)"></path>
    <path class="a" d="M465.328,257.452a2.868,2.868,0,0,0,1.123-.577,2.343,2.343,0,0,0,.641-.866,3,3,0,0,0,.192-1.091,2.109,2.109,0,0,0-.128-.8,2.41,2.41,0,0,0-.257-.577,2.344,2.344,0,0,0-.32-.417l-.257-.257a2.885,2.885,0,0,0,.16-.256c.064-.1.128-.224.193-.321a1.577,1.577,0,0,0,.128-.417,3.127,3.127,0,0,0,.032-.577,2.033,2.033,0,0,0-.353-1.219,2.514,2.514,0,0,0-.834-.706,3.816,3.816,0,0,0-1.027-.321,5.193,5.193,0,0,0-.962-.064h-5.837a.1.1,0,0,0-.1.1v8.532a.1.1,0,0,0,.1.1h5.837a10.759,10.759,0,0,0,1.668-.256m-5.869-6.9h4.2a3.055,3.055,0,0,1,1.059.16.658.658,0,0,1,.353.674.644.644,0,0,1-.385.641,2.442,2.442,0,0,1-1.026.192h-4.2Zm0,3.3h4.266a5.7,5.7,0,0,1,.77.032,1.522,1.522,0,0,1,.577.16.7.7,0,0,1,.321.353,1.74,1.74,0,0,1,.128.641.819.819,0,0,1-.481.8,3.249,3.249,0,0,1-1.379.225h-4.2Z" transform="translate(-318.227 549.692)"></path>
    <path class="a" d="M503.538,257.545c0,.032.032.032.064.032h1.86c.032,0,.064,0,.064-.032v-.1l-5.036-8.532c0-.032-.032-.032-.064-.032h-1.572c-.032,0-.064,0-.064.032l-5,8.532v.1c0,.032.032.032.064.032h1.8c.032,0,.064,0,.064-.032l1.123-1.957h5.549Zm-5.773-3.56,1.86-3.207,1.86,3.207Z" transform="translate(-342.741 549.76)"></path>
    <path class="a" d="M545.573,257.513v-1.443a.1.1,0,0,0-.1-.1h-5.549v-6.992a.1.1,0,0,0-.1-.1H538.26a.1.1,0,0,0-.1.1v8.532a.1.1,0,0,0,.1.1h7.217q.1-.048.1-.1" transform="translate(-372.908 549.76)"></path>
    <path class="a" d="M389.079,288.953h-1.989c-.032,0-.032,0-.064.032l-2.758,3.239-2.758-3.239c0-.032-.032-.032-.064-.032h-1.989a.112.112,0,0,0-.064.032v.1l4.041,4.683v3.817a.1.1,0,0,0,.1.1H385.1a.1.1,0,0,0,.1-.1v-3.817l4.041-4.683a.06.06,0,0,0,0-.1.651.651,0,0,1-.16-.032" transform="translate(-264.974 522.521)"></path>
    <path class="a" d="M426.23,293.607a2.338,2.338,0,0,0-.321-.417l-.257-.257a2.966,2.966,0,0,0,.16-.257c.064-.1.128-.224.192-.32a1.607,1.607,0,0,0,.128-.417,3.12,3.12,0,0,0,.032-.577,2.035,2.035,0,0,0-.353-1.219,2.514,2.514,0,0,0-.834-.706,3.824,3.824,0,0,0-1.026-.321,5.2,5.2,0,0,0-.962-.064h-5.837a.1.1,0,0,0-.1.1v8.531a.1.1,0,0,0,.1.1h5.837a5.119,5.119,0,0,0,1.668-.225,2.858,2.858,0,0,0,1.123-.577,2.35,2.35,0,0,0,.641-.866,3,3,0,0,0,.192-1.091,3.054,3.054,0,0,0-.1-.8,3.645,3.645,0,0,0-.289-.61m-7.409-2.983h4.2a3.064,3.064,0,0,1,1.059.16.659.659,0,0,1,.353.674.643.643,0,0,1-.385.641,2.44,2.44,0,0,1-1.026.193h-4.2v-1.668Zm5.581,5.26a3.25,3.25,0,0,1-1.379.225h-4.2v-2.181h4.266a5.689,5.689,0,0,1,.77.032,1.219,1.219,0,0,1,.545.16.694.694,0,0,1,.321.353,1.746,1.746,0,0,1,.128.641.712.712,0,0,1-.449.77" transform="translate(-290.579 522.453)"></path>
    <path class="a" d="M463.858,295.973h-6.672v-2.053h3.528a.1.1,0,0,0,.1-.1v-1.443a.1.1,0,0,0-.1-.1h-3.528v-1.8h6.479a.1.1,0,0,0,.1-.1v-1.443a.1.1,0,0,0-.1-.1h-8.147a.1.1,0,0,0-.1.1v8.532a.1.1,0,0,0,.1.1h8.307a.1.1,0,0,0,.1-.1v-1.443a.069.069,0,0,0-.064-.064" transform="translate(-316.66 522.589)"></path>
    <path class="a" d="M501.042,297.517l-2.6-3.432a3.579,3.579,0,0,0,.738-.193,4.046,4.046,0,0,0,.834-.417,2.1,2.1,0,0,0,.609-.77,2.743,2.743,0,0,0,.257-1.219,2.364,2.364,0,0,0-.289-1.219,2.3,2.3,0,0,0-.8-.77,3.755,3.755,0,0,0-1.155-.417,6,6,0,0,0-1.347-.128H491.58a.1.1,0,0,0-.1.1v8.532a.1.1,0,0,0,.1.1h1.571a.1.1,0,0,0,.1-.1v-3.432h3.111l2.63,3.464c0,.032.032.032.064.032h1.957a.112.112,0,0,0,.064-.032c0-.032-.032-.064-.032-.1m-7.858-4.972v-1.989h4.138a6.132,6.132,0,0,1,.8.032,1.24,1.24,0,0,1,.545.128.574.574,0,0,1,.321.289,1.093,1.093,0,0,1,.128.513.845.845,0,0,1-.449.8,2.816,2.816,0,0,1-1.251.224Z" transform="translate(-341.175 522.521)"></path>
    <path class="a" d="M349.969,294.53c0-.032-.032-.032-.064-.032h-.064c-.128.064-.288.192-.513.321a6.89,6.89,0,0,1-.834.385,8.217,8.217,0,0,1-1.155.353,6.848,6.848,0,0,1-1.443.16,5.756,5.756,0,0,1-1.8-.256,4.069,4.069,0,0,1-1.283-.674,2.652,2.652,0,0,1-.995-1.988,2.917,2.917,0,0,1,.257-1.187,2.841,2.841,0,0,1,.77-.962,3.434,3.434,0,0,1,1.219-.673,5.147,5.147,0,0,1,1.636-.257,4.833,4.833,0,0,1,1.251.128,7.711,7.711,0,0,1,1.026.321c.289.128.577.288.866.417l.77.481h.032c.032,0,.064,0,.064-.032l.834-1.219a.079.079,0,0,0-.032-.128c-.192-.128-.417-.289-.706-.481a7.445,7.445,0,0,0-1.027-.545,9.969,9.969,0,0,0-1.379-.449,7.36,7.36,0,0,0-1.764-.16,7.96,7.96,0,0,0-2.181.321,6.345,6.345,0,0,0-1.8.93,4.394,4.394,0,0,0-1.187,1.475,4.085,4.085,0,0,0-.449,1.86,4.191,4.191,0,0,0,.417,1.892,4.494,4.494,0,0,0,1.219,1.475,6.322,6.322,0,0,0,1.86.93,7.8,7.8,0,0,0,2.342.32,10.594,10.594,0,0,0,1.86-.16c.545-.128,1.026-.257,1.411-.385a5.476,5.476,0,0,0,.962-.449,1.735,1.735,0,0,1,.513-.289c.032-.032.064-.064.032-.1Z" transform="translate(-238.212 523.135)"></path>
    <path class="a" d="M346.93,327.15c0-.032-.032-.032-.064-.032h-1.572c-.032,0-.064,0-.064.032l-5,8.532v.1c0,.032.032.032.064.032h1.8c.032,0,.064,0,.064-.032l1.123-1.956h5.549l1.155,1.956c0,.032.032.032.064.032h1.86c.032,0,.064,0,.064-.032v-.1Zm-2.726,5.068,1.86-3.207,1.86,3.207Z" transform="translate(-238.348 496.577)"></path>
    <path class="a" d="M391.915,334.206h-5.549v-6.992a.1.1,0,0,0-.1-.1H384.7a.1.1,0,0,0-.1.1v8.531a.1.1,0,0,0,.1.1h7.217a.1.1,0,0,0,.1-.1V334.3q-.048-.1-.1-.1" transform="translate(-268.515 496.577)"></path>
    <path class="a" d="M424.27,334.206h-5.549v-6.992a.1.1,0,0,0-.1-.1h-1.572a.1.1,0,0,0-.1.1v8.531a.1.1,0,0,0,.1.1h7.217a.1.1,0,0,0,.1-.1V334.3a.085.085,0,0,0-.1-.1" transform="translate(-290.511 496.577)"></path>
    <path class="a" d="M449.778,327.118h-1.572a.1.1,0,0,0-.1.1v8.532a.1.1,0,0,0,.1.1h1.572a.1.1,0,0,0,.1-.1v-8.532a.085.085,0,0,0-.1-.1" transform="translate(-311.689 496.577)"></path>
    <path class="a" d="M468.069,327.15c0-.032-.032-.032-.064-.032h-1.6c-.032,0-.064,0-.064.032l-5,8.532v.1c0,.032.032.032.064.032h1.8c.032,0,.064,0,.064-.032l1.123-1.956h5.549l1.155,1.956c0,.032.032.032.064.032h1.86c.032,0,.064,0,.064-.032v-.1Zm-2.758,5.068,1.86-3.207,1.86,3.207Z" transform="translate(-320.678 496.577)"></path>
    <path class="a" d="M514.721,327.118h-1.572a.1.1,0,0,0-.1.1v6.126l-5.613-6.19c0-.032-.032-.032-.064-.032H505.8a.1.1,0,0,0-.1.1v8.532a.1.1,0,0,0,.1.1h1.572a.1.1,0,0,0,.1-.1V329.62l5.645,6.19c0,.032.032.032.064.032h1.572a.1.1,0,0,0,.1-.1v-8.532c-.032-.064-.064-.1-.128-.1" transform="translate(-350.844 496.577)"></path>
    <path class="a" d="M552.615,332.764c0-.032-.032-.032-.064-.032h-.064c-.128.064-.289.192-.513.32a6.955,6.955,0,0,1-.834.385,7.111,7.111,0,0,1-1.155.353,6.845,6.845,0,0,1-1.443.16,5.757,5.757,0,0,1-1.8-.256,3.75,3.75,0,0,1-1.283-.674,2.653,2.653,0,0,1-.994-1.988,2.918,2.918,0,0,1,.257-1.187,2.841,2.841,0,0,1,.77-.962,3.436,3.436,0,0,1,1.219-.673,5.147,5.147,0,0,1,1.636-.257,4.845,4.845,0,0,1,1.251.128,7.742,7.742,0,0,1,1.026.321c.289.128.577.288.866.417l.77.481h.032c.032,0,.064,0,.064-.032l.834-1.219c.032-.032,0-.1-.032-.128-.192-.128-.417-.288-.705-.481a7.461,7.461,0,0,0-1.026-.545,7,7,0,0,0-1.379-.417,7.344,7.344,0,0,0-1.764-.16,7.958,7.958,0,0,0-2.181.32,6.353,6.353,0,0,0-1.8.93,4.4,4.4,0,0,0-1.187,1.475,4.081,4.081,0,0,0-.449,1.86,4.191,4.191,0,0,0,.417,1.892,4.489,4.489,0,0,0,1.219,1.475,5.946,5.946,0,0,0,1.86.93,7.8,7.8,0,0,0,2.342.321,10.6,10.6,0,0,0,1.86-.16c.545-.128,1.026-.257,1.411-.385a5.5,5.5,0,0,0,.962-.449,2.256,2.256,0,0,1,.513-.289c.032-.032.064-.064.032-.1Z" transform="translate(-375.973 497.121)"></path>
    <path class="a" d="M593.178,334.206h-6.671v-2.053h3.528a.1.1,0,0,0,.1-.1v-1.443a.1.1,0,0,0-.1-.1h-3.528v-1.764h6.479a.1.1,0,0,0,.1-.1v-1.443a.1.1,0,0,0-.1-.1h-8.147a.1.1,0,0,0-.1.1v8.531a.1.1,0,0,0,.1.1h8.307a.1.1,0,0,0,.1-.1V334.3c.032-.064-.032-.1-.064-.1" transform="translate(-404.573 496.577)"></path>
    <path class="b" d="M226.272,374.882a1.443,1.443,0,1,1,0-2.887H237.53a1.443,1.443,0,1,1,0,2.887Z" transform="translate(-159.901 466.069)"></path>
    <path class="c" d="M213.908,279.932a15.524,15.524,0,1,1,0-31.047,1.443,1.443,0,1,1,0,2.887,12.605,12.605,0,1,0,12.605,12.605,1.443,1.443,0,1,1,2.887,0,15.5,15.5,0,0,1-15.492,15.556" transform="translate(-141.923 549.76)"></path>
    <path class="b" d="M262.434,295.615a1.485,1.485,0,0,1-1.026-.417,1.405,1.405,0,0,1-.417-1.027,1.484,1.484,0,0,1,.417-1.026,6.949,6.949,0,0,0,1.6-7.313l2.309-1.989a10.02,10.02,0,0,1-1.86,11.386,1.615,1.615,0,0,1-1.026.385" transform="translate(-184.484 525.995)"></path>
    <path class="b" d="M202.03,273.56a21.1,21.1,0,0,1-21.1-20.335,21.174,21.174,0,0,1,5.068-14.562l.128-.16-1.956-1.956a1.4,1.4,0,0,1-.417-1.027,1.482,1.482,0,0,1,.417-1.026,1.4,1.4,0,0,1,1.026-.417,1.484,1.484,0,0,1,1.027.417l1.956,1.956.128-.128a21.119,21.119,0,0,1,13.76-5.068,1.443,1.443,0,1,1,0,2.887,18.02,18.02,0,0,0-12.894,5.356,18.243,18.243,0,1,0,26.942,1.251l-.128-.16L197.09,259.416a1.4,1.4,0,0,1-1.027.417,1.482,1.482,0,0,1-1.026-.417,9.89,9.89,0,0,1,12.733-15.043l.128.1,6.992-6.992a1.4,1.4,0,0,1,1.027-.417,1.482,1.482,0,0,1,1.026.417,21.133,21.133,0,0,1,1.123,28.674l-.128.16,1.956,1.957a1.4,1.4,0,0,1,.417,1.026,1.485,1.485,0,0,1-.417,1.027,1.4,1.4,0,0,1-1.026.417,1.485,1.485,0,0,1-1.027-.417l-1.956-1.957-.16.128a20.953,20.953,0,0,1-13.7,5.068m0-28.1a6.984,6.984,0,0,0-6,10.552l.128.225,9.654-9.654-.224-.128a6.635,6.635,0,0,0-3.56-.994" transform="translate(-130.045 561.745)"></path>
    <g transform="translate(190.236 830.798)">
      <path class="a" d="M617.487,349.3v.191h-.543v1.419h-.22v-1.419h-.542V349.3Z" transform="translate(-616.182 -349.302)"></path>
      <path class="a" d="M621.078,349.3h.313l.463,1.361.46-1.361h.31v1.61h-.208v-.951c0-.033,0-.087,0-.163s0-.158,0-.245l-.46,1.358h-.216l-.464-1.358v.049q0,.059,0,.181c0,.081,0,.14,0,.178v.951h-.208Z" transform="translate(-619.51 -349.302)"></path>
    </g>
  </g>
</svg>
