<svg id="Layer_1" data-name="Layer 1" xmlns="http://www.w3.org/2000/svg" viewBox="0 0 655.9 136.13"><defs><style>.cls-1{fill:#56565a;}</style></defs><title>Observatory_wordmark</title><path class="cls-1" d="M658.74,296a8.75,8.75,0,0,0-5.58-1.77c-3.1,0-5.42,1.05-8,3.7a9.29,9.29,0,0,0-1.11-1.38,7.66,7.66,0,0,0-5.75-2.32,9.75,9.75,0,0,0-6.92,2.88,7.29,7.29,0,0,0-1-2.88l-6.7,1.82c0.78,1.39,1.05,3.16,1.05,7.25v19.75H632V302.44a7.85,7.85,0,0,1,4.87-2.16c2.05,0,2.55.83,2.55,4.37v18.42h7V302.72a8.45,8.45,0,0,1,4.92-2.38c1.94,0,2.33.66,2.33,4v18.7h7.19V302.94C660.85,299.07,660.35,297.41,658.74,296Z" transform="translate(-146.37 -188.38)"/><path class="cls-1" d="M677.72,294.19c-7.63,0-12.72,5.92-12.72,14.83s5,14.66,12.72,14.66c4.37,0,7.19-1.49,9.35-3.93,2.43-2.77,3.54-6.08,3.54-11,0-4.59-1-7.69-3.27-10.35A11.86,11.86,0,0,0,677.72,294.19Zm0.22,24.12a4.1,4.1,0,0,1-3.76-2.32,26.86,26.86,0,0,1-.16-13.44,4.06,4.06,0,0,1,7-1.38c1,1.27,1.49,3.76,1.49,7.58C682.53,315.44,681.14,318.32,677.93,318.32Z" transform="translate(-146.37 -188.38)"/><polygon class="cls-1" points="568.07 111.46 568.07 106.37 547.05 106.37 547.05 111.57 559.28 111.57 545.95 130.1 545.95 134.69 566.8 134.69 568.57 129.55 555.57 129.55 568.07 111.46"/><polygon class="cls-1" points="572.33 134.69 579.74 134.69 579.74 105.71 572.33 106.87 572.33 134.69"/><path class="cls-1" d="M722.51,282.36a4.63,4.63,0,0,0-4.65,4.59A4.56,4.56,0,1,0,722.51,282.36Z" transform="translate(-146.37 -188.38)"/><path class="cls-1" d="M741.6,318.65a1.7,1.7,0,0,1-1.5-.77c-0.44-.78-0.5-1.44-0.5-6.31V289.5a42.1,42.1,0,0,0-.39-7.36l-7.58,1.71a72.53,72.53,0,0,1,.39,8.52V313.5c0,4,.11,4.92.67,6.36,0.89,2.38,3.43,3.87,6.58,3.87a12.36,12.36,0,0,0,4.43-.77l-1.27-4.42A2.46,2.46,0,0,1,741.6,318.65Z" transform="translate(-146.37 -188.38)"/><path class="cls-1" d="M757,318.65a1.7,1.7,0,0,1-1.5-.77c-0.44-.78-0.5-1.44-0.5-6.31V289.5a42,42,0,0,0-.38-7.36L747,283.85a72.82,72.82,0,0,1,.39,8.52V313.5c0,4,.11,4.92.66,6.36,0.89,2.38,3.43,3.87,6.58,3.87a12.34,12.34,0,0,0,4.43-.77l-1.27-4.42A2.45,2.45,0,0,1,757,318.65Z" transform="translate(-146.37 -188.38)"/><path class="cls-1" d="M783.8,314.17v-0.5l0.17-9.51c0.05-3-.11-3.93-0.5-5.09-1.11-3.15-4.37-4.92-9.13-4.92a19.17,19.17,0,0,0-7.74,1.66,27.33,27.33,0,0,0-4.59,2.32l3.15,5.31c3-2.05,5.81-3.21,8.19-3.21,2.71,0,3.32,1,3.32,4.2v1.16c-0.61-.05-1.1-0.05-1.66-0.05-9,0-13.61,3.1-13.61,9.74,0,5.64,3.43,8.85,9.74,8.85a9.82,9.82,0,0,0,5.7-1.55,13.83,13.83,0,0,0,1.71-1.5,7.94,7.94,0,0,0,4,3.43l3.93-4.54C784.3,318.38,783.8,317.21,783.8,314.17Zm-7.36,2.6a5.36,5.36,0,0,1-3.87,1.93c-1.88,0-3.27-1.49-3.27-3.7,0-3.37,1.77-4.31,6.92-4.31h0.33Z" transform="translate(-146.37 -188.38)"/><path class="cls-1" d="M178.49,188.38c-19.82,0-32.13,14.19-32.13,37.76,0,24.1,12.31,37.76,32.13,37.76s32-14.08,32-37.76C210.52,201.94,198.31,188.38,178.49,188.38Zm0,64c-10,0-16-7.41-16-26.29s5.74-26.29,16-26.29,15.86,7.41,15.86,26.29S188.82,252.43,178.49,252.43Z" transform="translate(-146.37 -188.38)"/><path class="cls-1" d="M255.89,224.05c6.68-1.56,13.25-6.47,13.25-15.54,0-13.35-11.58-18.46-30.46-18.46H219v72.18h22.53c17.73,0,30.77-4.8,30.77-21C272.26,229.48,264,225.62,255.89,224.05Zm-21.59-22.95h5.84c8.87,0,13.35,2.09,13.35,8.76,0,6.47-4.38,9.49-11.68,9.49h-7.51V201.11Zm7.3,49.75h-7.3V229.79H243c7.72,0,13.35,2.82,13.35,10.85C256.3,249.19,250.15,250.86,241.6,250.86Z" transform="translate(-146.37 -188.38)"/><path class="cls-1" d="M309.76,218.42c-11.79-3.65-14.5-5.74-14.5-10.74s4.28-7.82,10.54-7.82c5.84,0,10.85,1.88,16,6l7.3-8.45c-6.26-5.84-13.56-9.07-24.3-9.07-14.6,0-25.24,8-25.24,20.34,0,11,6.26,17.21,21.9,22.11,11,3.34,13.77,5.84,13.77,11.58,0,6.36-5,9.91-12.41,9.91s-13.14-2.71-18.36-7.2l-7.93,8.66c5.95,5.84,14.71,10.12,26.7,10.12,17.52,0,28-9.28,28-22.53S322.8,222.59,309.76,218.42Z" transform="translate(-146.37 -188.38)"/><polygon class="cls-1" points="207.4 42.66 230.14 42.66 230.14 31.61 207.4 31.61 207.4 12.83 233.48 12.83 235.15 1.67 192.07 1.67 192.07 73.85 235.36 73.85 235.36 62.59 207.4 62.59 207.4 42.66"/><path class="cls-1" d="M443.48,211.64c0-14.6-9.81-21.59-29.1-21.59H391.85v72.18h15.33V234H415l15.44,28.27h17.42L429.3,231.15C438.89,227.08,443.48,221.34,443.48,211.64Zm-28.27,11.47h-8V201h6.88c9.28,0,13.56,3.23,13.56,10.64C427.63,219.78,423.25,223.12,415.22,223.12Z" transform="translate(-146.37 -188.38)"/><polygon class="cls-1" points="345.94 1.67 331.76 61.13 317.05 1.67 300.67 1.67 322.16 73.85 340.83 73.85 361.59 1.67 345.94 1.67"/><path class="cls-1" d="M524.07,190.05l-22.22,72.18h16l4.07-16.17h22.63l4.07,16.17h16.27l-22.11-72.18H524.07Zm0.63,44.64,8.45-33.27,8.45,33.27H524.7Z" transform="translate(-146.37 -188.38)"/><polygon class="cls-1" points="412.14 13.66 431.34 13.66 431.34 73.85 446.67 73.85 446.67 13.66 464.93 13.66 466.59 1.67 412.14 1.67 412.14 13.66"/><path class="cls-1" d="M646.55,188.38c-19.82,0-32.13,14.19-32.13,37.76,0,24.1,12.31,37.76,32.13,37.76s32-14.08,32-37.76C678.57,201.94,666.37,188.38,646.55,188.38Zm0,64c-10,0-16-7.41-16-26.29s5.74-26.29,16-26.29,15.86,7.41,15.86,26.29S656.88,252.43,646.55,252.43Z" transform="translate(-146.37 -188.38)"/><path class="cls-1" d="M738.85,211.64c0-14.6-9.8-21.59-29.1-21.59H687.22v72.18h15.33V234h7.82l15.44,28.27h17.42l-18.57-31.08C734.26,227.08,738.85,221.34,738.85,211.64Zm-28.27,11.47h-8V201h6.88c9.28,0,13.56,3.23,13.56,10.64C723,219.78,718.62,223.12,710.59,223.12Z" transform="translate(-146.37 -188.38)"/><polygon class="cls-1" points="639.73 1.67 625.44 34.42 611.05 1.67 594.26 1.67 617.41 46.73 617.41 73.85 632.75 73.85 632.75 46.63 655.9 1.67 639.73 1.67"/><path class="cls-1" d="M590,294.4A7.75,7.75,0,0,0,584.4,297l1.36-9.72-2,.24-3.43,24.24a16.06,16.06,0,0,0,5.85,1.16c6.9,0,9.18-6.94,9.18-11.8C595.39,296.78,593.45,294.4,590,294.4Zm-3.74,16.9a9.29,9.29,0,0,1-3.74-.71l1.6-11.56c1.53-1.67,3.16-3,5.44-3s3.77,1.53,3.77,5C593.35,305.07,591.68,311.29,586.27,311.29Z" transform="translate(-146.37 -188.38)"/><path class="cls-1" d="M611.25,294.77l-7.58,16.29-3.06-16.29h-2.07l3.64,17.78,0.78,0c-1.63,3.13-2.75,4.56-6.46,5.41l0.1,1.56c4.42-.85,6.42-2.92,8.26-6.8l8.46-17.92h-2.07Z" transform="translate(-146.37 -188.38)"/></svg>