<?xml version="1.0" encoding="UTF-8"?>
<!-- Generator: Adobe Illustrator 14.0.0, SVG Export Plug-In . SVG Version: 6.00 Build 43363)  -->
<!DOCTYPE svg PUBLIC "-//W3C//DTD SVG 1.1//EN" "http://www.w3.org/Graphics/SVG/1.1/DTD/svg11.dtd">
<svg version="1.1" xmlns="http://www.w3.org/2000/svg" xmlns:xlink="http://www.w3.org/1999/xlink" x="0px" y="0px" width="529px" height="86.91px" viewBox="0 0 529 86.91" enable-background="new 0 0 529 86.91" xml:space="preserve">
<g id="Optima_Demi_Font" display="none">
	<g display="inline">
		<path d="M1.433,52.958L1.408,11.793c0,0,14.415-10.267,34.802-10.267c20.386,0,34.924,10.283,34.924,10.283l-0.033,41.148    C71.305,75.125,36.21,85.546,36.21,85.546S1.228,75.125,1.433,52.958 M8.717,16.923l-0.031,34.05    c-0.196,18.336,27.54,27.01,27.54,27.01s27.867-8.576,27.746-26.912l0.081-34.042c0,0-11.524-8.527-27.695-8.551    c-0.032,0-0.062,0-0.094,0C20.134,8.479,8.717,16.923,8.717,16.923"/>
		<path fill="#E20025" d="M8.686,50.973l0.031-34.05c0,0,11.46-8.478,27.64-8.445c16.171,0.024,27.695,8.551,27.695,8.551    l-0.081,34.042c0.122,18.336-27.746,26.912-27.746,26.912S8.49,69.309,8.686,50.973"/>
		<path fill="#FFFFFF" d="M35.46,57.818c-12.609,0-21.053-7.36-21.053-20.371c0-12.836,10.042-20.54,22.48-20.54    C49.554,16.907,58,25.064,58,37.22c0,9.299-5.708,16.718-14.495,19.571c4.679,2.968,5.715,3.246,11.02,6.155    c-2.795,0.571-5.42,1.598-7.988,3.14c-2.853-2.227-5.705-4.45-8.672-6.503L35.46,57.818L35.46,57.818z M23.877,39.102    c0,7.417,3.368,15.292,11.926,15.292c7.931,0,12.725-7.532,12.725-18.259c0-7.361-3.424-15.806-11.983-15.806    C27.074,20.273,23.877,28.489,23.877,39.102L23.877,39.102z"/>
		<path d="M111.57,58.192c-12.61,0-21.053-7.36-21.053-20.371c0-12.836,10.042-20.539,22.48-20.539    c12.667,0,21.112,8.157,21.112,20.313c0,9.299-5.707,16.718-14.493,19.571c4.679,2.968,5.713,3.246,11.02,6.155    c-2.795,0.571-5.42,1.598-7.987,3.14c-2.854-2.227-5.706-4.45-8.672-6.503L111.57,58.192L111.57,58.192z M99.986,39.476    c0,7.417,3.368,15.292,11.926,15.292c7.93,0,12.725-7.532,12.725-18.259c0-7.36-3.425-15.805-11.983-15.805    C103.184,20.647,99.986,28.864,99.986,39.476L99.986,39.476z"/>
		<path d="M141.171,24.902c1.184,0.097,2.367,0.239,3.554,0.239c1.183,0,2.367-0.143,3.55-0.239v13.456    c0,2.605-0.095,6.489,0.332,8.952c0.426,2.321,0.806,3.79,2.511,5.449c1.518,1.421,3.316,2.036,5.4,2.036    c4.407,0,6.774-1.61,8.432-5.732c0.853-2.083,0.853-7.484,0.853-9.807V24.901c0.617,0.098,1.28,0.145,1.895,0.145    c0.617,0,1.28-0.047,1.895-0.145V41.77c-0.142,5.397-0.092,10.324-5.02,13.737c-2.559,1.848-5.828,2.51-8.953,2.51    c-5.734,0-11.941-1.798-13.693-7.959c-0.521-1.848-0.757-3.932-0.757-5.826V24.902L141.171,24.902z"/>
		<path d="M180.927,47.5c-1.232,3.6-1.606,6.538-2.504,9.807c-0.76-0.047-1.469-0.144-2.228-0.144c-0.757,0-1.515,0.097-2.274,0.144    l12.739-32.83c0.615,0.094,1.184,0.143,1.801,0.143c0.615,0,1.184-0.049,1.799-0.143l13.217,32.925    c-1.371-0.096-2.701-0.238-4.075-0.238c-1.373,0-2.699,0.143-4.072,0.238c-1.09-3.507-2.087-6.727-3.364-9.902L180.927,47.5    L180.927,47.5z M190.875,44.61l-4.215-11.038l-4.453,11.039L190.875,44.61L190.875,44.61z"/>
		<path d="M216.883,53.753c4.123,0,7.627-0.331,10.847-0.664c-0.094,0.664-0.236,1.377-0.236,2.038c0,0.663,0.142,1.374,0.236,2.036    h-17.954l0.002-32.263c1.181,0.098,2.367,0.24,3.551,0.24c1.184,0,2.37-0.143,3.554-0.24V53.753L216.883,53.753z"/>
		<path d="M240.356,43.71c-3.554-6.112-6.681-12.507-10.188-18.81c1.422,0.098,2.845,0.24,4.266,0.24c1.42,0,2.843-0.143,4.263-0.24    c1.279,2.608,2.699,5.64,4.026,8.433c1.279,2.654,2.416,4.976,2.984,5.686c1.801-2.224,5.307-10.089,7.109-14.118    c0.756,0.098,1.514,0.145,2.32,0.145c0.754,0,1.514-0.047,2.271-0.145c-3.41,6.066-6.961,11.799-9.949,17.862v14.639    c-1.182-0.096-2.367-0.238-3.553-0.238c-1.183,0-2.367,0.143-3.55,0.238V43.71L240.356,43.71z"/>
		<path d="M278.596,31.077c-0.949-2.51-2.748-4.119-5.449-4.119c-3.74,0-5.209,1.94-5.209,4.64c0,6.397,14.398,5.212,14.398,16.062    c0,6.064-5.209,10.422-12.553,10.422c-2.605,0-5.4-0.615-7.629-2.036c0.572-1.991,1.092-3.982,1.377-6.017h0.896    c0.715,3.269,3.271,5.213,6.541,5.213c2.936,0,5.543-1.661,5.543-4.929c0-7.581-14.117-4.832-14.117-16.25    c0-5.449,3.744-9.947,10.943-9.947c3.412,0,6.441,1.277,7.482,2.273c-0.566,1.515-1.041,3.079-1.516,4.688H278.596L278.596,31.077    z"/>
		<g>
			<path d="M289.379,22.942c2.119,0,3.775,1.678,3.775,3.772c0,2.118-1.678,3.774-3.754,3.774c-2.096,0-3.773-1.656-3.773-3.774     C285.627,24.574,287.326,22.942,289.379,22.942z M289.379,23.614c-1.719,0-3.037,1.36-3.037,3.101     c0,1.761,1.299,3.104,3.037,3.104c1.764,0,3.064-1.32,3.064-3.104C292.443,25.017,291.184,23.614,289.379,23.614z      M291.438,28.748c-0.148-0.021-0.273-0.04-0.441-0.04c-0.15,0-0.297,0.019-0.525,0.04c-0.713-1.026-1.279-1.614-1.678-2.073     h-0.146c0,0.65,0,1.152,0.063,2.073c-0.188-0.021-0.271-0.04-0.482-0.04s-0.271,0.019-0.398,0.04     c0.043-0.459,0.063-0.985,0.063-2.201c0-1.069-0.02-1.594-0.043-2.054c0.316,0.021,0.549,0.021,1.029,0.021     c1.051,0,2.139-0.021,2.139,1.006c0,0.881-0.967,1.027-1.383,1.07c0.271,0.377,1.551,1.825,1.822,2.098L291.438,28.748z      M288.668,24.804c-0.021,0.569-0.021,1.072-0.021,1.575c0.463,0,1.553,0,1.553-0.817     C290.199,24.804,289.359,24.804,288.668,24.804z"/>
		</g>
	</g>
	<text transform="matrix(1 0 0 1 304.4443 57.4019)" display="inline"><tspan x="0" y="0" fill="#E20025" font-family="'Optima-DemiBold'" font-size="55.7842">ssl</tspan><tspan x="81.332" y="0" font-family="'Optima-DemiBold'" font-size="55.7842"> </tspan><tspan x="93.158" y="0" font-family="'Optima-DemiBold'" font-size="55.7842">l</tspan><tspan x="118.762" y="0" font-family="'Optima-DemiBold'" font-size="55.7842">a</tspan><tspan x="152.846" y="0" font-family="'Optima-DemiBold'" font-size="55.7842">bs</tspan></text>
</g>
<g id="Outlined">
	<g>
		<g>
			<path d="M1.433,52.958L1.408,11.793c0,0,14.415-10.267,34.802-10.267c20.386,0,34.924,10.283,34.924,10.283l-0.033,41.148     C71.305,75.125,36.21,85.546,36.21,85.546S1.228,75.125,1.433,52.958 M8.717,16.923l-0.031,34.05     c-0.196,18.336,27.54,27.01,27.54,27.01s27.867-8.576,27.746-26.912l0.081-34.042c0,0-11.524-8.527-27.695-8.551     c-0.032,0-0.062,0-0.094,0C20.134,8.479,8.717,16.923,8.717,16.923"/>
			<path fill="#E20025" d="M8.686,50.973l0.031-34.05c0,0,11.46-8.478,27.64-8.445c16.171,0.024,27.695,8.551,27.695,8.551     l-0.081,34.042c0.122,18.336-27.746,26.912-27.746,26.912S8.49,69.309,8.686,50.973"/>
			<path fill="#FFFFFF" d="M35.46,57.818c-12.609,0-21.053-7.36-21.053-20.371c0-12.836,10.042-20.54,22.48-20.54     C49.554,16.907,58,25.064,58,37.22c0,9.299-5.708,16.718-14.495,19.571c4.679,2.968,5.715,3.246,11.02,6.155     c-2.795,0.571-5.42,1.598-7.988,3.14c-2.853-2.227-5.705-4.45-8.672-6.503L35.46,57.818L35.46,57.818z M23.877,39.102     c0,7.417,3.368,15.292,11.926,15.292c7.931,0,12.725-7.532,12.725-18.259c0-7.361-3.424-15.806-11.983-15.806     C27.074,20.273,23.877,28.489,23.877,39.102L23.877,39.102z"/>
			<path d="M111.57,58.192c-12.61,0-21.053-7.36-21.053-20.371c0-12.836,10.042-20.539,22.48-20.539     c12.667,0,21.112,8.157,21.112,20.313c0,9.299-5.707,16.718-14.493,19.571c4.679,2.968,5.713,3.246,11.02,6.155     c-2.795,0.571-5.42,1.598-7.987,3.14c-2.854-2.227-5.706-4.45-8.672-6.503L111.57,58.192L111.57,58.192z M99.986,39.476     c0,7.417,3.368,15.292,11.926,15.292c7.93,0,12.725-7.532,12.725-18.259c0-7.36-3.425-15.805-11.983-15.805     C103.184,20.647,99.986,28.864,99.986,39.476L99.986,39.476z"/>
			<path d="M141.171,24.902c1.184,0.097,2.367,0.239,3.554,0.239c1.183,0,2.367-0.143,3.55-0.239v13.456     c0,2.605-0.095,6.489,0.332,8.952c0.426,2.321,0.806,3.79,2.511,5.449c1.518,1.421,3.316,2.036,5.4,2.036     c4.407,0,6.774-1.61,8.432-5.732c0.853-2.083,0.853-7.484,0.853-9.807V24.901c0.617,0.098,1.28,0.145,1.895,0.145     c0.617,0,1.28-0.047,1.895-0.145V41.77c-0.142,5.397-0.092,10.324-5.02,13.737c-2.559,1.848-5.828,2.51-8.953,2.51     c-5.734,0-11.941-1.798-13.693-7.959c-0.521-1.848-0.757-3.932-0.757-5.826V24.902L141.171,24.902z"/>
			<path d="M180.927,47.5c-1.232,3.6-1.606,6.538-2.504,9.807c-0.76-0.047-1.469-0.144-2.228-0.144     c-0.757,0-1.515,0.097-2.274,0.144l12.739-32.83c0.615,0.094,1.184,0.143,1.801,0.143c0.615,0,1.184-0.049,1.799-0.143     l13.217,32.925c-1.371-0.096-2.701-0.238-4.075-0.238c-1.373,0-2.699,0.143-4.072,0.238c-1.09-3.507-2.087-6.727-3.364-9.902     L180.927,47.5L180.927,47.5z M190.875,44.61l-4.215-11.038l-4.453,11.039L190.875,44.61L190.875,44.61z"/>
			<path d="M216.883,53.753c4.123,0,7.627-0.331,10.847-0.664c-0.094,0.664-0.236,1.377-0.236,2.038     c0,0.663,0.142,1.374,0.236,2.036h-17.954l0.002-32.263c1.181,0.098,2.367,0.24,3.551,0.24c1.184,0,2.37-0.143,3.554-0.24V53.753     L216.883,53.753z"/>
			<path d="M240.356,43.71c-3.554-6.112-6.681-12.507-10.188-18.81c1.422,0.098,2.845,0.24,4.266,0.24     c1.42,0,2.843-0.143,4.263-0.24c1.279,2.608,2.699,5.64,4.026,8.433c1.279,2.654,2.416,4.976,2.984,5.686     c1.801-2.224,5.307-10.089,7.109-14.118c0.756,0.098,1.514,0.145,2.32,0.145c0.754,0,1.514-0.047,2.271-0.145     c-3.41,6.066-6.961,11.799-9.949,17.862v14.639c-1.182-0.096-2.367-0.238-3.553-0.238c-1.183,0-2.367,0.143-3.55,0.238V43.71     L240.356,43.71z"/>
			<path d="M278.596,31.077c-0.949-2.51-2.748-4.119-5.449-4.119c-3.74,0-5.209,1.94-5.209,4.64c0,6.397,14.398,5.212,14.398,16.062     c0,6.064-5.209,10.422-12.553,10.422c-2.605,0-5.4-0.615-7.629-2.036c0.572-1.991,1.092-3.982,1.377-6.017h0.896     c0.715,3.269,3.271,5.213,6.541,5.213c2.936,0,5.543-1.661,5.543-4.929c0-7.581-14.117-4.832-14.117-16.25     c0-5.449,3.744-9.947,10.943-9.947c3.412,0,6.441,1.277,7.482,2.273c-0.566,1.515-1.041,3.079-1.516,4.688H278.596     L278.596,31.077z"/>
			<g>
				<path d="M289.379,22.942c2.119,0,3.775,1.678,3.775,3.772c0,2.118-1.678,3.774-3.754,3.774c-2.096,0-3.773-1.656-3.773-3.774      C285.627,24.574,287.326,22.942,289.379,22.942z M289.379,23.614c-1.719,0-3.037,1.36-3.037,3.101      c0,1.761,1.299,3.104,3.037,3.104c1.764,0,3.064-1.32,3.064-3.104C292.443,25.017,291.184,23.614,289.379,23.614z       M291.438,28.748c-0.148-0.021-0.273-0.04-0.441-0.04c-0.15,0-0.297,0.019-0.525,0.04c-0.713-1.026-1.279-1.614-1.678-2.073      h-0.146c0,0.65,0,1.152,0.063,2.073c-0.188-0.021-0.271-0.04-0.482-0.04s-0.271,0.019-0.398,0.04      c0.043-0.459,0.063-0.985,0.063-2.201c0-1.069-0.02-1.594-0.043-2.054c0.316,0.021,0.549,0.021,1.029,0.021      c1.051,0,2.139-0.021,2.139,1.006c0,0.881-0.967,1.027-1.383,1.07c0.271,0.377,1.551,1.825,1.822,2.098L291.438,28.748z       M288.668,24.804c-0.021,0.569-0.021,1.072-0.021,1.575c0.463,0,1.553,0,1.553-0.817      C290.199,24.804,289.359,24.804,288.668,24.804z"/>
			</g>
		</g>
		<g>
			<path fill="#E20025" d="M309.074,49.034c2.566,5.579,5.355,6.416,8.647,6.416c4.407,0,7.308-2.957,7.308-6.974     c0-4.407-3.515-5.969-4.574-6.415c-1.563-0.67-4.184-1.674-5.746-2.344c-5.411-2.398-7.029-5.243-7.029-9.874     c0-4.909,2.901-11.157,12.998-11.157c4.072,0,6.527,1.06,9.261,2.288c-1.115,2.733-1.228,3.18-1.729,5.299h-0.781     c-0.836-3.18-3.793-4.853-7.308-4.853c-4.407,0-6.583,2.733-6.583,6.025c0,4.072,2.846,5.188,7.755,7.085     c4.295,1.674,5.969,2.287,7.587,4.072c2.343,2.51,2.733,5.802,2.733,7.363c0,5.69-3.961,12.218-14.17,12.218     c-4.798,0-8.424-1.841-10.432-2.846c0.948-2.9,1.004-3.626,1.283-6.304H309.074z"/>
			<path fill="#E20025" d="M337.92,49.034c2.566,5.579,5.355,6.416,8.647,6.416c4.407,0,7.308-2.957,7.308-6.974     c0-4.407-3.515-5.969-4.574-6.415c-1.563-0.67-4.184-1.674-5.746-2.344c-5.411-2.398-7.029-5.243-7.029-9.874     c0-4.909,2.901-11.157,12.998-11.157c4.072,0,6.527,1.06,9.261,2.288c-1.115,2.733-1.228,3.18-1.729,5.299h-0.781     c-0.836-3.18-3.793-4.853-7.308-4.853c-4.407,0-6.583,2.733-6.583,6.025c0,4.072,2.846,5.188,7.755,7.085     c4.295,1.674,5.969,2.287,7.587,4.072c2.343,2.51,2.733,5.802,2.733,7.363c0,5.69-3.961,12.218-14.17,12.218     c-4.798,0-8.424-1.841-10.432-2.846c0.948-2.9,1.004-3.626,1.283-6.304H337.92z"/>
			<path fill="#E20025" d="M367.558,34.362c0-2.454,0-3.012-0.168-7.977c-0.056-1.172-0.167-6.193-0.223-7.252     c1.395,0.279,2.454,0.334,3.849,0.334s2.511-0.111,3.905-0.335c-0.391,8.424-0.558,15.453-0.558,24.044     c0,3.905,0.111,7.531,0.167,10.6h1.005c1.617,0,9.65,0,12.941-0.502c-0.167,0.613-0.278,0.948-0.278,2.231     c0,0.837,0.056,1.171,0.278,1.896c-2.845-0.111-7.643-0.335-10.654-0.335c-3.57,0-6.583,0.111-10.655,0.335     c0-0.893,0.391-13.835,0.391-15.229V34.362z"/>
			<path d="M409.953,34.362c0-2.454,0-3.012-0.168-7.977c-0.056-1.172-0.167-6.193-0.223-7.252c1.395,0.279,2.454,0.334,3.849,0.334     c1.396,0,2.511-0.111,3.905-0.335c-0.391,8.424-0.558,15.453-0.558,24.044c0,3.905,0.111,7.531,0.167,10.6h1.004     c1.618,0,9.651,0,12.943-0.502c-0.168,0.613-0.279,0.948-0.279,2.231c0,0.837,0.056,1.171,0.279,1.896     c-2.846-0.111-7.644-0.335-10.655-0.335c-3.57,0-6.583,0.111-10.655,0.335c0-0.893,0.391-13.835,0.391-15.229V34.362z"/>
			<path d="M457.481,51.209l-2.343-5.913c-2.398-0.111-4.742-0.224-7.141-0.224c-2.231,0-4.463,0.112-6.694,0.224     c-1.785,4.296-3.57,8.926-4.463,12.105c-0.726-0.111-1.785-0.335-2.678-0.335c-0.948,0-1.729,0.224-2.511,0.335l6.472-14.393     c5.634-12.608,8.87-19.86,10.209-24.435c0.613,0.167,1.171,0.279,1.841,0.279c0.613,0,1.172-0.111,1.785-0.279     c2.678,7.643,6.024,15.453,8.033,20.139c2.12,4.854,5.802,13.277,8.312,18.688c-0.836-0.056-2.789-0.335-4.351-0.335     c-1.563,0-3.124,0.279-4.129,0.335L457.481,51.209z M448.277,28.114l-5.69,13.724c1.952,0.056,3.849,0.224,5.802,0.224     c1.729,0,3.402-0.112,5.132-0.224L448.277,28.114z"/>
			<path d="M495.137,54.167c-1.507,1.45-4.017,3.235-10.098,3.235c-2.343,0-4.686-0.279-7.029-0.279     c-1.785,0-3.57,0.224-5.355,0.279c0.279-6.472,0.391-13.779,0.391-19.804c0-6.137-0.056-12.329-0.446-18.465     c1.395,0.111,2.343,0.223,4.854,0.279c1.228,0,6.639-0.279,7.755-0.279c6.191,0,11.659,1.729,11.659,8.981     c0,5.133-4.854,8.033-9.429,8.703c6.137,0.613,11.046,2.678,11.046,9.985C498.483,50.987,496.029,53.33,495.137,54.167z      M479.795,35.589c0.781,0.056,1.563,0.111,2.287,0.111c4.854,0,7.588-2.565,7.588-7.419c0-3.794-2.064-6.36-5.914-6.36     c-1.283,0-2.566,0.056-3.849,0.167c-0.056,1.506-0.112,3.013-0.112,4.519V35.589z M479.795,49.648     c0,0.893,0.057,3.067,0.112,4.63c1.115,0.167,1.896,0.335,3.012,0.335c5.244,0,8.201-2.622,8.201-8.033     c0-6.416-3.626-8.313-9.316-8.313c-0.67,0-1.283,0.056-2.009,0.167V49.648z"/>
			<path d="M505.242,49.034c2.566,5.579,5.355,6.416,8.647,6.416c4.407,0,7.308-2.957,7.308-6.974c0-4.407-3.515-5.969-4.574-6.415     c-1.563-0.67-4.184-1.674-5.746-2.344c-5.411-2.398-7.029-5.243-7.029-9.874c0-4.909,2.901-11.157,12.998-11.157     c4.072,0,6.527,1.06,9.261,2.288c-1.115,2.733-1.228,3.18-1.729,5.299h-0.781c-0.836-3.18-3.793-4.853-7.308-4.853     c-4.407,0-6.583,2.733-6.583,6.025c0,4.072,2.846,5.188,7.755,7.085c4.295,1.674,5.969,2.287,7.587,4.072     c2.343,2.51,2.733,5.802,2.733,7.363c0,5.69-3.961,12.218-14.17,12.218c-4.798,0-8.424-1.841-10.432-2.846     c0.948-2.9,1.004-3.626,1.283-6.304H505.242z"/>
		</g>
	</g>
</g>
</svg>